<svg xmlns="http://www.w3.org/2000/svg" xmlns:rdkit="http://www.rdkit.org/xml" xmlns:xlink="http://www.w3.org/1999/xlink" version="1.1" baseProfile="full" xml:space="preserve" width="600px" height="280px" viewBox="0 0 600 280">
<!-- END OF HEADER -->
<rect style="opacity:1.0;fill:#FFFFFF;stroke:none" width="600.0" height="280.0" x="0.0" y="0.0"> </rect>
<path class="bond-0 atom-1 atom-0" d="M 84.7,163.9 L 85.3,164.1" style="fill:none;fill-rule:evenodd;stroke:#000000;stroke-width:1.0px;stroke-linecap:butt;stroke-linejoin:miter;stroke-opacity:1"/>
<path class="bond-0 atom-1 atom-0" d="M 83.4,167.2 L 84.5,167.5" style="fill:none;fill-rule:evenodd;stroke:#000000;stroke-width:1.0px;stroke-linecap:butt;stroke-linejoin:miter;stroke-opacity:1"/>
<path class="bond-0 atom-1 atom-0" d="M 82.1,170.5 L 83.8,171.0" style="fill:none;fill-rule:evenodd;stroke:#000000;stroke-width:1.0px;stroke-linecap:butt;stroke-linejoin:miter;stroke-opacity:1"/>
<path class="bond-0 atom-1 atom-0" d="M 80.8,173.7 L 83.1,174.4" style="fill:none;fill-rule:evenodd;stroke:#000000;stroke-width:1.0px;stroke-linecap:butt;stroke-linejoin:miter;stroke-opacity:1"/>
<path class="bond-0 atom-1 atom-0" d="M 79.6,177.0 L 82.3,177.8" style="fill:none;fill-rule:evenodd;stroke:#000000;stroke-width:1.0px;stroke-linecap:butt;stroke-linejoin:miter;stroke-opacity:1"/>
<path class="bond-0 atom-1 atom-0" d="M 78.3,180.3 L 81.6,181.3" style="fill:none;fill-rule:evenodd;stroke:#000000;stroke-width:1.0px;stroke-linecap:butt;stroke-linejoin:miter;stroke-opacity:1"/>
<path class="bond-0 atom-1 atom-0" d="M 77.0,183.5 L 80.9,184.7" style="fill:none;fill-rule:evenodd;stroke:#000000;stroke-width:1.0px;stroke-linecap:butt;stroke-linejoin:miter;stroke-opacity:1"/>
<path class="bond-0 atom-1 atom-0" d="M 75.7,186.8 L 80.2,188.1" style="fill:none;fill-rule:evenodd;stroke:#000000;stroke-width:1.0px;stroke-linecap:butt;stroke-linejoin:miter;stroke-opacity:1"/>
<path class="bond-0 atom-1 atom-0" d="M 74.4,190.0 L 79.4,191.6" style="fill:none;fill-rule:evenodd;stroke:#000000;stroke-width:1.0px;stroke-linecap:butt;stroke-linejoin:miter;stroke-opacity:1"/>
<path class="bond-1 atom-1 atom-2" d="M 86.0,160.7 L 62.0,135.2" style="fill:none;fill-rule:evenodd;stroke:#000000;stroke-width:2.0px;stroke-linecap:butt;stroke-linejoin:miter;stroke-opacity:1"/>
<path class="bond-2 atom-2 atom-3" d="M 62.0,135.2 L 72.1,101.7" style="fill:none;fill-rule:evenodd;stroke:#000000;stroke-width:2.0px;stroke-linecap:butt;stroke-linejoin:miter;stroke-opacity:1"/>
<path class="bond-3 atom-3 atom-4" d="M 72.1,101.7 L 106.2,93.7" style="fill:none;fill-rule:evenodd;stroke:#000000;stroke-width:2.0px;stroke-linecap:butt;stroke-linejoin:miter;stroke-opacity:1"/>
<path class="bond-4 atom-4 atom-5" d="M 106.2,93.7 L 130.2,119.2" style="fill:none;fill-rule:evenodd;stroke:#000000;stroke-width:2.0px;stroke-linecap:butt;stroke-linejoin:miter;stroke-opacity:1"/>
<path class="bond-5 atom-5 atom-6" d="M 130.2,119.2 L 126.1,132.8" style="fill:none;fill-rule:evenodd;stroke:#000000;stroke-width:2.0px;stroke-linecap:butt;stroke-linejoin:miter;stroke-opacity:1"/>
<path class="bond-5 atom-5 atom-6" d="M 126.1,132.8 L 121.9,146.5" style="fill:none;fill-rule:evenodd;stroke:#FF0000;stroke-width:2.0px;stroke-linecap:butt;stroke-linejoin:miter;stroke-opacity:1"/>
<path class="bond-6 atom-5 atom-7" d="M 130.2,119.2 L 143.5,114.7 L 144.1,117.3 Z" style="fill:#000000;fill-rule:evenodd;fill-opacity:1;stroke:#000000;stroke-width:0.5px;stroke-linecap:butt;stroke-linejoin:miter;stroke-opacity:1;"/>
<path class="bond-6 atom-5 atom-7" d="M 143.5,114.7 L 158.0,115.3 L 156.8,110.2 Z" style="fill:#FF0000;fill-rule:evenodd;fill-opacity:1;stroke:#FF0000;stroke-width:0.5px;stroke-linecap:butt;stroke-linejoin:miter;stroke-opacity:1;"/>
<path class="bond-6 atom-5 atom-7" d="M 143.5,114.7 L 144.1,117.3 L 158.0,115.3 Z" style="fill:#FF0000;fill-rule:evenodd;fill-opacity:1;stroke:#FF0000;stroke-width:0.5px;stroke-linecap:butt;stroke-linejoin:miter;stroke-opacity:1;"/>
<path class="bond-7 atom-7 atom-8" d="M 169.9,117.2 L 179.1,127.0" style="fill:none;fill-rule:evenodd;stroke:#FF0000;stroke-width:2.0px;stroke-linecap:butt;stroke-linejoin:miter;stroke-opacity:1"/>
<path class="bond-7 atom-7 atom-8" d="M 179.1,127.0 L 188.2,136.7" style="fill:none;fill-rule:evenodd;stroke:#000000;stroke-width:2.0px;stroke-linecap:butt;stroke-linejoin:miter;stroke-opacity:1"/>
<path class="bond-8 atom-8 atom-9" d="M 188.2,136.7 L 206.3,166.6" style="fill:none;fill-rule:evenodd;stroke:#000000;stroke-width:2.0px;stroke-linecap:butt;stroke-linejoin:miter;stroke-opacity:1"/>
<path class="bond-9 atom-9 atom-10" d="M 206.3,166.6 L 240.4,158.6" style="fill:none;fill-rule:evenodd;stroke:#000000;stroke-width:2.0px;stroke-linecap:butt;stroke-linejoin:miter;stroke-opacity:1"/>
<path class="bond-10 atom-10 atom-11" d="M 240.4,158.6 L 243.3,123.7" style="fill:none;fill-rule:evenodd;stroke:#000000;stroke-width:2.0px;stroke-linecap:butt;stroke-linejoin:miter;stroke-opacity:1"/>
<path class="bond-11 atom-11 atom-12" d="M 243.3,123.7 L 230.0,118.2" style="fill:none;fill-rule:evenodd;stroke:#000000;stroke-width:2.0px;stroke-linecap:butt;stroke-linejoin:miter;stroke-opacity:1"/>
<path class="bond-11 atom-11 atom-12" d="M 230.0,118.2 L 216.8,112.6" style="fill:none;fill-rule:evenodd;stroke:#FF0000;stroke-width:2.0px;stroke-linecap:butt;stroke-linejoin:miter;stroke-opacity:1"/>
<path class="bond-12 atom-11 atom-13" d="M 246.5,122.2 L 246.2,121.7" style="fill:none;fill-rule:evenodd;stroke:#000000;stroke-width:1.0px;stroke-linecap:butt;stroke-linejoin:miter;stroke-opacity:1"/>
<path class="bond-12 atom-11 atom-13" d="M 249.6,120.6 L 249.0,119.6" style="fill:none;fill-rule:evenodd;stroke:#000000;stroke-width:1.0px;stroke-linecap:butt;stroke-linejoin:miter;stroke-opacity:1"/>
<path class="bond-12 atom-11 atom-13" d="M 252.8,119.0 L 251.8,117.6" style="fill:none;fill-rule:evenodd;stroke:#000000;stroke-width:1.0px;stroke-linecap:butt;stroke-linejoin:miter;stroke-opacity:1"/>
<path class="bond-12 atom-11 atom-13" d="M 255.9,117.5 L 254.7,115.5" style="fill:none;fill-rule:evenodd;stroke:#000000;stroke-width:1.0px;stroke-linecap:butt;stroke-linejoin:miter;stroke-opacity:1"/>
<path class="bond-12 atom-11 atom-13" d="M 259.0,115.9 L 257.5,113.4" style="fill:none;fill-rule:evenodd;stroke:#000000;stroke-width:1.0px;stroke-linecap:butt;stroke-linejoin:miter;stroke-opacity:1"/>
<path class="bond-12 atom-11 atom-13" d="M 262.2,114.4 L 260.4,111.4" style="fill:none;fill-rule:evenodd;stroke:#000000;stroke-width:1.0px;stroke-linecap:butt;stroke-linejoin:miter;stroke-opacity:1"/>
<path class="bond-12 atom-11 atom-13" d="M 265.3,112.8 L 263.2,109.3" style="fill:none;fill-rule:evenodd;stroke:#000000;stroke-width:1.0px;stroke-linecap:butt;stroke-linejoin:miter;stroke-opacity:1"/>
<path class="bond-12 atom-11 atom-13" d="M 268.5,111.2 L 266.0,107.2" style="fill:none;fill-rule:evenodd;stroke:#000000;stroke-width:1.0px;stroke-linecap:butt;stroke-linejoin:miter;stroke-opacity:1"/>
<path class="bond-12 atom-11 atom-13" d="M 271.6,109.7 L 268.9,105.2" style="fill:none;fill-rule:evenodd;stroke:#000000;stroke-width:1.0px;stroke-linecap:butt;stroke-linejoin:miter;stroke-opacity:1"/>
<path class="bond-13 atom-13 atom-14" d="M 273.3,105.6 L 273.0,91.3" style="fill:none;fill-rule:evenodd;stroke:#000000;stroke-width:2.0px;stroke-linecap:butt;stroke-linejoin:miter;stroke-opacity:1"/>
<path class="bond-13 atom-13 atom-14" d="M 273.0,91.3 L 272.7,76.9" style="fill:none;fill-rule:evenodd;stroke:#FF0000;stroke-width:2.0px;stroke-linecap:butt;stroke-linejoin:miter;stroke-opacity:1"/>
<path class="bond-14 atom-10 atom-15" d="M 240.4,158.6 L 251.1,166.1 L 249.4,168.1 Z" style="fill:#000000;fill-rule:evenodd;fill-opacity:1;stroke:#000000;stroke-width:0.5px;stroke-linecap:butt;stroke-linejoin:miter;stroke-opacity:1;"/>
<path class="bond-14 atom-10 atom-15" d="M 251.1,166.1 L 258.3,177.5 L 261.8,173.6 Z" style="fill:#FF0000;fill-rule:evenodd;fill-opacity:1;stroke:#FF0000;stroke-width:0.5px;stroke-linecap:butt;stroke-linejoin:miter;stroke-opacity:1;"/>
<path class="bond-14 atom-10 atom-15" d="M 251.1,166.1 L 249.4,168.1 L 258.3,177.5 Z" style="fill:#FF0000;fill-rule:evenodd;fill-opacity:1;stroke:#FF0000;stroke-width:0.5px;stroke-linecap:butt;stroke-linejoin:miter;stroke-opacity:1;"/>
<path class="bond-15 atom-9 atom-16" d="M 205.3,169.9 L 204.7,169.6" style="fill:none;fill-rule:evenodd;stroke:#000000;stroke-width:1.0px;stroke-linecap:butt;stroke-linejoin:miter;stroke-opacity:1"/>
<path class="bond-15 atom-9 atom-16" d="M 204.3,173.1 L 203.1,172.6" style="fill:none;fill-rule:evenodd;stroke:#000000;stroke-width:1.0px;stroke-linecap:butt;stroke-linejoin:miter;stroke-opacity:1"/>
<path class="bond-15 atom-9 atom-16" d="M 203.3,176.3 L 201.5,175.6" style="fill:none;fill-rule:evenodd;stroke:#000000;stroke-width:1.0px;stroke-linecap:butt;stroke-linejoin:miter;stroke-opacity:1"/>
<path class="bond-15 atom-9 atom-16" d="M 202.3,179.6 L 199.9,178.6" style="fill:none;fill-rule:evenodd;stroke:#000000;stroke-width:1.0px;stroke-linecap:butt;stroke-linejoin:miter;stroke-opacity:1"/>
<path class="bond-15 atom-9 atom-16" d="M 201.3,182.8 L 198.3,181.6" style="fill:none;fill-rule:evenodd;stroke:#FF0000;stroke-width:1.0px;stroke-linecap:butt;stroke-linejoin:miter;stroke-opacity:1"/>
<path class="bond-15 atom-9 atom-16" d="M 200.3,186.1 L 196.7,184.6" style="fill:none;fill-rule:evenodd;stroke:#FF0000;stroke-width:1.0px;stroke-linecap:butt;stroke-linejoin:miter;stroke-opacity:1"/>
<path class="bond-15 atom-9 atom-16" d="M 199.3,189.3 L 195.1,187.5" style="fill:none;fill-rule:evenodd;stroke:#FF0000;stroke-width:1.0px;stroke-linecap:butt;stroke-linejoin:miter;stroke-opacity:1"/>
<path class="bond-15 atom-9 atom-16" d="M 198.3,192.6 L 193.4,190.5" style="fill:none;fill-rule:evenodd;stroke:#FF0000;stroke-width:1.0px;stroke-linecap:butt;stroke-linejoin:miter;stroke-opacity:1"/>
<path class="bond-16 atom-8 atom-17" d="M 188.2,136.7 L 160.7,161.0 L 160.0,155.0 Z" style="fill:#000000;fill-rule:evenodd;fill-opacity:1;stroke:#000000;stroke-width:0.5px;stroke-linecap:butt;stroke-linejoin:miter;stroke-opacity:1;"/>
<path class="bond-17 atom-17 atom-18" d="M 160.0,155.0 L 162.1,172.1" style="fill:none;fill-rule:evenodd;stroke:#000000;stroke-width:2.0px;stroke-linecap:butt;stroke-linejoin:miter;stroke-opacity:1"/>
<path class="bond-17 atom-17 atom-18" d="M 162.1,172.1 L 163.9,186.4" style="fill:none;fill-rule:evenodd;stroke:#FF0000;stroke-width:2.0px;stroke-linecap:butt;stroke-linejoin:miter;stroke-opacity:1"/>
<path class="bond-18 atom-4 atom-19" d="M 106.2,93.7 L 108.9,80.3 L 111.4,81.0 Z" style="fill:#000000;fill-rule:evenodd;fill-opacity:1;stroke:#000000;stroke-width:0.5px;stroke-linecap:butt;stroke-linejoin:miter;stroke-opacity:1;"/>
<path class="bond-18 atom-4 atom-19" d="M 108.9,80.3 L 116.6,68.4 L 111.6,66.9 Z" style="fill:#FF0000;fill-rule:evenodd;fill-opacity:1;stroke:#FF0000;stroke-width:0.5px;stroke-linecap:butt;stroke-linejoin:miter;stroke-opacity:1;"/>
<path class="bond-18 atom-4 atom-19" d="M 108.9,80.3 L 111.4,81.0 L 116.6,68.4 Z" style="fill:#FF0000;fill-rule:evenodd;fill-opacity:1;stroke:#FF0000;stroke-width:0.5px;stroke-linecap:butt;stroke-linejoin:miter;stroke-opacity:1;"/>
<path class="bond-19 atom-3 atom-20" d="M 69.4,99.3 L 70.0,98.8" style="fill:none;fill-rule:evenodd;stroke:#000000;stroke-width:1.0px;stroke-linecap:butt;stroke-linejoin:miter;stroke-opacity:1"/>
<path class="bond-19 atom-3 atom-20" d="M 66.7,97.0 L 67.8,96.0" style="fill:none;fill-rule:evenodd;stroke:#000000;stroke-width:1.0px;stroke-linecap:butt;stroke-linejoin:miter;stroke-opacity:1"/>
<path class="bond-19 atom-3 atom-20" d="M 64.0,94.6 L 65.6,93.1" style="fill:none;fill-rule:evenodd;stroke:#000000;stroke-width:1.0px;stroke-linecap:butt;stroke-linejoin:miter;stroke-opacity:1"/>
<path class="bond-19 atom-3 atom-20" d="M 61.3,92.3 L 63.5,90.2" style="fill:none;fill-rule:evenodd;stroke:#FF0000;stroke-width:1.0px;stroke-linecap:butt;stroke-linejoin:miter;stroke-opacity:1"/>
<path class="bond-19 atom-3 atom-20" d="M 58.6,89.9 L 61.3,87.4" style="fill:none;fill-rule:evenodd;stroke:#FF0000;stroke-width:1.0px;stroke-linecap:butt;stroke-linejoin:miter;stroke-opacity:1"/>
<path class="bond-19 atom-3 atom-20" d="M 55.8,87.6 L 59.1,84.5" style="fill:none;fill-rule:evenodd;stroke:#FF0000;stroke-width:1.0px;stroke-linecap:butt;stroke-linejoin:miter;stroke-opacity:1"/>
<path class="bond-19 atom-3 atom-20" d="M 53.1,85.3 L 57.0,81.7" style="fill:none;fill-rule:evenodd;stroke:#FF0000;stroke-width:1.0px;stroke-linecap:butt;stroke-linejoin:miter;stroke-opacity:1"/>
<path class="bond-20 atom-2 atom-21" d="M 62.0,135.2 L 48.7,139.6 L 48.1,137.1 Z" style="fill:#000000;fill-rule:evenodd;fill-opacity:1;stroke:#000000;stroke-width:0.5px;stroke-linecap:butt;stroke-linejoin:miter;stroke-opacity:1;"/>
<path class="bond-20 atom-2 atom-21" d="M 48.7,139.6 L 34.2,139.0 L 35.4,144.1 Z" style="fill:#FF0000;fill-rule:evenodd;fill-opacity:1;stroke:#FF0000;stroke-width:0.5px;stroke-linecap:butt;stroke-linejoin:miter;stroke-opacity:1;"/>
<path class="bond-20 atom-2 atom-21" d="M 48.7,139.6 L 48.1,137.1 L 34.2,139.0 Z" style="fill:#FF0000;fill-rule:evenodd;fill-opacity:1;stroke:#FF0000;stroke-width:0.5px;stroke-linecap:butt;stroke-linejoin:miter;stroke-opacity:1;"/>
<path class="bond-21 atom-0 atom-22" d="M 75.9,194.2 L 85.0,203.9" style="fill:none;fill-rule:evenodd;stroke:#000000;stroke-width:2.0px;stroke-linecap:butt;stroke-linejoin:miter;stroke-opacity:1"/>
<path class="bond-21 atom-0 atom-22" d="M 85.0,203.9 L 94.2,213.6" style="fill:none;fill-rule:evenodd;stroke:#FF0000;stroke-width:2.0px;stroke-linecap:butt;stroke-linejoin:miter;stroke-opacity:1"/>
<path class="bond-22 atom-6 atom-1" d="M 114.4,154.0 L 100.2,157.3" style="fill:none;fill-rule:evenodd;stroke:#FF0000;stroke-width:2.0px;stroke-linecap:butt;stroke-linejoin:miter;stroke-opacity:1"/>
<path class="bond-22 atom-6 atom-1" d="M 100.2,157.3 L 86.0,160.7" style="fill:none;fill-rule:evenodd;stroke:#000000;stroke-width:2.0px;stroke-linecap:butt;stroke-linejoin:miter;stroke-opacity:1"/>
<path class="bond-23 atom-12 atom-8" d="M 205.6,116.5 L 196.9,126.6" style="fill:none;fill-rule:evenodd;stroke:#FF0000;stroke-width:2.0px;stroke-linecap:butt;stroke-linejoin:miter;stroke-opacity:1"/>
<path class="bond-23 atom-12 atom-8" d="M 196.9,126.6 L 188.2,136.7" style="fill:none;fill-rule:evenodd;stroke:#000000;stroke-width:2.0px;stroke-linecap:butt;stroke-linejoin:miter;stroke-opacity:1"/>
<path d="M 84.8,159.4 L 86.0,160.7 L 86.7,160.5" style="fill:none;stroke:#000000;stroke-width:2.0px;stroke-linecap:butt;stroke-linejoin:miter;stroke-opacity:1;"/>
<path d="M 63.2,136.4 L 62.0,135.2 L 62.5,133.5" style="fill:none;stroke:#000000;stroke-width:2.0px;stroke-linecap:butt;stroke-linejoin:miter;stroke-opacity:1;"/>
<path d="M 71.6,103.3 L 72.1,101.7 L 73.9,101.3" style="fill:none;stroke:#000000;stroke-width:2.0px;stroke-linecap:butt;stroke-linejoin:miter;stroke-opacity:1;"/>
<path d="M 104.5,94.1 L 106.2,93.7 L 107.4,94.9" style="fill:none;stroke:#000000;stroke-width:2.0px;stroke-linecap:butt;stroke-linejoin:miter;stroke-opacity:1;"/>
<path d="M 129.0,117.9 L 130.2,119.2 L 130.0,119.9" style="fill:none;stroke:#000000;stroke-width:2.0px;stroke-linecap:butt;stroke-linejoin:miter;stroke-opacity:1;"/>
<path d="M 205.4,165.1 L 206.3,166.6 L 208.0,166.2" style="fill:none;stroke:#000000;stroke-width:2.0px;stroke-linecap:butt;stroke-linejoin:miter;stroke-opacity:1;"/>
<path d="M 238.7,159.0 L 240.4,158.6 L 240.6,156.9" style="fill:none;stroke:#000000;stroke-width:2.0px;stroke-linecap:butt;stroke-linejoin:miter;stroke-opacity:1;"/>
<path d="M 243.2,125.5 L 243.3,123.7 L 242.7,123.5" style="fill:none;stroke:#000000;stroke-width:2.0px;stroke-linecap:butt;stroke-linejoin:miter;stroke-opacity:1;"/>
<path class="atom-6" d="M 115.5 152.7 Q 115.5 150.3, 116.7 149.0 Q 117.9 147.7, 120.1 147.7 Q 122.3 147.7, 123.4 149.0 Q 124.6 150.3, 124.6 152.7 Q 124.6 155.1, 123.4 156.5 Q 122.2 157.8, 120.1 157.8 Q 117.9 157.8, 116.7 156.5 Q 115.5 155.1, 115.5 152.7 M 120.1 156.7 Q 121.6 156.7, 122.4 155.7 Q 123.2 154.7, 123.2 152.7 Q 123.2 150.8, 122.4 149.8 Q 121.6 148.8, 120.1 148.8 Q 118.6 148.8, 117.7 149.8 Q 116.9 150.7, 116.9 152.7 Q 116.9 154.7, 117.7 155.7 Q 118.6 156.7, 120.1 156.7 " fill="#FF0000"/>
<path class="atom-7" d="M 159.7 111.2 Q 159.7 108.8, 160.9 107.5 Q 162.0 106.2, 164.2 106.2 Q 166.4 106.2, 167.6 107.5 Q 168.8 108.8, 168.8 111.2 Q 168.8 113.6, 167.6 115.0 Q 166.4 116.3, 164.2 116.3 Q 162.1 116.3, 160.9 115.0 Q 159.7 113.6, 159.7 111.2 M 164.2 115.2 Q 165.8 115.2, 166.6 114.2 Q 167.4 113.2, 167.4 111.2 Q 167.4 109.3, 166.6 108.3 Q 165.8 107.3, 164.2 107.3 Q 162.7 107.3, 161.9 108.3 Q 161.1 109.2, 161.1 111.2 Q 161.1 113.2, 161.9 114.2 Q 162.7 115.2, 164.2 115.2 " fill="#FF0000"/>
<path class="atom-12" d="M 206.5 110.2 Q 206.5 107.8, 207.7 106.5 Q 208.9 105.2, 211.1 105.2 Q 213.3 105.2, 214.4 106.5 Q 215.6 107.8, 215.6 110.2 Q 215.6 112.6, 214.4 114.0 Q 213.2 115.3, 211.1 115.3 Q 208.9 115.3, 207.7 114.0 Q 206.5 112.6, 206.5 110.2 M 211.1 114.2 Q 212.6 114.2, 213.4 113.2 Q 214.2 112.2, 214.2 110.2 Q 214.2 108.3, 213.4 107.3 Q 212.6 106.3, 211.1 106.3 Q 209.6 106.3, 208.7 107.3 Q 207.9 108.3, 207.9 110.2 Q 207.9 112.2, 208.7 113.2 Q 209.6 114.2, 211.1 114.2 " fill="#FF0000"/>
<path class="atom-14" d="M 268.0 70.6 Q 268.0 68.3, 269.1 66.9 Q 270.3 65.6, 272.5 65.6 Q 274.7 65.6, 275.9 66.9 Q 277.1 68.3, 277.1 70.6 Q 277.1 73.1, 275.9 74.4 Q 274.7 75.8, 272.5 75.8 Q 270.3 75.8, 269.1 74.4 Q 268.0 73.1, 268.0 70.6 M 272.5 74.7 Q 274.0 74.7, 274.8 73.7 Q 275.7 72.6, 275.7 70.6 Q 275.7 68.7, 274.8 67.7 Q 274.0 66.7, 272.5 66.7 Q 271.0 66.7, 270.2 67.7 Q 269.4 68.7, 269.4 70.6 Q 269.4 72.6, 270.2 73.7 Q 271.0 74.7, 272.5 74.7 " fill="#FF0000"/>
<path class="atom-14" d="M 278.6 65.7 L 280.0 65.7 L 280.0 69.9 L 285.0 69.9 L 285.0 65.7 L 286.4 65.7 L 286.4 75.6 L 285.0 75.6 L 285.0 71.0 L 280.0 71.0 L 280.0 75.6 L 278.6 75.6 L 278.6 65.7 " fill="#FF0000"/>
<path class="atom-15" d="M 262.4 181.5 Q 262.4 179.1, 263.5 177.8 Q 264.7 176.5, 266.9 176.5 Q 269.1 176.5, 270.3 177.8 Q 271.5 179.1, 271.5 181.5 Q 271.5 183.9, 270.3 185.3 Q 269.1 186.6, 266.9 186.6 Q 264.7 186.6, 263.5 185.3 Q 262.4 183.9, 262.4 181.5 M 266.9 185.5 Q 268.4 185.5, 269.2 184.5 Q 270.1 183.5, 270.1 181.5 Q 270.1 179.6, 269.2 178.6 Q 268.4 177.6, 266.9 177.6 Q 265.4 177.6, 264.6 178.6 Q 263.8 179.5, 263.8 181.5 Q 263.8 183.5, 264.6 184.5 Q 265.4 185.5, 266.9 185.5 " fill="#FF0000"/>
<path class="atom-15" d="M 273.0 176.6 L 274.3 176.6 L 274.3 180.8 L 279.4 180.8 L 279.4 176.6 L 280.8 176.6 L 280.8 186.5 L 279.4 186.5 L 279.4 181.9 L 274.3 181.9 L 274.3 186.5 L 273.0 186.5 L 273.0 176.6 " fill="#FF0000"/>
<path class="atom-16" d="M 178.5 194.0 L 179.8 194.0 L 179.8 198.2 L 184.9 198.2 L 184.9 194.0 L 186.2 194.0 L 186.2 203.9 L 184.9 203.9 L 184.9 199.3 L 179.8 199.3 L 179.8 203.9 L 178.5 203.9 L 178.5 194.0 " fill="#FF0000"/>
<path class="atom-16" d="M 188.2 198.9 Q 188.2 196.5, 189.4 195.2 Q 190.6 193.9, 192.8 193.9 Q 195.0 193.9, 196.2 195.2 Q 197.3 196.5, 197.3 198.9 Q 197.3 201.3, 196.1 202.7 Q 195.0 204.0, 192.8 204.0 Q 190.6 204.0, 189.4 202.7 Q 188.2 201.3, 188.2 198.9 M 192.8 202.9 Q 194.3 202.9, 195.1 201.9 Q 195.9 200.9, 195.9 198.9 Q 195.9 197.0, 195.1 196.0 Q 194.3 195.0, 192.8 195.0 Q 191.3 195.0, 190.4 196.0 Q 189.6 196.9, 189.6 198.9 Q 189.6 200.9, 190.4 201.9 Q 191.3 202.9, 192.8 202.9 " fill="#FF0000"/>
<path class="atom-18" d="M 160.2 192.6 Q 160.2 190.2, 161.4 188.9 Q 162.5 187.5, 164.7 187.5 Q 166.9 187.5, 168.1 188.9 Q 169.3 190.2, 169.3 192.6 Q 169.3 195.0, 168.1 196.4 Q 166.9 197.7, 164.7 197.7 Q 162.5 197.7, 161.4 196.4 Q 160.2 195.0, 160.2 192.6 M 164.7 196.6 Q 166.2 196.6, 167.1 195.6 Q 167.9 194.6, 167.9 192.6 Q 167.9 190.6, 167.1 189.7 Q 166.2 188.7, 164.7 188.7 Q 163.2 188.7, 162.4 189.6 Q 161.6 190.6, 161.6 192.6 Q 161.6 194.6, 162.4 195.6 Q 163.2 196.6, 164.7 196.6 " fill="#FF0000"/>
<path class="atom-18" d="M 170.8 187.7 L 172.2 187.7 L 172.2 191.9 L 177.2 191.9 L 177.2 187.7 L 178.6 187.7 L 178.6 197.6 L 177.2 197.6 L 177.2 193.0 L 172.2 193.0 L 172.2 197.6 L 170.8 197.6 L 170.8 187.7 " fill="#FF0000"/>
<path class="atom-19" d="M 111.8 60.2 Q 111.8 57.8, 112.9 56.5 Q 114.1 55.2, 116.3 55.2 Q 118.5 55.2, 119.7 56.5 Q 120.9 57.8, 120.9 60.2 Q 120.9 62.6, 119.7 64.0 Q 118.5 65.3, 116.3 65.3 Q 114.1 65.3, 112.9 64.0 Q 111.8 62.6, 111.8 60.2 M 116.3 64.2 Q 117.8 64.2, 118.6 63.2 Q 119.5 62.2, 119.5 60.2 Q 119.5 58.2, 118.6 57.3 Q 117.8 56.3, 116.3 56.3 Q 114.8 56.3, 114.0 57.3 Q 113.2 58.2, 113.2 60.2 Q 113.2 62.2, 114.0 63.2 Q 114.8 64.2, 116.3 64.2 " fill="#FF0000"/>
<path class="atom-19" d="M 122.4 55.3 L 123.8 55.3 L 123.8 59.5 L 128.8 59.5 L 128.8 55.3 L 130.2 55.3 L 130.2 65.2 L 128.8 65.2 L 128.8 60.6 L 123.8 60.6 L 123.8 65.2 L 122.4 65.2 L 122.4 55.3 " fill="#FF0000"/>
<path class="atom-20" d="M 33.9 71.3 L 35.2 71.3 L 35.2 75.5 L 40.3 75.5 L 40.3 71.3 L 41.6 71.3 L 41.6 81.2 L 40.3 81.2 L 40.3 76.6 L 35.2 76.6 L 35.2 81.2 L 33.9 81.2 L 33.9 71.3 " fill="#FF0000"/>
<path class="atom-20" d="M 43.6 76.2 Q 43.6 73.8, 44.8 72.5 Q 46.0 71.2, 48.2 71.2 Q 50.4 71.2, 51.6 72.5 Q 52.7 73.8, 52.7 76.2 Q 52.7 78.6, 51.5 80.0 Q 50.4 81.3, 48.2 81.3 Q 46.0 81.3, 44.8 80.0 Q 43.6 78.6, 43.6 76.2 M 48.2 80.2 Q 49.7 80.2, 50.5 79.2 Q 51.3 78.2, 51.3 76.2 Q 51.3 74.2, 50.5 73.3 Q 49.7 72.3, 48.2 72.3 Q 46.7 72.3, 45.8 73.3 Q 45.0 74.2, 45.0 76.2 Q 45.0 78.2, 45.8 79.2 Q 46.7 80.2, 48.2 80.2 " fill="#FF0000"/>
<path class="atom-21" d="M 13.6 138.3 L 15.0 138.3 L 15.0 142.5 L 20.0 142.5 L 20.0 138.3 L 21.4 138.3 L 21.4 148.2 L 20.0 148.2 L 20.0 143.6 L 15.0 143.6 L 15.0 148.2 L 13.6 148.2 L 13.6 138.3 " fill="#FF0000"/>
<path class="atom-21" d="M 23.4 143.2 Q 23.4 140.8, 24.6 139.5 Q 25.8 138.2, 28.0 138.2 Q 30.2 138.2, 31.3 139.5 Q 32.5 140.8, 32.5 143.2 Q 32.5 145.6, 31.3 147.0 Q 30.1 148.3, 28.0 148.3 Q 25.8 148.3, 24.6 147.0 Q 23.4 145.6, 23.4 143.2 M 28.0 147.2 Q 29.5 147.2, 30.3 146.2 Q 31.1 145.2, 31.1 143.2 Q 31.1 141.3, 30.3 140.3 Q 29.5 139.3, 28.0 139.3 Q 26.5 139.3, 25.6 140.3 Q 24.8 141.2, 24.8 143.2 Q 24.8 145.2, 25.6 146.2 Q 26.5 147.2, 28.0 147.2 " fill="#FF0000"/>
<path class="atom-22" d="M 95.3 219.7 Q 95.3 217.3, 96.5 216.0 Q 97.7 214.7, 99.9 214.7 Q 102.1 214.7, 103.2 216.0 Q 104.4 217.3, 104.4 219.7 Q 104.4 222.1, 103.2 223.5 Q 102.0 224.8, 99.9 224.8 Q 97.7 224.8, 96.5 223.5 Q 95.3 222.1, 95.3 219.7 M 99.9 223.7 Q 101.4 223.7, 102.2 222.7 Q 103.0 221.7, 103.0 219.7 Q 103.0 217.8, 102.2 216.8 Q 101.4 215.8, 99.9 215.8 Q 98.3 215.8, 97.5 216.8 Q 96.7 217.7, 96.7 219.7 Q 96.7 221.7, 97.5 222.7 Q 98.3 223.7, 99.9 223.7 " fill="#FF0000"/>
<path class="atom-22" d="M 105.9 214.8 L 107.3 214.8 L 107.3 219.0 L 112.4 219.0 L 112.4 214.8 L 113.7 214.8 L 113.7 224.7 L 112.4 224.7 L 112.4 220.1 L 107.3 220.1 L 107.3 224.7 L 105.9 224.7 L 105.9 214.8 " fill="#FF0000"/>
<path class="note" d="M 87.6 182.0 Q 86.7 182.0, 86.3 181.3 Q 85.8 180.7, 85.8 179.5 Q 85.8 178.3, 86.3 177.6 Q 86.7 176.9, 87.6 176.9 Q 88.6 176.9, 89.0 177.6 Q 89.5 178.3, 89.5 179.5 Q 89.5 180.7, 89.0 181.3 Q 88.6 182.0, 87.6 182.0 M 87.6 181.4 Q 88.2 181.4, 88.5 181.0 Q 88.8 180.4, 88.8 179.5 Q 88.8 178.5, 88.5 178.0 Q 88.2 177.5, 87.6 177.5 Q 87.1 177.5, 86.8 178.0 Q 86.5 178.5, 86.5 179.5 Q 86.5 180.4, 86.8 181.0 Q 87.1 181.4, 87.6 181.4 " fill="#000000"/>
<path class="note" d="M 67.7 154.6 L 68.8 154.6 L 68.8 150.9 L 67.6 151.3 L 67.4 150.9 L 68.9 150.2 L 69.4 150.3 L 69.4 154.6 L 70.4 154.6 L 70.4 155.2 L 67.7 155.2 L 67.7 154.6 " fill="#000000"/>
<path class="note" d="M 62.1 115.9 Q 62.3 115.4, 62.7 115.2 Q 63.1 114.9, 63.7 114.9 Q 64.5 114.9, 64.9 115.3 Q 65.3 115.7, 65.3 116.4 Q 65.3 117.2, 64.8 117.9 Q 64.2 118.5, 63.1 119.4 L 65.4 119.4 L 65.4 119.9 L 62.1 119.9 L 62.1 119.4 Q 63.0 118.8, 63.5 118.3 Q 64.1 117.8, 64.4 117.4 Q 64.6 116.9, 64.6 116.5 Q 64.6 116.0, 64.4 115.7 Q 64.2 115.5, 63.7 115.5 Q 63.3 115.5, 63.1 115.6 Q 62.8 115.8, 62.6 116.1 L 62.1 115.9 " fill="#000000"/>
<path class="note" d="M 88.3 90.7 Q 88.8 90.9, 89.0 91.2 Q 89.2 91.5, 89.2 92.0 Q 89.2 92.4, 89.0 92.8 Q 88.8 93.1, 88.4 93.3 Q 88.1 93.4, 87.6 93.4 Q 87.0 93.4, 86.6 93.2 Q 86.2 93.1, 85.9 92.7 L 86.3 92.3 Q 86.6 92.6, 86.9 92.7 Q 87.1 92.9, 87.6 92.9 Q 88.0 92.9, 88.3 92.6 Q 88.5 92.4, 88.5 92.0 Q 88.5 91.5, 88.3 91.3 Q 88.0 91.0, 87.4 91.0 L 87.0 91.0 L 87.0 90.5 L 87.3 90.5 Q 87.9 90.5, 88.2 90.3 Q 88.4 90.1, 88.4 89.6 Q 88.4 89.3, 88.2 89.1 Q 88.0 88.9, 87.6 88.9 Q 87.1 88.9, 86.9 89.1 Q 86.6 89.2, 86.4 89.6 L 86.0 89.3 Q 86.1 88.9, 86.6 88.6 Q 87.0 88.3, 87.6 88.3 Q 88.3 88.3, 88.7 88.7 Q 89.1 89.0, 89.1 89.6 Q 89.1 90.0, 88.9 90.3 Q 88.7 90.6, 88.3 90.7 " fill="#000000"/>
<path class="note" d="M 124.6 102.4 L 125.2 102.4 L 125.2 103.0 L 124.6 103.0 L 124.6 104.1 L 124.0 104.1 L 124.0 103.0 L 121.4 103.0 L 121.4 102.5 L 123.6 99.2 L 124.6 99.2 L 124.6 102.4 M 122.2 102.4 L 124.0 102.4 L 124.0 99.6 L 122.2 102.4 " fill="#000000"/>
<path class="note" d="M 128.6 136.3 Q 129.0 136.3, 129.4 136.5 Q 129.7 136.7, 129.9 137.0 Q 130.1 137.4, 130.1 137.8 Q 130.1 138.4, 129.9 138.7 Q 129.7 139.1, 129.2 139.3 Q 128.8 139.5, 128.4 139.5 Q 127.9 139.5, 127.5 139.3 Q 127.1 139.1, 126.8 138.8 L 127.2 138.4 Q 127.4 138.6, 127.8 138.8 Q 128.1 138.9, 128.4 138.9 Q 128.8 138.9, 129.1 138.6 Q 129.4 138.4, 129.4 137.9 Q 129.4 137.3, 129.1 137.1 Q 128.8 136.8, 128.4 136.8 Q 127.9 136.8, 127.4 137.0 L 127.1 136.8 L 127.3 134.5 L 129.8 134.5 L 129.8 135.0 L 127.9 135.0 L 127.7 136.5 Q 128.2 136.3, 128.6 136.3 " fill="#000000"/>
<path class="note" d="M 145.8 107.8 Q 146.3 107.8, 146.6 108.0 Q 147.0 108.1, 147.1 108.5 Q 147.3 108.8, 147.3 109.3 Q 147.3 109.8, 147.1 110.1 Q 146.9 110.5, 146.5 110.7 Q 146.1 110.9, 145.7 110.9 Q 144.8 110.9, 144.3 110.3 Q 143.9 109.7, 143.9 108.5 Q 143.9 107.2, 144.4 106.5 Q 145.0 105.9, 146.0 105.9 Q 146.4 105.9, 146.6 105.9 Q 146.9 106.0, 147.1 106.1 L 146.9 106.6 Q 146.5 106.4, 146.1 106.4 Q 145.4 106.4, 145.0 106.9 Q 144.6 107.3, 144.6 108.2 Q 144.9 108.0, 145.2 107.9 Q 145.5 107.8, 145.8 107.8 M 145.7 110.3 Q 145.9 110.3, 146.2 110.2 Q 146.4 110.1, 146.5 109.8 Q 146.6 109.6, 146.6 109.3 Q 146.6 108.8, 146.4 108.6 Q 146.1 108.3, 145.7 108.3 Q 145.4 108.3, 145.1 108.5 Q 144.8 108.6, 144.6 108.8 Q 144.6 109.6, 144.9 110.0 Q 145.1 110.3, 145.7 110.3 " fill="#000000"/>
<path class="note" d="M 182.3 117.2 L 179.7 117.2 L 179.7 116.7 L 183.0 116.7 L 183.0 117.2 L 181.0 121.6 L 180.3 121.6 L 182.3 117.2 " fill="#000000"/>
<path class="note" d="M 204.0 147.9 Q 204.5 148.1, 204.7 148.4 Q 205.0 148.7, 205.0 149.2 Q 205.0 149.6, 204.8 149.9 Q 204.6 150.2, 204.2 150.4 Q 203.8 150.6, 203.3 150.6 Q 202.5 150.6, 202.0 150.2 Q 201.5 149.8, 201.5 149.2 Q 201.5 148.8, 201.7 148.5 Q 201.9 148.1, 202.4 147.9 Q 202.0 147.7, 201.9 147.5 Q 201.7 147.2, 201.7 146.8 Q 201.7 146.2, 202.1 145.9 Q 202.5 145.5, 203.3 145.5 Q 204.0 145.5, 204.4 145.9 Q 204.8 146.2, 204.8 146.8 Q 204.8 147.1, 204.6 147.4 Q 204.4 147.7, 204.0 147.9 M 203.3 146.0 Q 202.8 146.0, 202.6 146.2 Q 202.4 146.4, 202.4 146.8 Q 202.4 147.0, 202.5 147.2 Q 202.7 147.4, 202.9 147.5 Q 203.1 147.6, 203.6 147.7 Q 203.9 147.5, 204.0 147.3 Q 204.1 147.1, 204.1 146.8 Q 204.1 146.4, 203.9 146.2 Q 203.7 146.0, 203.3 146.0 M 203.3 150.1 Q 203.7 150.1, 204.0 149.8 Q 204.3 149.6, 204.3 149.2 Q 204.3 148.9, 204.2 148.7 Q 204.0 148.6, 203.8 148.5 Q 203.6 148.4, 203.2 148.2 L 202.9 148.1 Q 202.5 148.3, 202.4 148.6 Q 202.2 148.8, 202.2 149.2 Q 202.2 149.6, 202.5 149.8 Q 202.8 150.1, 203.3 150.1 " fill="#000000"/>
<path class="note" d="M 221.7 153.3 Q 222.6 153.3, 223.0 153.9 Q 223.5 154.5, 223.5 155.7 Q 223.5 157.0, 222.9 157.7 Q 222.4 158.4, 221.3 158.4 Q 221.0 158.4, 220.8 158.3 Q 220.5 158.2, 220.3 158.1 L 220.5 157.6 Q 220.9 157.8, 221.3 157.8 Q 222.0 157.8, 222.4 157.3 Q 222.7 156.9, 222.8 156.0 Q 222.5 156.2, 222.2 156.3 Q 221.9 156.4, 221.6 156.4 Q 221.1 156.4, 220.8 156.2 Q 220.4 156.1, 220.2 155.7 Q 220.1 155.4, 220.1 154.9 Q 220.1 154.5, 220.3 154.1 Q 220.5 153.7, 220.9 153.5 Q 221.2 153.3, 221.7 153.3 M 220.8 154.9 Q 220.8 155.4, 221.0 155.6 Q 221.2 155.9, 221.7 155.9 Q 222.0 155.9, 222.3 155.8 Q 222.6 155.6, 222.8 155.4 Q 222.8 154.6, 222.5 154.2 Q 222.2 153.9, 221.7 153.9 Q 221.4 153.9, 221.2 154.0 Q 221.0 154.1, 220.9 154.4 Q 220.8 154.6, 220.8 154.9 " fill="#000000"/>
<path class="note" d="M 231.5 142.5 L 232.6 142.5 L 232.6 138.8 L 231.4 139.2 L 231.3 138.8 L 232.8 138.1 L 233.3 138.2 L 233.3 142.5 L 234.3 142.5 L 234.3 143.1 L 231.5 143.1 L 231.5 142.5 " fill="#000000"/>
<path class="note" d="M 236.7 143.1 Q 235.8 143.1, 235.3 142.5 Q 234.9 141.8, 234.9 140.6 Q 234.9 139.4, 235.3 138.7 Q 235.8 138.1, 236.7 138.1 Q 237.6 138.1, 238.1 138.7 Q 238.5 139.4, 238.5 140.6 Q 238.5 141.8, 238.1 142.5 Q 237.6 143.1, 236.7 143.1 M 236.7 142.6 Q 237.2 142.6, 237.5 142.1 Q 237.8 141.6, 237.8 140.6 Q 237.8 139.6, 237.5 139.1 Q 237.2 138.6, 236.7 138.6 Q 236.2 138.6, 235.9 139.1 Q 235.6 139.6, 235.6 140.6 Q 235.6 141.6, 235.9 142.1 Q 236.2 142.6, 236.7 142.6 " fill="#000000"/>
<path class="note" d="M 221.5 125.3 L 222.6 125.3 L 222.6 121.6 L 221.4 122.0 L 221.2 121.6 L 222.7 120.9 L 223.2 121.0 L 223.2 125.3 L 224.2 125.3 L 224.2 125.9 L 221.5 125.9 L 221.5 125.3 " fill="#000000"/>
<path class="note" d="M 225.1 125.3 L 226.1 125.3 L 226.1 121.6 L 224.9 122.0 L 224.8 121.6 L 226.3 120.9 L 226.8 121.0 L 226.8 125.3 L 227.8 125.3 L 227.8 125.9 L 225.1 125.9 L 225.1 125.3 " fill="#000000"/>
<path class="note" d="M 251.5 110.6 L 252.6 110.6 L 252.6 106.9 L 251.4 107.3 L 251.2 106.9 L 252.7 106.2 L 253.2 106.3 L 253.2 110.6 L 254.2 110.6 L 254.2 111.2 L 251.5 111.2 L 251.5 110.6 " fill="#000000"/>
<path class="note" d="M 254.8 107.2 Q 255.0 106.7, 255.4 106.4 Q 255.9 106.2, 256.5 106.2 Q 257.2 106.2, 257.6 106.6 Q 258.1 107.0, 258.1 107.7 Q 258.1 108.4, 257.5 109.1 Q 257.0 109.8, 255.8 110.6 L 258.1 110.6 L 258.1 111.2 L 254.8 111.2 L 254.8 110.7 Q 255.7 110.1, 256.3 109.6 Q 256.8 109.1, 257.1 108.6 Q 257.4 108.2, 257.4 107.7 Q 257.4 107.3, 257.1 107.0 Q 256.9 106.7, 256.5 106.7 Q 256.1 106.7, 255.8 106.9 Q 255.5 107.1, 255.3 107.4 L 254.8 107.2 " fill="#000000"/>
<path class="note" d="M 262.7 90.2 L 263.8 90.2 L 263.8 86.5 L 262.6 86.9 L 262.4 86.5 L 263.9 85.8 L 264.4 85.9 L 264.4 90.2 L 265.4 90.2 L 265.4 90.8 L 262.7 90.8 L 262.7 90.2 " fill="#000000"/>
<path class="note" d="M 268.4 88.2 Q 268.9 88.3, 269.1 88.6 Q 269.4 88.9, 269.4 89.4 Q 269.4 89.8, 269.1 90.2 Q 268.9 90.5, 268.6 90.7 Q 268.2 90.8, 267.7 90.8 Q 267.1 90.8, 266.7 90.7 Q 266.3 90.5, 266.0 90.1 L 266.4 89.7 Q 266.7 90.0, 267.0 90.1 Q 267.2 90.3, 267.7 90.3 Q 268.1 90.3, 268.4 90.0 Q 268.7 89.8, 268.7 89.4 Q 268.7 88.9, 268.4 88.7 Q 268.1 88.4, 267.5 88.4 L 267.1 88.4 L 267.1 87.9 L 267.4 87.9 Q 268.0 87.9, 268.3 87.7 Q 268.6 87.5, 268.6 87.0 Q 268.6 86.7, 268.3 86.5 Q 268.1 86.3, 267.7 86.3 Q 267.3 86.3, 267.0 86.5 Q 266.7 86.6, 266.5 87.0 L 266.1 86.7 Q 266.2 86.3, 266.7 86.0 Q 267.1 85.8, 267.7 85.8 Q 268.4 85.8, 268.8 86.1 Q 269.3 86.4, 269.3 87.0 Q 269.3 87.4, 269.0 87.7 Q 268.8 88.0, 268.4 88.2 " fill="#000000"/>
<path class="note" d="M 257.1 164.0 L 258.2 164.0 L 258.2 160.3 L 257.0 160.7 L 256.8 160.3 L 258.3 159.6 L 258.8 159.7 L 258.8 164.0 L 259.8 164.0 L 259.8 164.6 L 257.1 164.6 L 257.1 164.0 " fill="#000000"/>
<path class="note" d="M 263.6 162.9 L 264.2 162.9 L 264.2 163.4 L 263.6 163.4 L 263.6 164.6 L 263.0 164.6 L 263.0 163.4 L 260.4 163.4 L 260.4 163.0 L 262.6 159.6 L 263.6 159.6 L 263.6 162.9 M 261.2 162.9 L 263.0 162.9 L 263.0 160.1 L 261.2 162.9 " fill="#000000"/>
<path class="note" d="M 202.8 187.4 L 203.9 187.4 L 203.9 183.7 L 202.7 184.0 L 202.5 183.6 L 204.1 183.0 L 204.6 183.0 L 204.6 187.4 L 205.5 187.4 L 205.5 187.9 L 202.8 187.9 L 202.8 187.4 " fill="#000000"/>
<path class="note" d="M 207.9 184.8 Q 208.4 184.8, 208.7 185.0 Q 209.1 185.2, 209.3 185.6 Q 209.5 185.9, 209.5 186.4 Q 209.5 186.9, 209.2 187.3 Q 209.0 187.6, 208.6 187.8 Q 208.2 188.0, 207.7 188.0 Q 207.3 188.0, 206.8 187.8 Q 206.4 187.7, 206.1 187.3 L 206.6 186.9 Q 206.8 187.2, 207.1 187.3 Q 207.4 187.4, 207.7 187.4 Q 208.2 187.4, 208.5 187.2 Q 208.8 186.9, 208.8 186.4 Q 208.8 185.9, 208.5 185.6 Q 208.2 185.4, 207.7 185.4 Q 207.3 185.4, 206.8 185.6 L 206.4 185.4 L 206.6 183.0 L 209.2 183.0 L 209.1 183.5 L 207.2 183.5 L 207.1 185.0 Q 207.5 184.8, 207.9 184.8 " fill="#000000"/>
<path class="note" d="M 175.3 154.8 L 176.3 154.8 L 176.3 151.1 L 175.1 151.4 L 175.0 151.0 L 176.5 150.4 L 177.0 150.4 L 177.0 154.8 L 178.0 154.8 L 178.0 155.3 L 175.3 155.3 L 175.3 154.8 " fill="#000000"/>
<path class="note" d="M 180.5 152.2 Q 181.0 152.2, 181.3 152.4 Q 181.6 152.6, 181.8 153.0 Q 182.0 153.3, 182.0 153.7 Q 182.0 154.2, 181.8 154.6 Q 181.6 155.0, 181.2 155.2 Q 180.8 155.4, 180.4 155.4 Q 179.5 155.4, 179.0 154.8 Q 178.6 154.2, 178.6 153.0 Q 178.6 151.7, 179.1 151.0 Q 179.7 150.3, 180.7 150.3 Q 181.1 150.3, 181.3 150.4 Q 181.6 150.5, 181.8 150.6 L 181.6 151.1 Q 181.2 150.9, 180.8 150.9 Q 180.1 150.9, 179.7 151.3 Q 179.3 151.8, 179.3 152.7 Q 179.5 152.5, 179.9 152.4 Q 180.2 152.2, 180.5 152.2 M 180.4 154.8 Q 180.6 154.8, 180.8 154.7 Q 181.1 154.5, 181.2 154.3 Q 181.3 154.1, 181.3 153.8 Q 181.3 153.3, 181.1 153.1 Q 180.8 152.8, 180.4 152.8 Q 180.1 152.8, 179.8 152.9 Q 179.5 153.1, 179.3 153.3 Q 179.3 154.1, 179.6 154.5 Q 179.8 154.8, 180.4 154.8 " fill="#000000"/>
<path class="note" d="M 166.3 176.3 L 167.4 176.3 L 167.4 172.6 L 166.2 172.9 L 166.0 172.5 L 167.6 171.8 L 168.0 171.9 L 168.0 176.3 L 169.0 176.3 L 169.0 176.8 L 166.3 176.8 L 166.3 176.3 " fill="#000000"/>
<path class="note" d="M 172.2 172.4 L 169.6 172.4 L 169.6 171.9 L 172.9 171.9 L 172.9 172.4 L 170.9 176.8 L 170.2 176.8 L 172.2 172.4 " fill="#000000"/>
<path class="note" d="M 101.3 76.8 L 102.4 76.8 L 102.4 73.1 L 101.2 73.5 L 101.0 73.1 L 102.5 72.4 L 103.0 72.5 L 103.0 76.8 L 104.0 76.8 L 104.0 77.4 L 101.3 77.4 L 101.3 76.8 " fill="#000000"/>
<path class="note" d="M 107.1 74.8 Q 107.6 75.0, 107.9 75.3 Q 108.1 75.6, 108.1 76.0 Q 108.1 76.5, 107.9 76.8 Q 107.7 77.1, 107.3 77.3 Q 106.9 77.5, 106.4 77.5 Q 105.6 77.5, 105.1 77.1 Q 104.6 76.7, 104.6 76.0 Q 104.6 75.6, 104.8 75.3 Q 105.0 75.0, 105.5 74.8 Q 105.2 74.6, 105.0 74.3 Q 104.8 74.1, 104.8 73.7 Q 104.8 73.1, 105.2 72.7 Q 105.7 72.4, 106.4 72.4 Q 107.1 72.4, 107.5 72.7 Q 107.9 73.1, 107.9 73.7 Q 107.9 74.0, 107.7 74.3 Q 107.5 74.6, 107.1 74.8 M 106.4 72.9 Q 106.0 72.9, 105.7 73.1 Q 105.5 73.3, 105.5 73.7 Q 105.5 73.9, 105.7 74.1 Q 105.8 74.3, 106.0 74.4 Q 106.3 74.5, 106.7 74.6 Q 107.0 74.4, 107.1 74.2 Q 107.2 73.9, 107.2 73.7 Q 107.2 73.3, 107.0 73.1 Q 106.8 72.9, 106.4 72.9 M 106.4 76.9 Q 106.9 76.9, 107.1 76.7 Q 107.4 76.4, 107.4 76.0 Q 107.4 75.8, 107.3 75.6 Q 107.1 75.4, 106.9 75.3 Q 106.7 75.2, 106.3 75.1 L 106.0 75.0 Q 105.6 75.2, 105.5 75.5 Q 105.3 75.7, 105.3 76.0 Q 105.3 76.4, 105.6 76.7 Q 105.9 76.9, 106.4 76.9 " fill="#000000"/>
<path class="note" d="M 49.3 98.0 L 50.4 98.0 L 50.4 94.3 L 49.2 94.7 L 49.0 94.3 L 50.5 93.6 L 51.0 93.7 L 51.0 98.0 L 52.0 98.0 L 52.0 98.6 L 49.3 98.6 L 49.3 98.0 " fill="#000000"/>
<path class="note" d="M 54.3 93.6 Q 55.1 93.6, 55.6 94.2 Q 56.0 94.8, 56.0 96.0 Q 56.0 97.3, 55.5 98.0 Q 54.9 98.7, 53.9 98.7 Q 53.6 98.7, 53.3 98.6 Q 53.0 98.5, 52.8 98.4 L 53.1 97.9 Q 53.4 98.1, 53.9 98.1 Q 54.6 98.1, 54.9 97.7 Q 55.3 97.2, 55.3 96.3 Q 55.1 96.5, 54.8 96.6 Q 54.4 96.7, 54.1 96.7 Q 53.7 96.7, 53.3 96.6 Q 53.0 96.4, 52.8 96.0 Q 52.6 95.7, 52.6 95.2 Q 52.6 94.8, 52.8 94.4 Q 53.0 94.0, 53.4 93.8 Q 53.8 93.6, 54.3 93.6 M 53.3 95.2 Q 53.3 95.7, 53.5 95.9 Q 53.8 96.2, 54.2 96.2 Q 54.5 96.2, 54.8 96.1 Q 55.1 95.9, 55.3 95.7 Q 55.3 94.9, 55.0 94.5 Q 54.8 94.2, 54.3 94.2 Q 54.0 94.2, 53.8 94.3 Q 53.6 94.5, 53.4 94.7 Q 53.3 94.9, 53.3 95.2 " fill="#000000"/>
<path class="note" d="M 42.8 144.5 Q 42.9 144.0, 43.4 143.7 Q 43.8 143.5, 44.4 143.5 Q 45.2 143.5, 45.6 143.9 Q 46.0 144.3, 46.0 145.0 Q 46.0 145.7, 45.4 146.4 Q 44.9 147.1, 43.8 147.9 L 46.1 147.9 L 46.1 148.5 L 42.7 148.5 L 42.7 148.0 Q 43.7 147.4, 44.2 146.9 Q 44.8 146.4, 45.0 145.9 Q 45.3 145.5, 45.3 145.0 Q 45.3 144.6, 45.1 144.3 Q 44.8 144.0, 44.4 144.0 Q 44.0 144.0, 43.7 144.2 Q 43.5 144.4, 43.3 144.7 L 42.8 144.5 " fill="#000000"/>
<path class="note" d="M 48.7 148.5 Q 47.7 148.5, 47.3 147.9 Q 46.8 147.2, 46.8 146.0 Q 46.8 144.8, 47.3 144.1 Q 47.7 143.5, 48.7 143.5 Q 49.6 143.5, 50.0 144.1 Q 50.5 144.8, 50.5 146.0 Q 50.5 147.2, 50.0 147.9 Q 49.6 148.5, 48.7 148.5 M 48.7 148.0 Q 49.2 148.0, 49.5 147.5 Q 49.8 147.0, 49.8 146.0 Q 49.8 145.0, 49.5 144.5 Q 49.2 144.0, 48.7 144.0 Q 48.1 144.0, 47.8 144.5 Q 47.5 145.0, 47.5 146.0 Q 47.5 147.0, 47.8 147.5 Q 48.1 148.0, 48.7 148.0 " fill="#000000"/>
<path class="note" d="M 89.5 200.6 Q 89.6 200.2, 90.1 199.9 Q 90.5 199.6, 91.1 199.6 Q 91.9 199.6, 92.3 200.0 Q 92.7 200.4, 92.7 201.2 Q 92.7 201.9, 92.2 202.6 Q 91.6 203.3, 90.5 204.1 L 92.8 204.1 L 92.8 204.6 L 89.4 204.6 L 89.4 204.2 Q 90.4 203.5, 90.9 203.0 Q 91.5 202.5, 91.7 202.1 Q 92.0 201.7, 92.0 201.2 Q 92.0 200.7, 91.8 200.5 Q 91.5 200.2, 91.1 200.2 Q 90.7 200.2, 90.4 200.4 Q 90.2 200.5, 90.0 200.9 L 89.5 200.6 " fill="#000000"/>
<path class="note" d="M 93.8 204.1 L 94.9 204.1 L 94.9 200.4 L 93.7 200.8 L 93.5 200.3 L 95.0 199.7 L 95.5 199.7 L 95.5 204.1 L 96.5 204.1 L 96.5 204.6 L 93.8 204.6 L 93.8 204.1 " fill="#000000"/>
<path class="note" d="M 100.9 162.0 Q 101.1 161.5, 101.5 161.2 Q 102.0 161.0, 102.6 161.0 Q 103.3 161.0, 103.8 161.4 Q 104.2 161.8, 104.2 162.5 Q 104.2 163.3, 103.6 163.9 Q 103.1 164.6, 102.0 165.4 L 104.3 165.4 L 104.3 166.0 L 100.9 166.0 L 100.9 165.5 Q 101.8 164.9, 102.4 164.4 Q 102.9 163.9, 103.2 163.4 Q 103.5 163.0, 103.5 162.6 Q 103.5 162.1, 103.2 161.8 Q 103.0 161.5, 102.6 161.5 Q 102.2 161.5, 101.9 161.7 Q 101.7 161.9, 101.5 162.2 L 100.9 162.0 " fill="#000000"/>
<path class="note" d="M 105.0 162.0 Q 105.2 161.5, 105.6 161.2 Q 106.1 161.0, 106.7 161.0 Q 107.4 161.0, 107.8 161.4 Q 108.3 161.8, 108.3 162.5 Q 108.3 163.3, 107.7 163.9 Q 107.2 164.6, 106.1 165.4 L 108.4 165.4 L 108.4 166.0 L 105.0 166.0 L 105.0 165.5 Q 105.9 164.9, 106.5 164.4 Q 107.0 163.9, 107.3 163.4 Q 107.6 163.0, 107.6 162.6 Q 107.6 162.1, 107.3 161.8 Q 107.1 161.5, 106.7 161.5 Q 106.3 161.5, 106.0 161.7 Q 105.7 161.9, 105.6 162.2 L 105.0 162.0 " fill="#000000"/>
<path class="note" d="M 201.2 126.5 Q 201.4 126.0, 201.9 125.8 Q 202.3 125.5, 202.9 125.5 Q 203.6 125.5, 204.1 125.9 Q 204.5 126.3, 204.5 127.0 Q 204.5 127.8, 203.9 128.5 Q 203.4 129.1, 202.3 129.9 L 204.6 129.9 L 204.6 130.5 L 201.2 130.5 L 201.2 130.0 Q 202.1 129.4, 202.7 128.9 Q 203.2 128.4, 203.5 128.0 Q 203.8 127.5, 203.8 127.1 Q 203.8 126.6, 203.5 126.3 Q 203.3 126.1, 202.9 126.1 Q 202.5 126.1, 202.2 126.2 Q 202.0 126.4, 201.8 126.7 L 201.2 126.5 " fill="#000000"/>
<path class="note" d="M 207.7 127.9 Q 208.2 128.0, 208.4 128.4 Q 208.6 128.7, 208.6 129.2 Q 208.6 129.6, 208.4 129.9 Q 208.2 130.2, 207.8 130.4 Q 207.5 130.6, 207.0 130.6 Q 206.4 130.6, 206.0 130.4 Q 205.6 130.2, 205.3 129.8 L 205.7 129.4 Q 206.0 129.8, 206.3 129.9 Q 206.5 130.0, 207.0 130.0 Q 207.4 130.0, 207.7 129.8 Q 207.9 129.5, 207.9 129.1 Q 207.9 128.6, 207.7 128.4 Q 207.4 128.2, 206.8 128.2 L 206.4 128.2 L 206.4 127.7 L 206.7 127.7 Q 207.3 127.7, 207.6 127.4 Q 207.8 127.2, 207.8 126.8 Q 207.8 126.4, 207.6 126.3 Q 207.4 126.1, 207.0 126.1 Q 206.5 126.1, 206.3 126.2 Q 206.0 126.4, 205.8 126.7 L 205.4 126.5 Q 205.5 126.0, 206.0 125.8 Q 206.4 125.5, 207.0 125.5 Q 207.7 125.5, 208.1 125.8 Q 208.5 126.2, 208.5 126.8 Q 208.5 127.2, 208.3 127.4 Q 208.1 127.7, 207.7 127.9 " fill="#000000"/>
<path class="bond-0 atom-0 atom-1" d="M 442.3,172.0 L 407.3,173.8" style="fill:none;fill-rule:evenodd;stroke:#000000;stroke-width:2.0px;stroke-linecap:butt;stroke-linejoin:miter;stroke-opacity:1"/>
<path class="bond-1 atom-1 atom-2" d="M 407.3,173.8 L 388.3,144.4" style="fill:none;fill-rule:evenodd;stroke:#000000;stroke-width:2.0px;stroke-linecap:butt;stroke-linejoin:miter;stroke-opacity:1"/>
<path class="bond-2 atom-2 atom-3" d="M 388.3,144.4 L 404.2,113.3" style="fill:none;fill-rule:evenodd;stroke:#000000;stroke-width:2.0px;stroke-linecap:butt;stroke-linejoin:miter;stroke-opacity:1"/>
<path class="bond-3 atom-3 atom-4" d="M 404.2,113.3 L 439.2,111.4" style="fill:none;fill-rule:evenodd;stroke:#000000;stroke-width:2.0px;stroke-linecap:butt;stroke-linejoin:miter;stroke-opacity:1"/>
<path class="bond-4 atom-4 atom-5" d="M 439.2,111.4 L 446.7,123.1" style="fill:none;fill-rule:evenodd;stroke:#000000;stroke-width:2.0px;stroke-linecap:butt;stroke-linejoin:miter;stroke-opacity:1"/>
<path class="bond-4 atom-4 atom-5" d="M 446.7,123.1 L 454.2,134.7" style="fill:none;fill-rule:evenodd;stroke:#0000FF;stroke-width:2.0px;stroke-linecap:butt;stroke-linejoin:miter;stroke-opacity:1"/>
<path class="bond-5 atom-5 atom-6" d="M 469.3,140.2 L 481.2,139.6" style="fill:none;fill-rule:evenodd;stroke:#0000FF;stroke-width:2.0px;stroke-linecap:butt;stroke-linejoin:miter;stroke-opacity:1"/>
<path class="bond-5 atom-5 atom-6" d="M 481.2,139.6 L 493.1,139.0" style="fill:none;fill-rule:evenodd;stroke:#000000;stroke-width:2.0px;stroke-linecap:butt;stroke-linejoin:miter;stroke-opacity:1"/>
<path class="bond-6 atom-6 atom-7" d="M 493.1,139.0 L 512.2,168.4" style="fill:none;fill-rule:evenodd;stroke:#000000;stroke-width:2.0px;stroke-linecap:butt;stroke-linejoin:miter;stroke-opacity:1"/>
<path class="bond-7 atom-7 atom-8" d="M 512.2,168.4 L 526.8,167.6" style="fill:none;fill-rule:evenodd;stroke:#000000;stroke-width:2.0px;stroke-linecap:butt;stroke-linejoin:miter;stroke-opacity:1"/>
<path class="bond-7 atom-7 atom-8" d="M 526.8,167.6 L 541.4,166.9" style="fill:none;fill-rule:evenodd;stroke:#FF0000;stroke-width:2.0px;stroke-linecap:butt;stroke-linejoin:miter;stroke-opacity:1"/>
<path class="bond-8 atom-4 atom-9" d="M 439.2,111.4 L 452.2,80.4 L 458.2,80.1 Z" style="fill:#000000;fill-rule:evenodd;fill-opacity:1;stroke:#000000;stroke-width:0.5px;stroke-linecap:butt;stroke-linejoin:miter;stroke-opacity:1;"/>
<path class="bond-9 atom-9 atom-10" d="M 452.2,80.4 L 469.7,79.5" style="fill:none;fill-rule:evenodd;stroke:#000000;stroke-width:2.0px;stroke-linecap:butt;stroke-linejoin:miter;stroke-opacity:1"/>
<path class="bond-9 atom-9 atom-10" d="M 469.7,79.5 L 484.3,78.8" style="fill:none;fill-rule:evenodd;stroke:#FF0000;stroke-width:2.0px;stroke-linecap:butt;stroke-linejoin:miter;stroke-opacity:1"/>
<path class="bond-10 atom-3 atom-11" d="M 401.9,110.3 L 402.5,109.9" style="fill:none;fill-rule:evenodd;stroke:#000000;stroke-width:1.0px;stroke-linecap:butt;stroke-linejoin:miter;stroke-opacity:1"/>
<path class="bond-10 atom-3 atom-11" d="M 399.5,107.4 L 400.8,106.6" style="fill:none;fill-rule:evenodd;stroke:#000000;stroke-width:1.0px;stroke-linecap:butt;stroke-linejoin:miter;stroke-opacity:1"/>
<path class="bond-10 atom-3 atom-11" d="M 397.2,104.5 L 399.1,103.3" style="fill:none;fill-rule:evenodd;stroke:#000000;stroke-width:1.0px;stroke-linecap:butt;stroke-linejoin:miter;stroke-opacity:1"/>
<path class="bond-10 atom-3 atom-11" d="M 394.8,101.6 L 397.4,99.9" style="fill:none;fill-rule:evenodd;stroke:#FF0000;stroke-width:1.0px;stroke-linecap:butt;stroke-linejoin:miter;stroke-opacity:1"/>
<path class="bond-10 atom-3 atom-11" d="M 392.5,98.6 L 395.7,96.6" style="fill:none;fill-rule:evenodd;stroke:#FF0000;stroke-width:1.0px;stroke-linecap:butt;stroke-linejoin:miter;stroke-opacity:1"/>
<path class="bond-10 atom-3 atom-11" d="M 390.2,95.7 L 393.9,93.3" style="fill:none;fill-rule:evenodd;stroke:#FF0000;stroke-width:1.0px;stroke-linecap:butt;stroke-linejoin:miter;stroke-opacity:1"/>
<path class="bond-10 atom-3 atom-11" d="M 387.8,92.8 L 392.2,89.9" style="fill:none;fill-rule:evenodd;stroke:#FF0000;stroke-width:1.0px;stroke-linecap:butt;stroke-linejoin:miter;stroke-opacity:1"/>
<path class="bond-11 atom-2 atom-12" d="M 388.3,144.4 L 374.3,146.5 L 374.2,143.8 Z" style="fill:#000000;fill-rule:evenodd;fill-opacity:1;stroke:#000000;stroke-width:0.5px;stroke-linecap:butt;stroke-linejoin:miter;stroke-opacity:1;"/>
<path class="bond-11 atom-2 atom-12" d="M 374.3,146.5 L 360.1,143.3 L 360.4,148.5 Z" style="fill:#FF0000;fill-rule:evenodd;fill-opacity:1;stroke:#FF0000;stroke-width:0.5px;stroke-linecap:butt;stroke-linejoin:miter;stroke-opacity:1;"/>
<path class="bond-11 atom-2 atom-12" d="M 374.3,146.5 L 374.2,143.8 L 360.1,143.3 Z" style="fill:#FF0000;fill-rule:evenodd;fill-opacity:1;stroke:#FF0000;stroke-width:0.5px;stroke-linecap:butt;stroke-linejoin:miter;stroke-opacity:1;"/>
<path class="bond-12 atom-1 atom-13" d="M 406.1,176.9 L 405.5,176.6" style="fill:none;fill-rule:evenodd;stroke:#000000;stroke-width:1.0px;stroke-linecap:butt;stroke-linejoin:miter;stroke-opacity:1"/>
<path class="bond-12 atom-1 atom-13" d="M 404.9,180.0 L 403.7,179.4" style="fill:none;fill-rule:evenodd;stroke:#000000;stroke-width:1.0px;stroke-linecap:butt;stroke-linejoin:miter;stroke-opacity:1"/>
<path class="bond-12 atom-1 atom-13" d="M 403.7,183.2 L 401.9,182.3" style="fill:none;fill-rule:evenodd;stroke:#000000;stroke-width:1.0px;stroke-linecap:butt;stroke-linejoin:miter;stroke-opacity:1"/>
<path class="bond-12 atom-1 atom-13" d="M 402.4,186.3 L 400.1,185.1" style="fill:none;fill-rule:evenodd;stroke:#000000;stroke-width:1.0px;stroke-linecap:butt;stroke-linejoin:miter;stroke-opacity:1"/>
<path class="bond-12 atom-1 atom-13" d="M 401.2,189.4 L 398.3,187.9" style="fill:none;fill-rule:evenodd;stroke:#FF0000;stroke-width:1.0px;stroke-linecap:butt;stroke-linejoin:miter;stroke-opacity:1"/>
<path class="bond-12 atom-1 atom-13" d="M 400.0,192.6 L 396.5,190.8" style="fill:none;fill-rule:evenodd;stroke:#FF0000;stroke-width:1.0px;stroke-linecap:butt;stroke-linejoin:miter;stroke-opacity:1"/>
<path class="bond-12 atom-1 atom-13" d="M 398.7,195.7 L 394.6,193.6" style="fill:none;fill-rule:evenodd;stroke:#FF0000;stroke-width:1.0px;stroke-linecap:butt;stroke-linejoin:miter;stroke-opacity:1"/>
<path class="bond-12 atom-1 atom-13" d="M 397.5,198.8 L 392.8,196.4" style="fill:none;fill-rule:evenodd;stroke:#FF0000;stroke-width:1.0px;stroke-linecap:butt;stroke-linejoin:miter;stroke-opacity:1"/>
<path class="bond-13 atom-5 atom-0" d="M 453.2,150.7 L 447.7,161.3" style="fill:none;fill-rule:evenodd;stroke:#0000FF;stroke-width:2.0px;stroke-linecap:butt;stroke-linejoin:miter;stroke-opacity:1"/>
<path class="bond-13 atom-5 atom-0" d="M 447.7,161.3 L 442.3,172.0" style="fill:none;fill-rule:evenodd;stroke:#000000;stroke-width:2.0px;stroke-linecap:butt;stroke-linejoin:miter;stroke-opacity:1"/>
<path d="M 440.5,172.1 L 442.3,172.0 L 442.6,171.4" style="fill:none;stroke:#000000;stroke-width:2.0px;stroke-linecap:butt;stroke-linejoin:miter;stroke-opacity:1;"/>
<path d="M 409.1,173.7 L 407.3,173.8 L 406.4,172.3" style="fill:none;stroke:#000000;stroke-width:2.0px;stroke-linecap:butt;stroke-linejoin:miter;stroke-opacity:1;"/>
<path d="M 389.3,145.9 L 388.3,144.4 L 389.1,142.9" style="fill:none;stroke:#000000;stroke-width:2.0px;stroke-linecap:butt;stroke-linejoin:miter;stroke-opacity:1;"/>
<path d="M 403.4,114.8 L 404.2,113.3 L 406.0,113.2" style="fill:none;stroke:#000000;stroke-width:2.0px;stroke-linecap:butt;stroke-linejoin:miter;stroke-opacity:1;"/>
<path d="M 437.4,111.5 L 439.2,111.4 L 439.5,112.0" style="fill:none;stroke:#000000;stroke-width:2.0px;stroke-linecap:butt;stroke-linejoin:miter;stroke-opacity:1;"/>
<path d="M 492.6,139.0 L 493.1,139.0 L 494.1,140.5" style="fill:none;stroke:#000000;stroke-width:2.0px;stroke-linecap:butt;stroke-linejoin:miter;stroke-opacity:1;"/>
<path d="M 511.2,166.9 L 512.2,168.4 L 512.9,168.3" style="fill:none;stroke:#000000;stroke-width:2.0px;stroke-linecap:butt;stroke-linejoin:miter;stroke-opacity:1;"/>
<path class="atom-5" d="M 456.0 135.9 L 459.3 141.1 Q 459.6 141.6, 460.1 142.6 Q 460.6 143.5, 460.6 143.6 L 460.6 135.9 L 462.0 135.9 L 462.0 145.8 L 460.6 145.8 L 457.1 140.0 Q 456.7 139.4, 456.3 138.6 Q 455.9 137.8, 455.7 137.6 L 455.7 145.8 L 454.4 145.8 L 454.4 135.9 L 456.0 135.9 " fill="#0000FF"/>
<path class="atom-5" d="M 463.8 137.6 L 465.6 137.6 L 465.6 135.8 L 466.3 135.8 L 466.3 137.6 L 468.1 137.6 L 468.1 138.3 L 466.3 138.3 L 466.3 140.2 L 465.6 140.2 L 465.6 138.3 L 463.8 138.3 L 463.8 137.6 " fill="#0000FF"/>
<path class="atom-5" d="M 454.3 146.8 L 455.7 146.8 L 455.7 151.0 L 460.7 151.0 L 460.7 146.8 L 462.1 146.8 L 462.1 156.7 L 460.7 156.7 L 460.7 152.1 L 455.7 152.1 L 455.7 156.7 L 454.3 156.7 L 454.3 146.8 " fill="#0000FF"/>
<path class="atom-8" d="M 542.6 166.6 Q 542.6 164.2, 543.8 162.9 Q 544.9 161.6, 547.1 161.6 Q 549.3 161.6, 550.5 162.9 Q 551.7 164.2, 551.7 166.6 Q 551.7 169.0, 550.5 170.4 Q 549.3 171.7, 547.1 171.7 Q 544.9 171.7, 543.8 170.4 Q 542.6 169.0, 542.6 166.6 M 547.1 170.6 Q 548.6 170.6, 549.5 169.6 Q 550.3 168.6, 550.3 166.6 Q 550.3 164.6, 549.5 163.7 Q 548.6 162.7, 547.1 162.7 Q 545.6 162.7, 544.8 163.6 Q 544.0 164.6, 544.0 166.6 Q 544.0 168.6, 544.8 169.6 Q 545.6 170.6, 547.1 170.6 " fill="#FF0000"/>
<path class="atom-8" d="M 553.2 161.7 L 554.6 161.7 L 554.6 165.9 L 559.6 165.9 L 559.6 161.7 L 561.0 161.7 L 561.0 171.6 L 559.6 171.6 L 559.6 167.0 L 554.6 167.0 L 554.6 171.6 L 553.2 171.6 L 553.2 161.7 " fill="#FF0000"/>
<path class="atom-10" d="M 485.5 78.5 Q 485.5 76.1, 486.6 74.8 Q 487.8 73.5, 490.0 73.5 Q 492.2 73.5, 493.4 74.8 Q 494.6 76.1, 494.6 78.5 Q 494.6 80.9, 493.4 82.3 Q 492.2 83.6, 490.0 83.6 Q 487.8 83.6, 486.6 82.3 Q 485.5 80.9, 485.5 78.5 M 490.0 82.5 Q 491.5 82.5, 492.3 81.5 Q 493.2 80.5, 493.2 78.5 Q 493.2 76.6, 492.3 75.6 Q 491.5 74.6, 490.0 74.6 Q 488.5 74.6, 487.7 75.6 Q 486.9 76.5, 486.9 78.5 Q 486.9 80.5, 487.7 81.5 Q 488.5 82.5, 490.0 82.5 " fill="#FF0000"/>
<path class="atom-10" d="M 496.1 73.6 L 497.5 73.6 L 497.5 77.8 L 502.5 77.8 L 502.5 73.6 L 503.9 73.6 L 503.9 83.5 L 502.5 83.5 L 502.5 78.9 L 497.5 78.9 L 497.5 83.5 L 496.1 83.5 L 496.1 73.6 " fill="#FF0000"/>
<path class="atom-11" d="M 370.8 79.0 L 372.2 79.0 L 372.2 83.2 L 377.3 83.2 L 377.3 79.0 L 378.6 79.0 L 378.6 88.9 L 377.3 88.9 L 377.3 84.3 L 372.2 84.3 L 372.2 88.9 L 370.8 88.9 L 370.8 79.0 " fill="#FF0000"/>
<path class="atom-11" d="M 380.6 83.9 Q 380.6 81.5, 381.8 80.2 Q 383.0 78.9, 385.2 78.9 Q 387.4 78.9, 388.5 80.2 Q 389.7 81.5, 389.7 83.9 Q 389.7 86.3, 388.5 87.7 Q 387.3 89.1, 385.2 89.1 Q 383.0 89.1, 381.8 87.7 Q 380.6 86.3, 380.6 83.9 M 385.2 87.9 Q 386.7 87.9, 387.5 86.9 Q 388.3 85.9, 388.3 83.9 Q 388.3 82.0, 387.5 81.0 Q 386.7 80.0, 385.2 80.0 Q 383.7 80.0, 382.8 81.0 Q 382.0 82.0, 382.0 83.9 Q 382.0 85.9, 382.8 86.9 Q 383.7 87.9, 385.2 87.9 " fill="#FF0000"/>
<path class="atom-12" d="M 339.0 141.3 L 340.4 141.3 L 340.4 145.5 L 345.4 145.5 L 345.4 141.3 L 346.8 141.3 L 346.8 151.2 L 345.4 151.2 L 345.4 146.7 L 340.4 146.7 L 340.4 151.2 L 339.0 151.2 L 339.0 141.3 " fill="#FF0000"/>
<path class="atom-12" d="M 348.8 146.3 Q 348.8 143.9, 350.0 142.5 Q 351.2 141.2, 353.4 141.2 Q 355.6 141.2, 356.7 142.5 Q 357.9 143.9, 357.9 146.3 Q 357.9 148.7, 356.7 150.0 Q 355.5 151.4, 353.4 151.4 Q 351.2 151.4, 350.0 150.0 Q 348.8 148.7, 348.8 146.3 M 353.4 150.3 Q 354.9 150.3, 355.7 149.3 Q 356.5 148.2, 356.5 146.3 Q 356.5 144.3, 355.7 143.3 Q 354.9 142.3, 353.4 142.3 Q 351.8 142.3, 351.0 143.3 Q 350.2 144.3, 350.2 146.3 Q 350.2 148.3, 351.0 149.3 Q 351.8 150.3, 353.4 150.3 " fill="#FF0000"/>
<path class="atom-13" d="M 377.1 200.1 L 378.4 200.1 L 378.4 204.3 L 383.5 204.3 L 383.5 200.1 L 384.9 200.1 L 384.9 210.0 L 383.5 210.0 L 383.5 205.4 L 378.4 205.4 L 378.4 210.0 L 377.1 210.0 L 377.1 200.1 " fill="#FF0000"/>
<path class="atom-13" d="M 386.9 205.0 Q 386.9 202.6, 388.1 201.3 Q 389.2 199.9, 391.4 199.9 Q 393.6 199.9, 394.8 201.3 Q 396.0 202.6, 396.0 205.0 Q 396.0 207.4, 394.8 208.8 Q 393.6 210.1, 391.4 210.1 Q 389.2 210.1, 388.1 208.8 Q 386.9 207.4, 386.9 205.0 M 391.4 209.0 Q 392.9 209.0, 393.8 208.0 Q 394.6 207.0, 394.6 205.0 Q 394.6 203.0, 393.8 202.1 Q 392.9 201.1, 391.4 201.1 Q 389.9 201.1, 389.1 202.0 Q 388.3 203.0, 388.3 205.0 Q 388.3 207.0, 389.1 208.0 Q 389.9 209.0, 391.4 209.0 " fill="#FF0000"/>
<path class="note" d="M 425.2 182.4 Q 424.3 182.4, 423.8 181.8 Q 423.4 181.1, 423.4 179.9 Q 423.4 178.7, 423.8 178.0 Q 424.3 177.4, 425.2 177.4 Q 426.1 177.4, 426.5 178.0 Q 427.0 178.7, 427.0 179.9 Q 427.0 181.1, 426.5 181.8 Q 426.1 182.4, 425.2 182.4 M 425.2 181.9 Q 425.7 181.9, 426.0 181.4 Q 426.3 180.9, 426.3 179.9 Q 426.3 178.9, 426.0 178.4 Q 425.7 177.9, 425.2 177.9 Q 424.6 177.9, 424.4 178.4 Q 424.1 178.9, 424.1 179.9 Q 424.1 180.9, 424.4 181.4 Q 424.6 181.9, 425.2 181.9 " fill="#000000"/>
<path class="note" d="M 390.7 164.8 L 391.8 164.8 L 391.8 161.1 L 390.6 161.5 L 390.5 161.1 L 392.0 160.4 L 392.5 160.5 L 392.5 164.8 L 393.4 164.8 L 393.4 165.4 L 390.7 165.4 L 390.7 164.8 " fill="#000000"/>
<path class="note" d="M 388.4 124.1 Q 388.6 123.7, 389.0 123.4 Q 389.4 123.2, 390.0 123.2 Q 390.8 123.2, 391.2 123.6 Q 391.6 124.0, 391.6 124.7 Q 391.6 125.4, 391.1 126.1 Q 390.5 126.8, 389.4 127.6 L 391.7 127.6 L 391.7 128.2 L 388.4 128.2 L 388.4 127.7 Q 389.3 127.0, 389.8 126.5 Q 390.4 126.1, 390.6 125.6 Q 390.9 125.2, 390.9 124.7 Q 390.9 124.2, 390.7 124.0 Q 390.4 123.7, 390.0 123.7 Q 389.6 123.7, 389.4 123.9 Q 389.1 124.0, 388.9 124.4 L 388.4 124.1 " fill="#000000"/>
<path class="note" d="M 422.0 105.3 Q 422.5 105.4, 422.8 105.7 Q 423.0 106.0, 423.0 106.5 Q 423.0 106.9, 422.8 107.3 Q 422.6 107.6, 422.2 107.8 Q 421.8 107.9, 421.3 107.9 Q 420.8 107.9, 420.4 107.8 Q 420.0 107.6, 419.7 107.2 L 420.1 106.8 Q 420.4 107.1, 420.6 107.3 Q 420.9 107.4, 421.3 107.4 Q 421.7 107.4, 422.0 107.1 Q 422.3 106.9, 422.3 106.5 Q 422.3 106.0, 422.0 105.8 Q 421.7 105.5, 421.1 105.5 L 420.8 105.5 L 420.8 105.0 L 421.1 105.0 Q 421.6 105.0, 421.9 104.8 Q 422.2 104.6, 422.2 104.1 Q 422.2 103.8, 421.9 103.6 Q 421.7 103.4, 421.3 103.4 Q 420.9 103.4, 420.6 103.6 Q 420.4 103.7, 420.2 104.1 L 419.7 103.8 Q 419.9 103.4, 420.3 103.1 Q 420.7 102.9, 421.3 102.9 Q 422.0 102.9, 422.5 103.2 Q 422.9 103.5, 422.9 104.1 Q 422.9 104.5, 422.7 104.8 Q 422.5 105.1, 422.0 105.3 " fill="#000000"/>
<path class="note" d="M 455.9 123.1 L 456.5 123.1 L 456.5 123.7 L 455.9 123.7 L 455.9 124.8 L 455.2 124.8 L 455.2 123.7 L 452.6 123.7 L 452.6 123.2 L 454.8 119.8 L 455.9 119.8 L 455.9 123.1 M 453.5 123.1 L 455.2 123.1 L 455.2 120.3 L 453.5 123.1 " fill="#000000"/>
<path class="note" d="M 475.4 132.3 Q 475.9 132.3, 476.2 132.5 Q 476.6 132.7, 476.8 133.0 Q 477.0 133.4, 477.0 133.8 Q 477.0 134.3, 476.7 134.7 Q 476.5 135.1, 476.1 135.3 Q 475.7 135.5, 475.2 135.5 Q 474.8 135.5, 474.3 135.3 Q 473.9 135.1, 473.6 134.8 L 474.1 134.4 Q 474.3 134.6, 474.6 134.8 Q 474.9 134.9, 475.2 134.9 Q 475.7 134.9, 476.0 134.6 Q 476.3 134.3, 476.3 133.8 Q 476.3 133.3, 476.0 133.1 Q 475.7 132.8, 475.2 132.8 Q 474.8 132.8, 474.3 133.0 L 473.9 132.8 L 474.1 130.4 L 476.7 130.4 L 476.6 131.0 L 474.7 131.0 L 474.6 132.5 Q 475.0 132.3, 475.4 132.3 " fill="#000000"/>
<path class="note" d="M 508.8 149.3 Q 509.2 149.3, 509.5 149.5 Q 509.9 149.7, 510.1 150.0 Q 510.3 150.4, 510.3 150.8 Q 510.3 151.3, 510.0 151.6 Q 509.8 152.0, 509.5 152.2 Q 509.1 152.4, 508.6 152.4 Q 507.7 152.4, 507.3 151.8 Q 506.8 151.2, 506.8 150.1 Q 506.8 148.7, 507.4 148.1 Q 507.9 147.4, 509.0 147.4 Q 509.3 147.4, 509.5 147.4 Q 509.8 147.5, 510.1 147.7 L 509.8 148.1 Q 509.4 147.9, 509.0 147.9 Q 508.3 147.9, 507.9 148.4 Q 507.6 148.8, 507.5 149.8 Q 507.8 149.5, 508.1 149.4 Q 508.4 149.3, 508.8 149.3 M 508.6 151.9 Q 508.9 151.9, 509.1 151.7 Q 509.3 151.6, 509.4 151.3 Q 509.6 151.1, 509.6 150.8 Q 509.6 150.4, 509.3 150.1 Q 509.1 149.9, 508.6 149.9 Q 508.3 149.9, 508.0 150.0 Q 507.7 150.1, 507.5 150.3 Q 507.6 151.1, 507.8 151.5 Q 508.1 151.9, 508.6 151.9 " fill="#000000"/>
<path class="note" d="M 530.2 158.6 L 527.7 158.6 L 527.7 158.0 L 530.9 158.0 L 530.9 158.5 L 528.9 163.0 L 528.3 163.0 L 530.2 158.6 " fill="#000000"/>
<path class="note" d="M 441.7 92.6 Q 442.1 92.8, 442.4 93.1 Q 442.6 93.3, 442.6 93.8 Q 442.6 94.2, 442.4 94.6 Q 442.2 94.9, 441.8 95.1 Q 441.4 95.3, 440.9 95.3 Q 440.1 95.3, 439.6 94.9 Q 439.1 94.5, 439.1 93.8 Q 439.1 93.4, 439.3 93.1 Q 439.6 92.8, 440.0 92.6 Q 439.7 92.4, 439.5 92.1 Q 439.3 91.9, 439.3 91.4 Q 439.3 90.9, 439.7 90.5 Q 440.2 90.2, 440.9 90.2 Q 441.6 90.2, 442.0 90.5 Q 442.5 90.9, 442.5 91.4 Q 442.5 91.8, 442.2 92.1 Q 442.1 92.3, 441.7 92.6 M 440.9 90.7 Q 440.5 90.7, 440.2 90.9 Q 440.0 91.1, 440.0 91.4 Q 440.0 91.7, 440.2 91.9 Q 440.3 92.0, 440.5 92.1 Q 440.8 92.2, 441.2 92.4 Q 441.5 92.2, 441.6 92.0 Q 441.8 91.7, 441.8 91.4 Q 441.8 91.1, 441.5 90.9 Q 441.3 90.7, 440.9 90.7 M 440.9 94.7 Q 441.4 94.7, 441.7 94.5 Q 441.9 94.2, 441.9 93.8 Q 441.9 93.6, 441.8 93.4 Q 441.6 93.2, 441.4 93.1 Q 441.2 93.0, 440.8 92.9 L 440.5 92.8 Q 440.1 93.0, 440.0 93.3 Q 439.8 93.5, 439.8 93.8 Q 439.8 94.2, 440.1 94.5 Q 440.4 94.7, 440.9 94.7 " fill="#000000"/>
<path class="note" d="M 472.1 69.9 Q 473.0 69.9, 473.5 70.5 Q 473.9 71.1, 473.9 72.3 Q 473.9 73.6, 473.3 74.3 Q 472.8 74.9, 471.7 74.9 Q 471.4 74.9, 471.2 74.9 Q 470.9 74.8, 470.7 74.7 L 470.9 74.2 Q 471.3 74.4, 471.7 74.4 Q 472.4 74.4, 472.8 73.9 Q 473.2 73.5, 473.2 72.6 Q 472.9 72.8, 472.6 72.9 Q 472.3 73.0, 472.0 73.0 Q 471.5 73.0, 471.2 72.8 Q 470.8 72.7, 470.7 72.3 Q 470.5 72.0, 470.5 71.5 Q 470.5 71.1, 470.7 70.7 Q 470.9 70.3, 471.3 70.1 Q 471.6 69.9, 472.1 69.9 M 471.2 71.5 Q 471.2 72.0, 471.4 72.2 Q 471.7 72.5, 472.1 72.5 Q 472.4 72.5, 472.7 72.4 Q 473.0 72.2, 473.2 72.0 Q 473.2 71.2, 472.9 70.8 Q 472.7 70.5, 472.1 70.5 Q 471.9 70.5, 471.6 70.6 Q 471.4 70.7, 471.3 71.0 Q 471.2 71.2, 471.2 71.5 " fill="#000000"/>
<path class="note" d="M 382.5 106.2 L 383.6 106.2 L 383.6 102.5 L 382.4 102.9 L 382.3 102.5 L 383.8 101.8 L 384.3 101.9 L 384.3 106.2 L 385.3 106.2 L 385.3 106.8 L 382.5 106.8 L 382.5 106.2 " fill="#000000"/>
<path class="note" d="M 387.7 106.8 Q 386.8 106.8, 386.3 106.2 Q 385.9 105.5, 385.9 104.3 Q 385.9 103.1, 386.3 102.4 Q 386.8 101.8, 387.7 101.8 Q 388.6 101.8, 389.1 102.4 Q 389.5 103.1, 389.5 104.3 Q 389.5 105.5, 389.1 106.2 Q 388.6 106.8, 387.7 106.8 M 387.7 106.3 Q 388.2 106.3, 388.5 105.8 Q 388.8 105.3, 388.8 104.3 Q 388.8 103.3, 388.5 102.8 Q 388.2 102.3, 387.7 102.3 Q 387.2 102.3, 386.9 102.8 Q 386.6 103.3, 386.6 104.3 Q 386.6 105.3, 386.9 105.8 Q 387.2 106.3, 387.7 106.3 " fill="#000000"/>
<path class="note" d="M 368.2 154.2 L 369.3 154.2 L 369.3 150.5 L 368.1 150.9 L 367.9 150.5 L 369.4 149.8 L 369.9 149.9 L 369.9 154.2 L 370.9 154.2 L 370.9 154.8 L 368.2 154.8 L 368.2 154.2 " fill="#000000"/>
<path class="note" d="M 371.8 154.2 L 372.8 154.2 L 372.8 150.5 L 371.6 150.9 L 371.5 150.5 L 373.0 149.8 L 373.5 149.9 L 373.5 154.2 L 374.5 154.2 L 374.5 154.8 L 371.8 154.8 L 371.8 154.2 " fill="#000000"/>
<path class="note" d="M 405.5 196.1 L 406.6 196.1 L 406.6 192.4 L 405.4 192.8 L 405.3 192.3 L 406.8 191.7 L 407.3 191.7 L 407.3 196.1 L 408.3 196.1 L 408.3 196.6 L 405.5 196.6 L 405.5 196.1 " fill="#000000"/>
<path class="note" d="M 408.9 192.6 Q 409.1 192.2, 409.5 191.9 Q 409.9 191.6, 410.5 191.6 Q 411.3 191.6, 411.7 192.0 Q 412.1 192.4, 412.1 193.2 Q 412.1 193.9, 411.6 194.6 Q 411.0 195.3, 409.9 196.1 L 412.2 196.1 L 412.2 196.6 L 408.9 196.6 L 408.9 196.2 Q 409.8 195.5, 410.3 195.0 Q 410.9 194.5, 411.2 194.1 Q 411.4 193.7, 411.4 193.2 Q 411.4 192.7, 411.2 192.5 Q 410.9 192.2, 410.5 192.2 Q 410.1 192.2, 409.9 192.4 Q 409.6 192.5, 409.4 192.9 L 408.9 192.6 " fill="#000000"/>
<path class="note" d="M 440.8 155.2 L 441.9 155.2 L 441.9 151.5 L 440.7 151.8 L 440.5 151.4 L 442.1 150.7 L 442.6 150.8 L 442.6 155.2 L 443.5 155.2 L 443.5 155.7 L 440.8 155.7 L 440.8 155.2 " fill="#000000"/>
<path class="note" d="M 446.5 153.1 Q 447.0 153.2, 447.2 153.6 Q 447.5 153.9, 447.5 154.4 Q 447.5 154.8, 447.3 155.1 Q 447.1 155.4, 446.7 155.6 Q 446.3 155.8, 445.8 155.8 Q 445.3 155.8, 444.9 155.6 Q 444.5 155.4, 444.1 155.0 L 444.5 154.6 Q 444.9 155.0, 445.1 155.1 Q 445.4 155.2, 445.8 155.2 Q 446.2 155.2, 446.5 155.0 Q 446.8 154.7, 446.8 154.4 Q 446.8 153.8, 446.5 153.6 Q 446.2 153.4, 445.6 153.4 L 445.2 153.4 L 445.2 152.9 L 445.6 152.9 Q 446.1 152.9, 446.4 152.7 Q 446.7 152.4, 446.7 152.0 Q 446.7 151.7, 446.4 151.5 Q 446.2 151.3, 445.8 151.3 Q 445.4 151.3, 445.1 151.4 Q 444.9 151.6, 444.7 151.9 L 444.2 151.7 Q 444.4 151.3, 444.8 151.0 Q 445.2 150.7, 445.8 150.7 Q 446.5 150.7, 446.9 151.1 Q 447.4 151.4, 447.4 152.0 Q 447.4 152.4, 447.2 152.7 Q 446.9 152.9, 446.5 153.1 " fill="#000000"/>
</svg>