<svg xmlns="http://www.w3.org/2000/svg" xmlns:rdkit="http://www.rdkit.org/xml" xmlns:xlink="http://www.w3.org/1999/xlink" version="1.1" baseProfile="full" xml:space="preserve" width="600px" height="280px" viewBox="0 0 600 280">
<!-- END OF HEADER -->
<rect style="opacity:1.0;fill:#FFFFFF;stroke:none" width="600.0" height="280.0" x="0.0" y="0.0"> </rect>
<path class="bond-0 atom-1 atom-0" d="M 183.7,143.8 L 183.8,142.6" style="fill:none;fill-rule:evenodd;stroke:#000000;stroke-width:1.0px;stroke-linecap:butt;stroke-linejoin:miter;stroke-opacity:1"/>
<path class="bond-0 atom-1 atom-0" d="M 189.9,144.9 L 190.1,142.4" style="fill:none;fill-rule:evenodd;stroke:#000000;stroke-width:1.0px;stroke-linecap:butt;stroke-linejoin:miter;stroke-opacity:1"/>
<path class="bond-0 atom-1 atom-0" d="M 196.2,146.0 L 196.4,142.2" style="fill:none;fill-rule:evenodd;stroke:#000000;stroke-width:1.0px;stroke-linecap:butt;stroke-linejoin:miter;stroke-opacity:1"/>
<path class="bond-0 atom-1 atom-0" d="M 202.4,147.1 L 202.8,142.0" style="fill:none;fill-rule:evenodd;stroke:#000000;stroke-width:1.0px;stroke-linecap:butt;stroke-linejoin:miter;stroke-opacity:1"/>
<path class="bond-0 atom-1 atom-0" d="M 208.7,148.2 L 209.1,141.9" style="fill:none;fill-rule:evenodd;stroke:#000000;stroke-width:1.0px;stroke-linecap:butt;stroke-linejoin:miter;stroke-opacity:1"/>
<path class="bond-0 atom-1 atom-0" d="M 214.9,149.3 L 215.5,141.7" style="fill:none;fill-rule:evenodd;stroke:#000000;stroke-width:1.0px;stroke-linecap:butt;stroke-linejoin:miter;stroke-opacity:1"/>
<path class="bond-1 atom-1 atom-2" d="M 177.4,142.7 L 156.1,174.1" style="fill:none;fill-rule:evenodd;stroke:#000000;stroke-width:2.0px;stroke-linecap:butt;stroke-linejoin:miter;stroke-opacity:1"/>
<path class="bond-2 atom-2 atom-3" d="M 156.1,174.1 L 118.3,171.3" style="fill:none;fill-rule:evenodd;stroke:#000000;stroke-width:2.0px;stroke-linecap:butt;stroke-linejoin:miter;stroke-opacity:1"/>
<path class="bond-3 atom-3 atom-4" d="M 118.3,171.3 L 101.8,137.2" style="fill:none;fill-rule:evenodd;stroke:#000000;stroke-width:2.0px;stroke-linecap:butt;stroke-linejoin:miter;stroke-opacity:1"/>
<path class="bond-4 atom-4 atom-5" d="M 101.8,137.2 L 123.1,105.9" style="fill:none;fill-rule:evenodd;stroke:#000000;stroke-width:2.0px;stroke-linecap:butt;stroke-linejoin:miter;stroke-opacity:1"/>
<path class="bond-5 atom-5 atom-6" d="M 119.7,107.5 L 113.1,93.9" style="fill:none;fill-rule:evenodd;stroke:#000000;stroke-width:2.0px;stroke-linecap:butt;stroke-linejoin:miter;stroke-opacity:1"/>
<path class="bond-5 atom-5 atom-6" d="M 113.1,93.9 L 106.5,80.3" style="fill:none;fill-rule:evenodd;stroke:#FF0000;stroke-width:2.0px;stroke-linecap:butt;stroke-linejoin:miter;stroke-opacity:1"/>
<path class="bond-5 atom-5 atom-6" d="M 126.5,104.2 L 119.9,90.6" style="fill:none;fill-rule:evenodd;stroke:#000000;stroke-width:2.0px;stroke-linecap:butt;stroke-linejoin:miter;stroke-opacity:1"/>
<path class="bond-5 atom-5 atom-6" d="M 119.9,90.6 L 113.3,77.0" style="fill:none;fill-rule:evenodd;stroke:#FF0000;stroke-width:2.0px;stroke-linecap:butt;stroke-linejoin:miter;stroke-opacity:1"/>
<path class="bond-6 atom-5 atom-7" d="M 123.1,105.9 L 138.9,107.0" style="fill:none;fill-rule:evenodd;stroke:#000000;stroke-width:2.0px;stroke-linecap:butt;stroke-linejoin:miter;stroke-opacity:1"/>
<path class="bond-6 atom-5 atom-7" d="M 138.9,107.0 L 154.7,108.2" style="fill:none;fill-rule:evenodd;stroke:#FF0000;stroke-width:2.0px;stroke-linecap:butt;stroke-linejoin:miter;stroke-opacity:1"/>
<path class="bond-7 atom-4 atom-8" d="M 101.8,137.2 L 86.5,138.0 L 86.8,134.2 Z" style="fill:#000000;fill-rule:evenodd;fill-opacity:1;stroke:#000000;stroke-width:1.0px;stroke-linecap:butt;stroke-linejoin:miter;stroke-opacity:1;"/>
<path class="bond-7 atom-4 atom-8" d="M 86.5,138.0 L 71.8,131.2 L 71.2,138.8 Z" style="fill:#FF0000;fill-rule:evenodd;fill-opacity:1;stroke:#FF0000;stroke-width:1.0px;stroke-linecap:butt;stroke-linejoin:miter;stroke-opacity:1;"/>
<path class="bond-7 atom-4 atom-8" d="M 86.5,138.0 L 86.8,134.2 L 71.8,131.2 Z" style="fill:#FF0000;fill-rule:evenodd;fill-opacity:1;stroke:#FF0000;stroke-width:1.0px;stroke-linecap:butt;stroke-linejoin:miter;stroke-opacity:1;"/>
<path class="bond-8 atom-3 atom-9" d="M 114.5,175.6 L 115.8,176.4" style="fill:none;fill-rule:evenodd;stroke:#000000;stroke-width:1.0px;stroke-linecap:butt;stroke-linejoin:miter;stroke-opacity:1"/>
<path class="bond-8 atom-3 atom-9" d="M 110.7,179.8 L 113.2,181.5" style="fill:none;fill-rule:evenodd;stroke:#000000;stroke-width:1.0px;stroke-linecap:butt;stroke-linejoin:miter;stroke-opacity:1"/>
<path class="bond-8 atom-3 atom-9" d="M 106.9,184.1 L 110.7,186.6" style="fill:none;fill-rule:evenodd;stroke:#FF0000;stroke-width:1.0px;stroke-linecap:butt;stroke-linejoin:miter;stroke-opacity:1"/>
<path class="bond-8 atom-3 atom-9" d="M 103.1,188.3 L 108.1,191.8" style="fill:none;fill-rule:evenodd;stroke:#FF0000;stroke-width:1.0px;stroke-linecap:butt;stroke-linejoin:miter;stroke-opacity:1"/>
<path class="bond-8 atom-3 atom-9" d="M 99.3,192.6 L 105.6,196.9" style="fill:none;fill-rule:evenodd;stroke:#FF0000;stroke-width:1.0px;stroke-linecap:butt;stroke-linejoin:miter;stroke-opacity:1"/>
<path class="bond-9 atom-2 atom-10" d="M 156.1,174.1 L 164.2,186.3 L 160.8,188.0 Z" style="fill:#000000;fill-rule:evenodd;fill-opacity:1;stroke:#000000;stroke-width:1.0px;stroke-linecap:butt;stroke-linejoin:miter;stroke-opacity:1;"/>
<path class="bond-9 atom-2 atom-10" d="M 164.2,186.3 L 165.4,201.9 L 172.2,198.6 Z" style="fill:#FF0000;fill-rule:evenodd;fill-opacity:1;stroke:#FF0000;stroke-width:1.0px;stroke-linecap:butt;stroke-linejoin:miter;stroke-opacity:1;"/>
<path class="bond-9 atom-2 atom-10" d="M 164.2,186.3 L 160.8,188.0 L 165.4,201.9 Z" style="fill:#FF0000;fill-rule:evenodd;fill-opacity:1;stroke:#FF0000;stroke-width:1.0px;stroke-linecap:butt;stroke-linejoin:miter;stroke-opacity:1;"/>
<path class="bond-10 atom-0 atom-11" d="M 215.2,145.5 L 223.5,133.2" style="fill:none;fill-rule:evenodd;stroke:#000000;stroke-width:2.0px;stroke-linecap:butt;stroke-linejoin:miter;stroke-opacity:1"/>
<path class="bond-10 atom-0 atom-11" d="M 223.5,133.2 L 231.8,121.0" style="fill:none;fill-rule:evenodd;stroke:#FF0000;stroke-width:2.0px;stroke-linecap:butt;stroke-linejoin:miter;stroke-opacity:1"/>
<path class="bond-11 atom-7 atom-1" d="M 164.2,115.5 L 170.8,129.1" style="fill:none;fill-rule:evenodd;stroke:#FF0000;stroke-width:2.0px;stroke-linecap:butt;stroke-linejoin:miter;stroke-opacity:1"/>
<path class="bond-11 atom-7 atom-1" d="M 170.8,129.1 L 177.4,142.7" style="fill:none;fill-rule:evenodd;stroke:#000000;stroke-width:2.0px;stroke-linecap:butt;stroke-linejoin:miter;stroke-opacity:1"/>
<path class="atom-6" d="M 101.7 71.8 Q 101.7 69.2, 103.0 67.8 Q 104.2 66.3, 106.6 66.3 Q 109.0 66.3, 110.3 67.8 Q 111.5 69.2, 111.5 71.8 Q 111.5 74.4, 110.3 75.9 Q 109.0 77.4, 106.6 77.4 Q 104.3 77.4, 103.0 75.9 Q 101.7 74.4, 101.7 71.8 M 106.6 76.1 Q 108.3 76.1, 109.1 75.1 Q 110.0 73.9, 110.0 71.8 Q 110.0 69.7, 109.1 68.6 Q 108.3 67.6, 106.6 67.6 Q 105.0 67.6, 104.1 68.6 Q 103.2 69.7, 103.2 71.8 Q 103.2 74.0, 104.1 75.1 Q 105.0 76.1, 106.6 76.1 " fill="#FF0000"/>
<path class="atom-7" d="M 156.0 108.7 Q 156.0 106.1, 157.3 104.6 Q 158.5 103.2, 160.9 103.2 Q 163.3 103.2, 164.6 104.6 Q 165.8 106.1, 165.8 108.7 Q 165.8 111.3, 164.5 112.7 Q 163.3 114.2, 160.9 114.2 Q 158.5 114.2, 157.3 112.7 Q 156.0 111.3, 156.0 108.7 M 160.9 113.0 Q 162.5 113.0, 163.4 111.9 Q 164.3 110.8, 164.3 108.7 Q 164.3 106.5, 163.4 105.5 Q 162.5 104.4, 160.9 104.4 Q 159.3 104.4, 158.4 105.5 Q 157.5 106.5, 157.5 108.7 Q 157.5 110.8, 158.4 111.9 Q 159.3 113.0, 160.9 113.0 " fill="#FF0000"/>
<path class="atom-8" d="M 49.4 129.1 L 50.9 129.1 L 50.9 133.7 L 56.4 133.7 L 56.4 129.1 L 57.8 129.1 L 57.8 139.9 L 56.4 139.9 L 56.4 134.9 L 50.9 134.9 L 50.9 139.9 L 49.4 139.9 L 49.4 129.1 " fill="#FF0000"/>
<path class="atom-8" d="M 59.1 134.5 Q 59.1 131.9, 60.4 130.5 Q 61.7 129.0, 64.1 129.0 Q 66.4 129.0, 67.7 130.5 Q 69.0 131.9, 69.0 134.5 Q 69.0 137.1, 67.7 138.6 Q 66.4 140.0, 64.1 140.0 Q 61.7 140.0, 60.4 138.6 Q 59.1 137.1, 59.1 134.5 M 64.1 138.8 Q 65.7 138.8, 66.6 137.7 Q 67.5 136.6, 67.5 134.5 Q 67.5 132.4, 66.6 131.3 Q 65.7 130.2, 64.1 130.2 Q 62.4 130.2, 61.5 131.3 Q 60.6 132.4, 60.6 134.5 Q 60.6 136.7, 61.5 137.7 Q 62.4 138.8, 64.1 138.8 " fill="#FF0000"/>
<path class="atom-9" d="M 82.5 197.4 L 83.9 197.4 L 83.9 201.9 L 89.4 201.9 L 89.4 197.4 L 90.8 197.4 L 90.8 208.1 L 89.4 208.1 L 89.4 203.1 L 83.9 203.1 L 83.9 208.1 L 82.5 208.1 L 82.5 197.4 " fill="#FF0000"/>
<path class="atom-9" d="M 92.1 202.7 Q 92.1 200.1, 93.4 198.7 Q 94.7 197.2, 97.1 197.2 Q 99.4 197.2, 100.7 198.7 Q 102.0 200.1, 102.0 202.7 Q 102.0 205.3, 100.7 206.8 Q 99.4 208.3, 97.1 208.3 Q 94.7 208.3, 93.4 206.8 Q 92.1 205.3, 92.1 202.7 M 97.1 207.0 Q 98.7 207.0, 99.6 205.9 Q 100.5 204.8, 100.5 202.7 Q 100.5 200.6, 99.6 199.5 Q 98.7 198.4, 97.1 198.4 Q 95.4 198.4, 94.5 199.5 Q 93.7 200.6, 93.7 202.7 Q 93.7 204.9, 94.5 205.9 Q 95.4 207.0, 97.1 207.0 " fill="#FF0000"/>
<path class="atom-10" d="M 167.7 208.2 Q 167.7 205.6, 169.0 204.2 Q 170.3 202.8, 172.6 202.8 Q 175.0 202.8, 176.3 204.2 Q 177.6 205.6, 177.6 208.2 Q 177.6 210.8, 176.3 212.3 Q 175.0 213.8, 172.6 213.8 Q 170.3 213.8, 169.0 212.3 Q 167.7 210.8, 167.7 208.2 M 172.6 212.6 Q 174.3 212.6, 175.1 211.5 Q 176.0 210.4, 176.0 208.2 Q 176.0 206.1, 175.1 205.0 Q 174.3 204.0, 172.6 204.0 Q 171.0 204.0, 170.1 205.0 Q 169.2 206.1, 169.2 208.2 Q 169.2 210.4, 170.1 211.5 Q 171.0 212.6, 172.6 212.6 " fill="#FF0000"/>
<path class="atom-10" d="M 178.3 202.9 L 179.8 202.9 L 179.8 207.4 L 185.3 207.4 L 185.3 202.9 L 186.7 202.9 L 186.7 213.6 L 185.3 213.6 L 185.3 208.6 L 179.8 208.6 L 179.8 213.6 L 178.3 213.6 L 178.3 202.9 " fill="#FF0000"/>
<path class="atom-11" d="M 231.6 114.2 Q 231.6 111.6, 232.8 110.2 Q 234.1 108.7, 236.5 108.7 Q 238.9 108.7, 240.1 110.2 Q 241.4 111.6, 241.4 114.2 Q 241.4 116.8, 240.1 118.3 Q 238.8 119.7, 236.5 119.7 Q 234.1 119.7, 232.8 118.3 Q 231.6 116.8, 231.6 114.2 M 236.5 118.5 Q 238.1 118.5, 239.0 117.4 Q 239.9 116.3, 239.9 114.2 Q 239.9 112.1, 239.0 111.0 Q 238.1 109.9, 236.5 109.9 Q 234.8 109.9, 233.9 111.0 Q 233.1 112.1, 233.1 114.2 Q 233.1 116.3, 233.9 117.4 Q 234.8 118.5, 236.5 118.5 " fill="#FF0000"/>
<path class="atom-11" d="M 242.2 108.8 L 243.6 108.8 L 243.6 113.4 L 249.1 113.4 L 249.1 108.8 L 250.6 108.8 L 250.6 119.6 L 249.1 119.6 L 249.1 114.6 L 243.6 114.6 L 243.6 119.6 L 242.2 119.6 L 242.2 108.8 " fill="#FF0000"/>
<path class="note" d="M 221.5 148.7 Q 220.5 148.7, 220.0 148.0 Q 219.5 147.3, 219.5 146.0 Q 219.5 144.7, 220.0 144.0 Q 220.5 143.2, 221.5 143.2 Q 222.5 143.2, 223.0 144.0 Q 223.5 144.7, 223.5 146.0 Q 223.5 147.3, 223.0 148.0 Q 222.5 148.7, 221.5 148.7 M 221.5 148.1 Q 222.1 148.1, 222.4 147.6 Q 222.7 147.0, 222.7 146.0 Q 222.7 144.9, 222.4 144.4 Q 222.1 143.8, 221.5 143.8 Q 220.9 143.8, 220.6 144.4 Q 220.3 144.9, 220.3 146.0 Q 220.3 147.0, 220.6 147.6 Q 220.9 148.1, 221.5 148.1 " fill="#000000"/>
<path class="note" d="M 178.8 150.5 L 180.0 150.5 L 180.0 146.5 L 178.7 146.9 L 178.5 146.4 L 180.2 145.7 L 180.7 145.8 L 180.7 150.5 L 181.8 150.5 L 181.8 151.1 L 178.8 151.1 L 178.8 150.5 " fill="#000000"/>
<path class="note" d="M 151.6 166.8 Q 151.8 166.2, 152.3 166.0 Q 152.7 165.7, 153.4 165.7 Q 154.2 165.7, 154.6 166.1 Q 155.1 166.6, 155.1 167.3 Q 155.1 168.1, 154.5 168.9 Q 153.9 169.6, 152.7 170.5 L 155.2 170.5 L 155.2 171.1 L 151.6 171.1 L 151.6 170.6 Q 152.6 169.9, 153.2 169.4 Q 153.8 168.8, 154.0 168.3 Q 154.3 167.9, 154.3 167.4 Q 154.3 166.9, 154.1 166.6 Q 153.8 166.3, 153.4 166.3 Q 152.9 166.3, 152.7 166.5 Q 152.4 166.6, 152.2 167.0 L 151.6 166.8 " fill="#000000"/>
<path class="note" d="M 122.7 166.0 Q 123.2 166.1, 123.4 166.5 Q 123.7 166.8, 123.7 167.3 Q 123.7 167.8, 123.5 168.1 Q 123.2 168.5, 122.8 168.7 Q 122.4 168.9, 121.9 168.9 Q 121.3 168.9, 120.9 168.7 Q 120.4 168.5, 120.1 168.1 L 120.5 167.6 Q 120.9 168.0, 121.1 168.1 Q 121.4 168.3, 121.9 168.3 Q 122.3 168.3, 122.6 168.0 Q 122.9 167.7, 122.9 167.3 Q 122.9 166.8, 122.6 166.5 Q 122.3 166.3, 121.7 166.3 L 121.3 166.3 L 121.3 165.7 L 121.6 165.7 Q 122.2 165.7, 122.5 165.5 Q 122.8 165.2, 122.8 164.7 Q 122.8 164.4, 122.6 164.2 Q 122.3 164.0, 121.9 164.0 Q 121.4 164.0, 121.1 164.1 Q 120.9 164.3, 120.7 164.7 L 120.1 164.4 Q 120.3 164.0, 120.8 163.7 Q 121.2 163.4, 121.9 163.4 Q 122.7 163.4, 123.1 163.7 Q 123.6 164.1, 123.6 164.7 Q 123.6 165.2, 123.3 165.5 Q 123.1 165.8, 122.7 166.0 " fill="#000000"/>
<path class="note" d="M 109.6 138.5 L 110.2 138.5 L 110.2 139.1 L 109.6 139.1 L 109.6 140.4 L 108.8 140.4 L 108.8 139.1 L 106.1 139.1 L 106.1 138.6 L 108.4 135.0 L 109.6 135.0 L 109.6 138.5 M 107.0 138.5 L 108.8 138.5 L 108.8 135.5 L 107.0 138.5 " fill="#000000"/>
<path class="note" d="M 126.0 110.9 Q 126.5 110.9, 126.9 111.1 Q 127.2 111.3, 127.5 111.7 Q 127.7 112.0, 127.7 112.5 Q 127.7 113.1, 127.4 113.5 Q 127.1 113.9, 126.7 114.1 Q 126.3 114.3, 125.8 114.3 Q 125.3 114.3, 124.8 114.1 Q 124.4 113.9, 124.1 113.6 L 124.5 113.1 Q 124.8 113.4, 125.1 113.5 Q 125.4 113.7, 125.8 113.7 Q 126.3 113.7, 126.6 113.4 Q 126.9 113.1, 126.9 112.6 Q 126.9 112.0, 126.6 111.7 Q 126.3 111.4, 125.7 111.4 Q 125.3 111.4, 124.8 111.6 L 124.3 111.5 L 124.6 108.9 L 127.4 108.9 L 127.3 109.5 L 125.2 109.5 L 125.1 111.1 Q 125.5 110.9, 126.0 110.9 " fill="#000000"/>
<path class="note" d="M 101.4 59.8 Q 101.8 59.8, 102.2 60.0 Q 102.6 60.2, 102.8 60.5 Q 103.0 60.9, 103.0 61.4 Q 103.0 61.9, 102.7 62.3 Q 102.5 62.7, 102.1 62.9 Q 101.7 63.2, 101.2 63.2 Q 100.2 63.2, 99.7 62.5 Q 99.3 61.9, 99.3 60.6 Q 99.3 59.2, 99.8 58.4 Q 100.4 57.7, 101.6 57.7 Q 101.9 57.7, 102.2 57.8 Q 102.5 57.8, 102.8 58.0 L 102.5 58.5 Q 102.1 58.3, 101.6 58.3 Q 100.8 58.3, 100.5 58.8 Q 100.1 59.3, 100.0 60.3 Q 100.3 60.0, 100.6 59.9 Q 101.0 59.8, 101.4 59.8 M 101.2 62.5 Q 101.5 62.5, 101.7 62.4 Q 101.9 62.2, 102.1 62.0 Q 102.2 61.7, 102.2 61.4 Q 102.2 60.9, 102.0 60.6 Q 101.7 60.4, 101.2 60.4 Q 100.9 60.4, 100.6 60.5 Q 100.2 60.6, 100.0 60.9 Q 100.0 61.7, 100.3 62.1 Q 100.6 62.5, 101.2 62.5 " fill="#000000"/>
<path class="note" d="M 169.0 96.1 L 166.2 96.1 L 166.2 95.5 L 169.8 95.5 L 169.8 96.0 L 167.6 100.9 L 166.9 100.9 L 169.0 96.1 " fill="#000000"/>
<path class="note" d="M 59.4 123.0 Q 59.9 123.2, 60.2 123.5 Q 60.4 123.8, 60.4 124.3 Q 60.4 124.8, 60.2 125.1 Q 60.0 125.5, 59.6 125.7 Q 59.1 125.9, 58.6 125.9 Q 57.7 125.9, 57.2 125.5 Q 56.7 125.0, 56.7 124.3 Q 56.7 123.9, 56.9 123.6 Q 57.1 123.2, 57.6 123.0 Q 57.2 122.8, 57.0 122.5 Q 56.9 122.2, 56.9 121.7 Q 56.9 121.1, 57.3 120.7 Q 57.8 120.4, 58.6 120.4 Q 59.3 120.4, 59.8 120.7 Q 60.2 121.1, 60.2 121.7 Q 60.2 122.1, 60.0 122.4 Q 59.8 122.7, 59.4 123.0 M 58.6 120.9 Q 58.1 120.9, 57.9 121.2 Q 57.6 121.4, 57.6 121.7 Q 57.6 122.0, 57.8 122.2 Q 57.9 122.4, 58.2 122.5 Q 58.4 122.6, 58.9 122.8 Q 59.2 122.5, 59.3 122.3 Q 59.5 122.1, 59.5 121.7 Q 59.5 121.4, 59.2 121.2 Q 59.0 120.9, 58.6 120.9 M 58.6 125.3 Q 59.1 125.3, 59.4 125.0 Q 59.7 124.8, 59.7 124.3 Q 59.7 124.0, 59.5 123.9 Q 59.4 123.7, 59.1 123.6 Q 58.9 123.5, 58.5 123.3 L 58.1 123.2 Q 57.7 123.4, 57.6 123.7 Q 57.4 124.0, 57.4 124.3 Q 57.4 124.8, 57.7 125.0 Q 58.1 125.3, 58.6 125.3 " fill="#000000"/>
<path class="note" d="M 89.9 210.4 Q 90.9 210.4, 91.3 211.0 Q 91.8 211.7, 91.8 213.0 Q 91.8 214.4, 91.2 215.1 Q 90.6 215.9, 89.5 215.9 Q 89.2 215.9, 88.9 215.8 Q 88.6 215.7, 88.3 215.6 L 88.6 215.1 Q 89.0 215.3, 89.5 215.3 Q 90.2 215.3, 90.6 214.8 Q 91.0 214.3, 91.1 213.3 Q 90.8 213.5, 90.4 213.7 Q 90.1 213.8, 89.7 213.8 Q 89.3 213.8, 88.9 213.6 Q 88.5 213.4, 88.3 213.0 Q 88.1 212.7, 88.1 212.2 Q 88.1 211.7, 88.3 211.3 Q 88.6 210.8, 89.0 210.6 Q 89.4 210.4, 89.9 210.4 M 88.9 212.2 Q 88.9 212.7, 89.1 212.9 Q 89.4 213.2, 89.9 213.2 Q 90.2 213.2, 90.5 213.1 Q 90.8 212.9, 91.1 212.7 Q 91.0 211.8, 90.8 211.4 Q 90.5 211.0, 89.9 211.0 Q 89.6 211.0, 89.4 211.2 Q 89.1 211.3, 89.0 211.6 Q 88.9 211.8, 88.9 212.2 " fill="#000000"/>
<path class="note" d="M 174.7 221.6 L 175.9 221.6 L 175.9 217.6 L 174.6 218.0 L 174.4 217.6 L 176.0 216.9 L 176.6 217.0 L 176.6 221.6 L 177.6 221.6 L 177.6 222.3 L 174.7 222.3 L 174.7 221.6 " fill="#000000"/>
<path class="note" d="M 179.9 222.3 Q 178.9 222.3, 178.4 221.6 Q 177.9 220.9, 177.9 219.6 Q 177.9 218.3, 178.4 217.6 Q 178.9 216.8, 179.9 216.8 Q 180.9 216.8, 181.4 217.6 Q 181.9 218.3, 181.9 219.6 Q 181.9 220.9, 181.4 221.6 Q 180.9 222.3, 179.9 222.3 M 179.9 221.7 Q 180.5 221.7, 180.8 221.2 Q 181.1 220.6, 181.1 219.6 Q 181.1 218.5, 180.8 218.0 Q 180.5 217.4, 179.9 217.4 Q 179.3 217.4, 179.0 218.0 Q 178.7 218.5, 178.7 219.6 Q 178.7 220.6, 179.0 221.2 Q 179.3 221.7, 179.9 221.7 " fill="#000000"/>
<path class="note" d="M 240.5 105.8 L 241.6 105.8 L 241.6 101.8 L 240.4 102.2 L 240.2 101.7 L 241.8 101.0 L 242.4 101.1 L 242.4 105.8 L 243.4 105.8 L 243.4 106.4 L 240.5 106.4 L 240.5 105.8 " fill="#000000"/>
<path class="note" d="M 244.0 105.8 L 245.2 105.8 L 245.2 101.8 L 243.9 102.2 L 243.7 101.7 L 245.4 101.0 L 245.9 101.1 L 245.9 105.8 L 247.0 105.8 L 247.0 106.4 L 244.0 106.4 L 244.0 105.8 " fill="#000000"/>
<path class="bond-0 atom-0 atom-1" d="M 398.2,102.7 L 361.0,109.6" style="fill:none;fill-rule:evenodd;stroke:#000000;stroke-width:2.0px;stroke-linecap:butt;stroke-linejoin:miter;stroke-opacity:1"/>
<path class="bond-1 atom-1 atom-2" d="M 361.0,109.6 L 356.1,147.2" style="fill:none;fill-rule:evenodd;stroke:#000000;stroke-width:2.0px;stroke-linecap:butt;stroke-linejoin:miter;stroke-opacity:1"/>
<path class="bond-2 atom-2 atom-3" d="M 356.1,147.2 L 370.1,153.9" style="fill:none;fill-rule:evenodd;stroke:#000000;stroke-width:2.0px;stroke-linecap:butt;stroke-linejoin:miter;stroke-opacity:1"/>
<path class="bond-2 atom-2 atom-3" d="M 370.1,153.9 L 384.1,160.6" style="fill:none;fill-rule:evenodd;stroke:#FF0000;stroke-width:2.0px;stroke-linecap:butt;stroke-linejoin:miter;stroke-opacity:1"/>
<path class="bond-3 atom-3 atom-4" d="M 396.4,157.0 L 406.4,146.5" style="fill:none;fill-rule:evenodd;stroke:#FF0000;stroke-width:2.0px;stroke-linecap:butt;stroke-linejoin:miter;stroke-opacity:1"/>
<path class="bond-3 atom-3 atom-4" d="M 406.4,146.5 L 416.3,136.0" style="fill:none;fill-rule:evenodd;stroke:#000000;stroke-width:2.0px;stroke-linecap:butt;stroke-linejoin:miter;stroke-opacity:1"/>
<path class="bond-4 atom-4 atom-5" d="M 421.4,137.3 L 421.6,136.1" style="fill:none;fill-rule:evenodd;stroke:#000000;stroke-width:1.0px;stroke-linecap:butt;stroke-linejoin:miter;stroke-opacity:1"/>
<path class="bond-4 atom-4 atom-5" d="M 426.5,138.6 L 426.8,136.1" style="fill:none;fill-rule:evenodd;stroke:#000000;stroke-width:1.0px;stroke-linecap:butt;stroke-linejoin:miter;stroke-opacity:1"/>
<path class="bond-4 atom-4 atom-5" d="M 431.6,139.9 L 432.1,136.2" style="fill:none;fill-rule:evenodd;stroke:#000000;stroke-width:1.0px;stroke-linecap:butt;stroke-linejoin:miter;stroke-opacity:1"/>
<path class="bond-4 atom-4 atom-5" d="M 436.7,141.2 L 437.3,136.2" style="fill:none;fill-rule:evenodd;stroke:#0000FF;stroke-width:1.0px;stroke-linecap:butt;stroke-linejoin:miter;stroke-opacity:1"/>
<path class="bond-4 atom-4 atom-5" d="M 441.7,142.5 L 442.6,136.3" style="fill:none;fill-rule:evenodd;stroke:#0000FF;stroke-width:1.0px;stroke-linecap:butt;stroke-linejoin:miter;stroke-opacity:1"/>
<path class="bond-4 atom-4 atom-5" d="M 446.8,143.8 L 447.8,136.3" style="fill:none;fill-rule:evenodd;stroke:#0000FF;stroke-width:1.0px;stroke-linecap:butt;stroke-linejoin:miter;stroke-opacity:1"/>
<path class="bond-5 atom-5 atom-6" d="M 456.6,147.6 L 462.5,161.7" style="fill:none;fill-rule:evenodd;stroke:#0000FF;stroke-width:2.0px;stroke-linecap:butt;stroke-linejoin:miter;stroke-opacity:1"/>
<path class="bond-5 atom-5 atom-6" d="M 462.5,161.7 L 468.4,175.9" style="fill:none;fill-rule:evenodd;stroke:#000000;stroke-width:2.0px;stroke-linecap:butt;stroke-linejoin:miter;stroke-opacity:1"/>
<path class="bond-6 atom-6 atom-7" d="M 468.4,175.9 L 484.5,178.1" style="fill:none;fill-rule:evenodd;stroke:#000000;stroke-width:2.0px;stroke-linecap:butt;stroke-linejoin:miter;stroke-opacity:1"/>
<path class="bond-6 atom-6 atom-7" d="M 484.5,178.1 L 500.6,180.2" style="fill:none;fill-rule:evenodd;stroke:#0000FF;stroke-width:2.0px;stroke-linecap:butt;stroke-linejoin:miter;stroke-opacity:1"/>
<path class="bond-6 atom-6 atom-7" d="M 474.2,169.1 L 485.5,170.5" style="fill:none;fill-rule:evenodd;stroke:#000000;stroke-width:2.0px;stroke-linecap:butt;stroke-linejoin:miter;stroke-opacity:1"/>
<path class="bond-6 atom-6 atom-7" d="M 485.5,170.5 L 496.8,172.0" style="fill:none;fill-rule:evenodd;stroke:#0000FF;stroke-width:2.0px;stroke-linecap:butt;stroke-linejoin:miter;stroke-opacity:1"/>
<path class="bond-7 atom-7 atom-8" d="M 511.0,174.3 L 520.0,162.5" style="fill:none;fill-rule:evenodd;stroke:#0000FF;stroke-width:2.0px;stroke-linecap:butt;stroke-linejoin:miter;stroke-opacity:1"/>
<path class="bond-7 atom-7 atom-8" d="M 520.0,162.5 L 529.0,150.8" style="fill:none;fill-rule:evenodd;stroke:#000000;stroke-width:2.0px;stroke-linecap:butt;stroke-linejoin:miter;stroke-opacity:1"/>
<path class="bond-8 atom-8 atom-9" d="M 529.0,150.8 L 523.1,136.6" style="fill:none;fill-rule:evenodd;stroke:#000000;stroke-width:2.0px;stroke-linecap:butt;stroke-linejoin:miter;stroke-opacity:1"/>
<path class="bond-8 atom-8 atom-9" d="M 523.1,136.6 L 517.3,122.4" style="fill:none;fill-rule:evenodd;stroke:#0000FF;stroke-width:2.0px;stroke-linecap:butt;stroke-linejoin:miter;stroke-opacity:1"/>
<path class="bond-8 atom-8 atom-9" d="M 520.3,149.5 L 516.1,139.5" style="fill:none;fill-rule:evenodd;stroke:#000000;stroke-width:2.0px;stroke-linecap:butt;stroke-linejoin:miter;stroke-opacity:1"/>
<path class="bond-8 atom-8 atom-9" d="M 516.1,139.5 L 512.0,129.6" style="fill:none;fill-rule:evenodd;stroke:#0000FF;stroke-width:2.0px;stroke-linecap:butt;stroke-linejoin:miter;stroke-opacity:1"/>
<path class="bond-9 atom-9 atom-10" d="M 509.2,115.1 L 493.1,113.0" style="fill:none;fill-rule:evenodd;stroke:#0000FF;stroke-width:2.0px;stroke-linecap:butt;stroke-linejoin:miter;stroke-opacity:1"/>
<path class="bond-9 atom-9 atom-10" d="M 493.1,113.0 L 476.9,110.9" style="fill:none;fill-rule:evenodd;stroke:#000000;stroke-width:2.0px;stroke-linecap:butt;stroke-linejoin:miter;stroke-opacity:1"/>
<path class="bond-10 atom-10 atom-11" d="M 473.4,112.3 L 467.6,98.2" style="fill:none;fill-rule:evenodd;stroke:#000000;stroke-width:2.0px;stroke-linecap:butt;stroke-linejoin:miter;stroke-opacity:1"/>
<path class="bond-10 atom-10 atom-11" d="M 467.6,98.2 L 461.8,84.2" style="fill:none;fill-rule:evenodd;stroke:#FF0000;stroke-width:2.0px;stroke-linecap:butt;stroke-linejoin:miter;stroke-opacity:1"/>
<path class="bond-10 atom-10 atom-11" d="M 480.4,109.4 L 474.6,95.3" style="fill:none;fill-rule:evenodd;stroke:#000000;stroke-width:2.0px;stroke-linecap:butt;stroke-linejoin:miter;stroke-opacity:1"/>
<path class="bond-10 atom-10 atom-11" d="M 474.6,95.3 L 468.8,81.3" style="fill:none;fill-rule:evenodd;stroke:#FF0000;stroke-width:2.0px;stroke-linecap:butt;stroke-linejoin:miter;stroke-opacity:1"/>
<path class="bond-11 atom-8 atom-12" d="M 529.0,150.8 L 545.1,152.9" style="fill:none;fill-rule:evenodd;stroke:#000000;stroke-width:2.0px;stroke-linecap:butt;stroke-linejoin:miter;stroke-opacity:1"/>
<path class="bond-11 atom-8 atom-12" d="M 545.1,152.9 L 561.3,155.0" style="fill:none;fill-rule:evenodd;stroke:#0000FF;stroke-width:2.0px;stroke-linecap:butt;stroke-linejoin:miter;stroke-opacity:1"/>
<path class="bond-12 atom-2 atom-13" d="M 350.2,149.7 L 350.8,150.8" style="fill:none;fill-rule:evenodd;stroke:#000000;stroke-width:1.0px;stroke-linecap:butt;stroke-linejoin:miter;stroke-opacity:1"/>
<path class="bond-12 atom-2 atom-13" d="M 344.4,152.1 L 345.6,154.3" style="fill:none;fill-rule:evenodd;stroke:#000000;stroke-width:1.0px;stroke-linecap:butt;stroke-linejoin:miter;stroke-opacity:1"/>
<path class="bond-12 atom-2 atom-13" d="M 338.5,154.6 L 340.3,157.9" style="fill:none;fill-rule:evenodd;stroke:#000000;stroke-width:1.0px;stroke-linecap:butt;stroke-linejoin:miter;stroke-opacity:1"/>
<path class="bond-12 atom-2 atom-13" d="M 332.7,157.0 L 335.1,161.5" style="fill:none;fill-rule:evenodd;stroke:#000000;stroke-width:1.0px;stroke-linecap:butt;stroke-linejoin:miter;stroke-opacity:1"/>
<path class="bond-12 atom-2 atom-13" d="M 326.8,159.5 L 329.8,165.0" style="fill:none;fill-rule:evenodd;stroke:#000000;stroke-width:1.0px;stroke-linecap:butt;stroke-linejoin:miter;stroke-opacity:1"/>
<path class="bond-12 atom-2 atom-13" d="M 321.0,162.0 L 324.6,168.6" style="fill:none;fill-rule:evenodd;stroke:#000000;stroke-width:1.0px;stroke-linecap:butt;stroke-linejoin:miter;stroke-opacity:1"/>
<path class="bond-13 atom-13 atom-14" d="M 322.8,165.3 L 322.4,180.9" style="fill:none;fill-rule:evenodd;stroke:#000000;stroke-width:2.0px;stroke-linecap:butt;stroke-linejoin:miter;stroke-opacity:1"/>
<path class="bond-13 atom-13 atom-14" d="M 322.4,180.9 L 322.0,196.5" style="fill:none;fill-rule:evenodd;stroke:#FF0000;stroke-width:2.0px;stroke-linecap:butt;stroke-linejoin:miter;stroke-opacity:1"/>
<path class="bond-14 atom-1 atom-15" d="M 361.0,109.6 L 349.7,101.5 L 352.3,98.7 Z" style="fill:#000000;fill-rule:evenodd;fill-opacity:1;stroke:#000000;stroke-width:1.0px;stroke-linecap:butt;stroke-linejoin:miter;stroke-opacity:1;"/>
<path class="bond-14 atom-1 atom-15" d="M 349.7,101.5 L 343.5,87.9 L 338.3,93.4 Z" style="fill:#FF0000;fill-rule:evenodd;fill-opacity:1;stroke:#FF0000;stroke-width:1.0px;stroke-linecap:butt;stroke-linejoin:miter;stroke-opacity:1;"/>
<path class="bond-14 atom-1 atom-15" d="M 349.7,101.5 L 352.3,98.7 L 343.5,87.9 Z" style="fill:#FF0000;fill-rule:evenodd;fill-opacity:1;stroke:#FF0000;stroke-width:1.0px;stroke-linecap:butt;stroke-linejoin:miter;stroke-opacity:1;"/>
<path class="bond-15 atom-4 atom-0" d="M 416.3,136.0 L 398.2,102.7" style="fill:none;fill-rule:evenodd;stroke:#000000;stroke-width:2.0px;stroke-linecap:butt;stroke-linejoin:miter;stroke-opacity:1"/>
<path class="bond-16 atom-10 atom-5" d="M 476.9,110.9 L 468.0,122.6" style="fill:none;fill-rule:evenodd;stroke:#000000;stroke-width:2.0px;stroke-linecap:butt;stroke-linejoin:miter;stroke-opacity:1"/>
<path class="bond-16 atom-10 atom-5" d="M 468.0,122.6 L 459.0,134.3" style="fill:none;fill-rule:evenodd;stroke:#0000FF;stroke-width:2.0px;stroke-linecap:butt;stroke-linejoin:miter;stroke-opacity:1"/>
<path class="atom-3" d="M 385.3 163.5 Q 385.3 161.0, 386.6 159.5 Q 387.9 158.1, 390.3 158.1 Q 392.6 158.1, 393.9 159.5 Q 395.2 161.0, 395.2 163.5 Q 395.2 166.1, 393.9 167.6 Q 392.6 169.1, 390.3 169.1 Q 387.9 169.1, 386.6 167.6 Q 385.3 166.2, 385.3 163.5 M 390.3 167.9 Q 391.9 167.9, 392.8 166.8 Q 393.7 165.7, 393.7 163.5 Q 393.7 161.4, 392.8 160.4 Q 391.9 159.3, 390.3 159.3 Q 388.6 159.3, 387.7 160.3 Q 386.8 161.4, 386.8 163.5 Q 386.8 165.7, 387.7 166.8 Q 388.6 167.9, 390.3 167.9 " fill="#FF0000"/>
<path class="atom-5" d="M 451.5 135.6 L 455.0 141.3 Q 455.4 141.8, 455.9 142.8 Q 456.5 143.9, 456.5 143.9 L 456.5 135.6 L 458.0 135.6 L 458.0 146.3 L 456.5 146.3 L 452.7 140.1 Q 452.3 139.4, 451.8 138.5 Q 451.4 137.7, 451.2 137.4 L 451.2 146.3 L 449.8 146.3 L 449.8 135.6 L 451.5 135.6 " fill="#0000FF"/>
<path class="atom-7" d="M 503.6 175.5 L 507.1 181.2 Q 507.5 181.8, 508.0 182.8 Q 508.6 183.8, 508.6 183.8 L 508.6 175.5 L 510.0 175.5 L 510.0 186.2 L 508.6 186.2 L 504.8 180.0 Q 504.3 179.3, 503.9 178.5 Q 503.4 177.6, 503.3 177.4 L 503.3 186.2 L 501.9 186.2 L 501.9 175.5 L 503.6 175.5 " fill="#0000FF"/>
<path class="atom-9" d="M 512.1 110.4 L 515.7 116.1 Q 516.0 116.7, 516.6 117.7 Q 517.1 118.7, 517.2 118.8 L 517.2 110.4 L 518.6 110.4 L 518.6 121.2 L 517.1 121.2 L 513.3 115.0 Q 512.9 114.2, 512.4 113.4 Q 512.0 112.6, 511.8 112.3 L 511.8 121.2 L 510.4 121.2 L 510.4 110.4 L 512.1 110.4 " fill="#0000FF"/>
<path class="atom-11" d="M 457.5 75.9 Q 457.5 73.3, 458.8 71.9 Q 460.1 70.5, 462.4 70.5 Q 464.8 70.5, 466.1 71.9 Q 467.4 73.3, 467.4 75.9 Q 467.4 78.5, 466.1 80.0 Q 464.8 81.5, 462.4 81.5 Q 460.1 81.5, 458.8 80.0 Q 457.5 78.5, 457.5 75.9 M 462.4 80.3 Q 464.1 80.3, 464.9 79.2 Q 465.8 78.1, 465.8 75.9 Q 465.8 73.8, 464.9 72.7 Q 464.1 71.7, 462.4 71.7 Q 460.8 71.7, 459.9 72.7 Q 459.0 73.8, 459.0 75.9 Q 459.0 78.1, 459.9 79.2 Q 460.8 80.3, 462.4 80.3 " fill="#FF0000"/>
<path class="atom-12" d="M 564.2 150.4 L 567.7 156.1 Q 568.1 156.6, 568.6 157.6 Q 569.2 158.6, 569.2 158.7 L 569.2 150.4 L 570.7 150.4 L 570.7 161.1 L 569.2 161.1 L 565.4 154.9 Q 565.0 154.2, 564.5 153.3 Q 564.0 152.5, 563.9 152.2 L 563.9 161.1 L 562.5 161.1 L 562.5 150.4 L 564.2 150.4 " fill="#0000FF"/>
<path class="atom-12" d="M 571.9 150.4 L 573.4 150.4 L 573.4 154.9 L 578.8 154.9 L 578.8 150.4 L 580.3 150.4 L 580.3 161.1 L 578.8 161.1 L 578.8 156.1 L 573.4 156.1 L 573.4 161.1 L 571.9 161.1 L 571.9 150.4 " fill="#0000FF"/>
<path class="atom-12" d="M 581.6 160.7 Q 581.9 160.1, 582.5 159.7 Q 583.1 159.3, 584.0 159.3 Q 585.0 159.3, 585.6 159.9 Q 586.2 160.5, 586.2 161.5 Q 586.2 162.5, 585.5 163.5 Q 584.7 164.5, 583.1 165.7 L 586.4 165.7 L 586.4 166.5 L 581.6 166.5 L 581.6 165.8 Q 582.9 164.9, 583.7 164.2 Q 584.5 163.5, 584.9 162.8 Q 585.2 162.2, 585.2 161.5 Q 585.2 160.9, 584.9 160.5 Q 584.6 160.1, 584.0 160.1 Q 583.4 160.1, 583.0 160.3 Q 582.6 160.6, 582.4 161.1 L 581.6 160.7 " fill="#0000FF"/>
<path class="atom-14" d="M 316.9 203.2 Q 316.9 200.6, 318.1 199.2 Q 319.4 197.7, 321.8 197.7 Q 324.2 197.7, 325.4 199.2 Q 326.7 200.6, 326.7 203.2 Q 326.7 205.8, 325.4 207.3 Q 324.1 208.8, 321.8 208.8 Q 319.4 208.8, 318.1 207.3 Q 316.9 205.8, 316.9 203.2 M 321.8 207.5 Q 323.4 207.5, 324.3 206.5 Q 325.2 205.3, 325.2 203.2 Q 325.2 201.1, 324.3 200.0 Q 323.4 198.9, 321.8 198.9 Q 320.1 198.9, 319.3 200.0 Q 318.4 201.1, 318.4 203.2 Q 318.4 205.4, 319.3 206.5 Q 320.1 207.5, 321.8 207.5 " fill="#FF0000"/>
<path class="atom-14" d="M 327.5 197.9 L 328.9 197.9 L 328.9 202.4 L 334.4 202.4 L 334.4 197.9 L 335.9 197.9 L 335.9 208.6 L 334.4 208.6 L 334.4 203.6 L 328.9 203.6 L 328.9 208.6 L 327.5 208.6 L 327.5 197.9 " fill="#FF0000"/>
<path class="atom-15" d="M 318.9 78.3 L 320.3 78.3 L 320.3 82.8 L 325.8 82.8 L 325.8 78.3 L 327.3 78.3 L 327.3 89.0 L 325.8 89.0 L 325.8 84.0 L 320.3 84.0 L 320.3 89.0 L 318.9 89.0 L 318.9 78.3 " fill="#FF0000"/>
<path class="atom-15" d="M 328.6 83.6 Q 328.6 81.0, 329.8 79.6 Q 331.1 78.1, 333.5 78.1 Q 335.9 78.1, 337.1 79.6 Q 338.4 81.0, 338.4 83.6 Q 338.4 86.2, 337.1 87.7 Q 335.8 89.2, 333.5 89.2 Q 331.1 89.2, 329.8 87.7 Q 328.6 86.2, 328.6 83.6 M 333.5 87.9 Q 335.1 87.9, 336.0 86.9 Q 336.9 85.7, 336.9 83.6 Q 336.9 81.5, 336.0 80.4 Q 335.1 79.4, 333.5 79.4 Q 331.9 79.4, 331.0 80.4 Q 330.1 81.5, 330.1 83.6 Q 330.1 85.8, 331.0 86.9 Q 331.9 87.9, 333.5 87.9 " fill="#FF0000"/>
<path class="note" d="M 401.0 99.8 Q 400.0 99.8, 399.5 99.1 Q 399.0 98.3, 399.0 97.0 Q 399.0 95.7, 399.5 95.0 Q 400.0 94.3, 401.0 94.3 Q 401.9 94.3, 402.4 95.0 Q 402.9 95.7, 402.9 97.0 Q 402.9 98.3, 402.4 99.1 Q 401.9 99.8, 401.0 99.8 M 401.0 99.2 Q 401.5 99.2, 401.8 98.6 Q 402.2 98.1, 402.2 97.0 Q 402.2 96.0, 401.8 95.5 Q 401.5 94.9, 401.0 94.9 Q 400.4 94.9, 400.1 95.5 Q 399.7 96.0, 399.7 97.0 Q 399.7 98.1, 400.1 98.6 Q 400.4 99.2, 401.0 99.2 " fill="#000000"/>
<path class="note" d="M 364.2 116.1 L 365.4 116.1 L 365.4 112.1 L 364.1 112.5 L 364.0 112.0 L 365.6 111.3 L 366.1 111.4 L 366.1 116.1 L 367.2 116.1 L 367.2 116.7 L 364.2 116.7 L 364.2 116.1 " fill="#000000"/>
<path class="note" d="M 359.8 142.5 Q 360.0 142.0, 360.5 141.8 Q 360.9 141.5, 361.6 141.5 Q 362.4 141.5, 362.9 141.9 Q 363.3 142.4, 363.3 143.1 Q 363.3 143.9, 362.7 144.7 Q 362.1 145.4, 360.9 146.3 L 363.4 146.3 L 363.4 146.9 L 359.8 146.9 L 359.8 146.4 Q 360.8 145.7, 361.4 145.1 Q 362.0 144.6, 362.3 144.1 Q 362.6 143.7, 362.6 143.2 Q 362.6 142.7, 362.3 142.4 Q 362.0 142.1, 361.6 142.1 Q 361.2 142.1, 360.9 142.3 Q 360.6 142.4, 360.4 142.8 L 359.8 142.5 " fill="#000000"/>
<path class="note" d="M 393.3 175.8 Q 393.9 176.0, 394.1 176.3 Q 394.4 176.6, 394.4 177.2 Q 394.4 177.6, 394.1 178.0 Q 393.9 178.3, 393.5 178.5 Q 393.1 178.7, 392.5 178.7 Q 392.0 178.7, 391.5 178.5 Q 391.1 178.3, 390.8 177.9 L 391.2 177.5 Q 391.5 177.8, 391.8 178.0 Q 392.1 178.1, 392.5 178.1 Q 393.0 178.1, 393.3 177.8 Q 393.6 177.6, 393.6 177.2 Q 393.6 176.6, 393.3 176.4 Q 393.0 176.1, 392.3 176.1 L 391.9 176.1 L 391.9 175.6 L 392.3 175.6 Q 392.9 175.6, 393.2 175.3 Q 393.5 175.1, 393.5 174.6 Q 393.5 174.2, 393.2 174.0 Q 393.0 173.8, 392.5 173.8 Q 392.1 173.8, 391.8 174.0 Q 391.5 174.1, 391.3 174.5 L 390.8 174.2 Q 391.0 173.8, 391.4 173.5 Q 391.9 173.2, 392.5 173.2 Q 393.3 173.2, 393.8 173.6 Q 394.3 173.9, 394.3 174.6 Q 394.3 175.0, 394.0 175.3 Q 393.8 175.6, 393.3 175.8 " fill="#000000"/>
<path class="note" d="M 419.9 142.8 L 420.5 142.8 L 420.5 143.4 L 419.9 143.4 L 419.9 144.6 L 419.1 144.6 L 419.1 143.4 L 416.4 143.4 L 416.4 142.9 L 418.7 139.3 L 419.9 139.3 L 419.9 142.8 M 417.2 142.8 L 419.1 142.8 L 419.1 139.8 L 417.2 142.8 " fill="#000000"/>
<path class="note" d="M 449.2 128.6 Q 449.7 128.6, 450.0 128.8 Q 450.4 129.0, 450.6 129.4 Q 450.9 129.8, 450.9 130.3 Q 450.9 130.8, 450.6 131.2 Q 450.3 131.6, 449.9 131.8 Q 449.5 132.0, 449.0 132.0 Q 448.5 132.0, 448.0 131.8 Q 447.5 131.7, 447.2 131.3 L 447.7 130.8 Q 447.9 131.1, 448.3 131.3 Q 448.6 131.4, 449.0 131.4 Q 449.5 131.4, 449.8 131.1 Q 450.1 130.8, 450.1 130.3 Q 450.1 129.7, 449.8 129.4 Q 449.5 129.2, 448.9 129.2 Q 448.5 129.2, 447.9 129.4 L 447.5 129.2 L 447.8 126.6 L 450.5 126.6 L 450.5 127.2 L 448.4 127.2 L 448.2 128.8 Q 448.7 128.6, 449.2 128.6 " fill="#000000"/>
<path class="note" d="M 464.8 180.3 Q 465.3 180.3, 465.6 180.5 Q 466.0 180.7, 466.2 181.1 Q 466.4 181.5, 466.4 181.9 Q 466.4 182.5, 466.2 182.9 Q 466.0 183.3, 465.5 183.5 Q 465.1 183.7, 464.6 183.7 Q 463.7 183.7, 463.2 183.1 Q 462.7 182.4, 462.7 181.1 Q 462.7 179.7, 463.3 179.0 Q 463.9 178.2, 465.0 178.2 Q 465.4 178.2, 465.6 178.3 Q 465.9 178.4, 466.2 178.5 L 465.9 179.1 Q 465.5 178.8, 465.0 178.8 Q 464.3 178.8, 463.9 179.3 Q 463.5 179.8, 463.5 180.8 Q 463.7 180.6, 464.1 180.5 Q 464.4 180.3, 464.8 180.3 M 464.6 183.1 Q 464.9 183.1, 465.1 183.0 Q 465.4 182.8, 465.5 182.5 Q 465.7 182.3, 465.7 181.9 Q 465.7 181.5, 465.4 181.2 Q 465.1 180.9, 464.7 180.9 Q 464.3 180.9, 464.0 181.1 Q 463.7 181.2, 463.5 181.4 Q 463.5 182.3, 463.8 182.7 Q 464.1 183.1, 464.6 183.1 " fill="#000000"/>
<path class="note" d="M 511.8 190.5 L 509.0 190.5 L 509.0 189.9 L 512.6 189.9 L 512.6 190.4 L 510.4 195.2 L 509.7 195.2 L 511.8 190.5 " fill="#000000"/>
<path class="note" d="M 533.7 145.7 Q 534.2 145.9, 534.5 146.2 Q 534.8 146.5, 534.8 147.0 Q 534.8 147.5, 534.5 147.8 Q 534.3 148.2, 533.9 148.4 Q 533.4 148.6, 532.9 148.6 Q 532.0 148.6, 531.5 148.2 Q 531.0 147.8, 531.0 147.0 Q 531.0 146.6, 531.2 146.3 Q 531.4 145.9, 531.9 145.7 Q 531.5 145.5, 531.4 145.2 Q 531.2 144.9, 531.2 144.5 Q 531.2 143.8, 531.6 143.5 Q 532.1 143.1, 532.9 143.1 Q 533.6 143.1, 534.1 143.5 Q 534.6 143.8, 534.6 144.5 Q 534.6 144.8, 534.3 145.1 Q 534.1 145.4, 533.7 145.7 M 532.9 143.7 Q 532.4 143.7, 532.2 143.9 Q 531.9 144.1, 531.9 144.5 Q 531.9 144.7, 532.1 144.9 Q 532.3 145.1, 532.5 145.2 Q 532.7 145.3, 533.2 145.5 Q 533.5 145.3, 533.7 145.0 Q 533.8 144.8, 533.8 144.5 Q 533.8 144.1, 533.5 143.9 Q 533.3 143.7, 532.9 143.7 M 532.9 148.0 Q 533.4 148.0, 533.7 147.8 Q 534.0 147.5, 534.0 147.0 Q 534.0 146.7, 533.8 146.6 Q 533.7 146.4, 533.4 146.3 Q 533.2 146.2, 532.8 146.0 L 532.4 145.9 Q 532.1 146.1, 531.9 146.4 Q 531.7 146.7, 531.7 147.0 Q 531.7 147.5, 532.0 147.8 Q 532.4 148.0, 532.9 148.0 " fill="#000000"/>
<path class="note" d="M 526.1 108.3 Q 527.1 108.3, 527.5 108.9 Q 528.0 109.6, 528.0 110.8 Q 528.0 112.3, 527.4 113.0 Q 526.8 113.7, 525.7 113.7 Q 525.4 113.7, 525.1 113.7 Q 524.8 113.6, 524.5 113.4 L 524.8 112.9 Q 525.2 113.1, 525.7 113.1 Q 526.5 113.1, 526.8 112.7 Q 527.2 112.2, 527.3 111.2 Q 527.0 111.4, 526.6 111.5 Q 526.3 111.7, 525.9 111.7 Q 525.5 111.7, 525.1 111.5 Q 524.7 111.3, 524.5 110.9 Q 524.3 110.5, 524.3 110.0 Q 524.3 109.5, 524.5 109.1 Q 524.8 108.7, 525.2 108.5 Q 525.6 108.3, 526.1 108.3 M 525.1 110.0 Q 525.1 110.5, 525.3 110.8 Q 525.6 111.1, 526.1 111.1 Q 526.4 111.1, 526.7 110.9 Q 527.0 110.8, 527.3 110.6 Q 527.2 109.7, 527.0 109.3 Q 526.7 108.9, 526.1 108.9 Q 525.8 108.9, 525.6 109.0 Q 525.3 109.2, 525.2 109.4 Q 525.1 109.7, 525.1 110.0 " fill="#000000"/>
<path class="note" d="M 481.2 103.0 L 482.4 103.0 L 482.4 99.0 L 481.1 99.4 L 480.9 98.9 L 482.5 98.2 L 483.1 98.3 L 483.1 103.0 L 484.1 103.0 L 484.1 103.6 L 481.2 103.6 L 481.2 103.0 " fill="#000000"/>
<path class="note" d="M 486.4 103.6 Q 485.4 103.6, 484.9 102.9 Q 484.4 102.2, 484.4 100.9 Q 484.4 99.6, 484.9 98.9 Q 485.4 98.1, 486.4 98.1 Q 487.4 98.1, 487.9 98.9 Q 488.4 99.6, 488.4 100.9 Q 488.4 102.2, 487.9 102.9 Q 487.4 103.6, 486.4 103.6 M 486.4 103.0 Q 487.0 103.0, 487.3 102.5 Q 487.6 101.9, 487.6 100.9 Q 487.6 99.8, 487.3 99.3 Q 487.0 98.7, 486.4 98.7 Q 485.8 98.7, 485.5 99.3 Q 485.2 99.8, 485.2 100.9 Q 485.2 101.9, 485.5 102.5 Q 485.8 103.0, 486.4 103.0 " fill="#000000"/>
<path class="note" d="M 454.5 66.3 L 455.7 66.3 L 455.7 62.3 L 454.4 62.7 L 454.2 62.3 L 455.8 61.5 L 456.4 61.6 L 456.4 66.3 L 457.4 66.3 L 457.4 66.9 L 454.5 66.9 L 454.5 66.3 " fill="#000000"/>
<path class="note" d="M 458.1 66.3 L 459.2 66.3 L 459.2 62.3 L 457.9 62.7 L 457.8 62.3 L 459.4 61.5 L 459.9 61.6 L 459.9 66.3 L 461.0 66.3 L 461.0 66.9 L 458.1 66.9 L 458.1 66.3 " fill="#000000"/>
<path class="note" d="M 568.1 169.5 L 569.3 169.5 L 569.3 165.5 L 568.0 165.9 L 567.8 165.5 L 569.5 164.7 L 570.0 164.8 L 570.0 169.5 L 571.1 169.5 L 571.1 170.1 L 568.1 170.1 L 568.1 169.5 " fill="#000000"/>
<path class="note" d="M 571.4 165.8 Q 571.6 165.3, 572.1 165.0 Q 572.5 164.7, 573.2 164.7 Q 574.0 164.7, 574.5 165.1 Q 574.9 165.6, 574.9 166.4 Q 574.9 167.1, 574.3 167.9 Q 573.7 168.6, 572.5 169.5 L 575.0 169.5 L 575.0 170.1 L 571.4 170.1 L 571.4 169.6 Q 572.4 168.9, 573.0 168.4 Q 573.6 167.8, 573.9 167.4 Q 574.2 166.9, 574.2 166.4 Q 574.2 165.9, 573.9 165.6 Q 573.6 165.3, 573.2 165.3 Q 572.8 165.3, 572.5 165.5 Q 572.2 165.6, 572.0 166.0 L 571.4 165.8 " fill="#000000"/>
<path class="note" d="M 313.9 170.4 L 315.1 170.4 L 315.1 166.4 L 313.8 166.8 L 313.6 166.4 L 315.3 165.6 L 315.8 165.7 L 315.8 170.4 L 316.9 170.4 L 316.9 171.0 L 313.9 171.0 L 313.9 170.4 " fill="#000000"/>
<path class="note" d="M 319.8 168.2 Q 320.3 168.3, 320.5 168.7 Q 320.8 169.0, 320.8 169.5 Q 320.8 170.0, 320.6 170.4 Q 320.3 170.7, 319.9 170.9 Q 319.5 171.1, 319.0 171.1 Q 318.4 171.1, 318.0 170.9 Q 317.5 170.7, 317.2 170.3 L 317.6 169.8 Q 318.0 170.2, 318.2 170.3 Q 318.5 170.5, 319.0 170.5 Q 319.4 170.5, 319.7 170.2 Q 320.0 170.0, 320.0 169.5 Q 320.0 169.0, 319.7 168.8 Q 319.4 168.5, 318.8 168.5 L 318.4 168.5 L 318.4 168.0 L 318.7 168.0 Q 319.3 167.9, 319.6 167.7 Q 319.9 167.4, 319.9 167.0 Q 319.9 166.6, 319.7 166.4 Q 319.4 166.2, 319.0 166.2 Q 318.5 166.2, 318.2 166.4 Q 318.0 166.5, 317.8 166.9 L 317.2 166.6 Q 317.4 166.2, 317.9 165.9 Q 318.3 165.6, 319.0 165.6 Q 319.8 165.6, 320.2 166.0 Q 320.7 166.3, 320.7 167.0 Q 320.7 167.4, 320.4 167.7 Q 320.2 168.0, 319.8 168.2 " fill="#000000"/>
<path class="note" d="M 317.9 217.9 L 319.1 217.9 L 319.1 213.9 L 317.8 214.3 L 317.6 213.8 L 319.3 213.1 L 319.8 213.2 L 319.8 217.9 L 320.9 217.9 L 320.9 218.5 L 317.9 218.5 L 317.9 217.9 " fill="#000000"/>
<path class="note" d="M 324.7 216.6 L 325.3 216.6 L 325.3 217.2 L 324.7 217.2 L 324.7 218.5 L 323.9 218.5 L 323.9 217.2 L 321.2 217.2 L 321.2 216.8 L 323.5 213.1 L 324.7 213.1 L 324.7 216.6 M 322.1 216.6 L 323.9 216.6 L 323.9 213.6 L 322.1 216.6 " fill="#000000"/>
<path class="note" d="M 326.6 73.5 L 327.8 73.5 L 327.8 69.5 L 326.5 69.9 L 326.3 69.5 L 328.0 68.8 L 328.5 68.9 L 328.5 73.5 L 329.5 73.5 L 329.5 74.2 L 326.6 74.2 L 326.6 73.5 " fill="#000000"/>
<path class="note" d="M 331.8 70.8 Q 332.3 70.8, 332.7 71.0 Q 333.1 71.2, 333.3 71.6 Q 333.5 72.0, 333.5 72.5 Q 333.5 73.0, 333.2 73.4 Q 333.0 73.8, 332.5 74.0 Q 332.1 74.2, 331.6 74.2 Q 331.1 74.2, 330.6 74.0 Q 330.2 73.9, 329.9 73.5 L 330.3 73.0 Q 330.6 73.3, 330.9 73.5 Q 331.3 73.6, 331.6 73.6 Q 332.1 73.6, 332.4 73.3 Q 332.7 73.0, 332.7 72.5 Q 332.7 71.9, 332.4 71.6 Q 332.1 71.4, 331.6 71.4 Q 331.1 71.4, 330.6 71.6 L 330.1 71.4 L 330.4 68.8 L 333.2 68.8 L 333.1 69.4 L 331.0 69.4 L 330.9 71.0 Q 331.3 70.8, 331.8 70.8 " fill="#000000"/>
</svg>