<svg xmlns="http://www.w3.org/2000/svg" xmlns:rdkit="http://www.rdkit.org/xml" xmlns:xlink="http://www.w3.org/1999/xlink" version="1.1" baseProfile="full" xml:space="preserve" width="600px" height="280px" viewBox="0 0 600 280">
<!-- END OF HEADER -->
<rect style="opacity:1.0;fill:#FFFFFF;stroke:none" width="600.0" height="280.0" x="0.0" y="0.0"> </rect>
<path class="bond-0 atom-1 atom-0" d="M 84.7,163.9 L 85.3,164.1" style="fill:none;fill-rule:evenodd;stroke:#000000;stroke-width:1.0px;stroke-linecap:butt;stroke-linejoin:miter;stroke-opacity:1"/>
<path class="bond-0 atom-1 atom-0" d="M 83.4,167.2 L 84.5,167.5" style="fill:none;fill-rule:evenodd;stroke:#000000;stroke-width:1.0px;stroke-linecap:butt;stroke-linejoin:miter;stroke-opacity:1"/>
<path class="bond-0 atom-1 atom-0" d="M 82.1,170.4 L 83.8,171.0" style="fill:none;fill-rule:evenodd;stroke:#000000;stroke-width:1.0px;stroke-linecap:butt;stroke-linejoin:miter;stroke-opacity:1"/>
<path class="bond-0 atom-1 atom-0" d="M 80.8,173.7 L 83.1,174.4" style="fill:none;fill-rule:evenodd;stroke:#000000;stroke-width:1.0px;stroke-linecap:butt;stroke-linejoin:miter;stroke-opacity:1"/>
<path class="bond-0 atom-1 atom-0" d="M 79.6,177.0 L 82.3,177.8" style="fill:none;fill-rule:evenodd;stroke:#000000;stroke-width:1.0px;stroke-linecap:butt;stroke-linejoin:miter;stroke-opacity:1"/>
<path class="bond-0 atom-1 atom-0" d="M 78.3,180.2 L 81.6,181.3" style="fill:none;fill-rule:evenodd;stroke:#000000;stroke-width:1.0px;stroke-linecap:butt;stroke-linejoin:miter;stroke-opacity:1"/>
<path class="bond-0 atom-1 atom-0" d="M 77.0,183.5 L 80.9,184.7" style="fill:none;fill-rule:evenodd;stroke:#000000;stroke-width:1.0px;stroke-linecap:butt;stroke-linejoin:miter;stroke-opacity:1"/>
<path class="bond-0 atom-1 atom-0" d="M 75.7,186.8 L 80.2,188.1" style="fill:none;fill-rule:evenodd;stroke:#000000;stroke-width:1.0px;stroke-linecap:butt;stroke-linejoin:miter;stroke-opacity:1"/>
<path class="bond-0 atom-1 atom-0" d="M 74.4,190.0 L 79.4,191.5" style="fill:none;fill-rule:evenodd;stroke:#000000;stroke-width:1.0px;stroke-linecap:butt;stroke-linejoin:miter;stroke-opacity:1"/>
<path class="bond-1 atom-1 atom-2" d="M 86.0,160.7 L 62.0,135.2" style="fill:none;fill-rule:evenodd;stroke:#000000;stroke-width:2.0px;stroke-linecap:butt;stroke-linejoin:miter;stroke-opacity:1"/>
<path class="bond-2 atom-2 atom-3" d="M 62.0,135.2 L 72.1,101.6" style="fill:none;fill-rule:evenodd;stroke:#000000;stroke-width:2.0px;stroke-linecap:butt;stroke-linejoin:miter;stroke-opacity:1"/>
<path class="bond-3 atom-3 atom-4" d="M 72.1,101.6 L 106.2,93.7" style="fill:none;fill-rule:evenodd;stroke:#000000;stroke-width:2.0px;stroke-linecap:butt;stroke-linejoin:miter;stroke-opacity:1"/>
<path class="bond-4 atom-4 atom-5" d="M 106.2,93.7 L 130.2,119.2" style="fill:none;fill-rule:evenodd;stroke:#000000;stroke-width:2.0px;stroke-linecap:butt;stroke-linejoin:miter;stroke-opacity:1"/>
<path class="bond-5 atom-5 atom-6" d="M 130.2,119.2 L 126.1,132.8" style="fill:none;fill-rule:evenodd;stroke:#000000;stroke-width:2.0px;stroke-linecap:butt;stroke-linejoin:miter;stroke-opacity:1"/>
<path class="bond-5 atom-5 atom-6" d="M 126.1,132.8 L 121.9,146.5" style="fill:none;fill-rule:evenodd;stroke:#FF0000;stroke-width:2.0px;stroke-linecap:butt;stroke-linejoin:miter;stroke-opacity:1"/>
<path class="bond-6 atom-5 atom-7" d="M 130.2,119.2 L 143.5,114.7 L 144.1,117.2 Z" style="fill:#000000;fill-rule:evenodd;fill-opacity:1;stroke:#000000;stroke-width:0.5px;stroke-linecap:butt;stroke-linejoin:miter;stroke-opacity:1;"/>
<path class="bond-6 atom-5 atom-7" d="M 143.5,114.7 L 158.0,115.3 L 156.8,110.2 Z" style="fill:#FF0000;fill-rule:evenodd;fill-opacity:1;stroke:#FF0000;stroke-width:0.5px;stroke-linecap:butt;stroke-linejoin:miter;stroke-opacity:1;"/>
<path class="bond-6 atom-5 atom-7" d="M 143.5,114.7 L 144.1,117.2 L 158.0,115.3 Z" style="fill:#FF0000;fill-rule:evenodd;fill-opacity:1;stroke:#FF0000;stroke-width:0.5px;stroke-linecap:butt;stroke-linejoin:miter;stroke-opacity:1;"/>
<path class="bond-7 atom-7 atom-8" d="M 169.9,117.2 L 179.1,126.9" style="fill:none;fill-rule:evenodd;stroke:#FF0000;stroke-width:2.0px;stroke-linecap:butt;stroke-linejoin:miter;stroke-opacity:1"/>
<path class="bond-7 atom-7 atom-8" d="M 179.1,126.9 L 188.2,136.7" style="fill:none;fill-rule:evenodd;stroke:#000000;stroke-width:2.0px;stroke-linecap:butt;stroke-linejoin:miter;stroke-opacity:1"/>
<path class="bond-8 atom-8 atom-9" d="M 188.2,136.7 L 206.3,166.6" style="fill:none;fill-rule:evenodd;stroke:#000000;stroke-width:2.0px;stroke-linecap:butt;stroke-linejoin:miter;stroke-opacity:1"/>
<path class="bond-9 atom-9 atom-10" d="M 206.3,166.6 L 240.4,158.6" style="fill:none;fill-rule:evenodd;stroke:#000000;stroke-width:2.0px;stroke-linecap:butt;stroke-linejoin:miter;stroke-opacity:1"/>
<path class="bond-10 atom-10 atom-11" d="M 240.4,158.6 L 243.3,123.7" style="fill:none;fill-rule:evenodd;stroke:#000000;stroke-width:2.0px;stroke-linecap:butt;stroke-linejoin:miter;stroke-opacity:1"/>
<path class="bond-11 atom-11 atom-12" d="M 243.3,123.7 L 230.0,118.1" style="fill:none;fill-rule:evenodd;stroke:#000000;stroke-width:2.0px;stroke-linecap:butt;stroke-linejoin:miter;stroke-opacity:1"/>
<path class="bond-11 atom-11 atom-12" d="M 230.0,118.1 L 216.8,112.6" style="fill:none;fill-rule:evenodd;stroke:#FF0000;stroke-width:2.0px;stroke-linecap:butt;stroke-linejoin:miter;stroke-opacity:1"/>
<path class="bond-12 atom-11 atom-13" d="M 246.5,122.2 L 246.2,121.7" style="fill:none;fill-rule:evenodd;stroke:#000000;stroke-width:1.0px;stroke-linecap:butt;stroke-linejoin:miter;stroke-opacity:1"/>
<path class="bond-12 atom-11 atom-13" d="M 249.6,120.6 L 249.0,119.6" style="fill:none;fill-rule:evenodd;stroke:#000000;stroke-width:1.0px;stroke-linecap:butt;stroke-linejoin:miter;stroke-opacity:1"/>
<path class="bond-12 atom-11 atom-13" d="M 252.8,119.0 L 251.8,117.5" style="fill:none;fill-rule:evenodd;stroke:#000000;stroke-width:1.0px;stroke-linecap:butt;stroke-linejoin:miter;stroke-opacity:1"/>
<path class="bond-12 atom-11 atom-13" d="M 255.9,117.5 L 254.7,115.5" style="fill:none;fill-rule:evenodd;stroke:#000000;stroke-width:1.0px;stroke-linecap:butt;stroke-linejoin:miter;stroke-opacity:1"/>
<path class="bond-12 atom-11 atom-13" d="M 259.0,115.9 L 257.5,113.4" style="fill:none;fill-rule:evenodd;stroke:#000000;stroke-width:1.0px;stroke-linecap:butt;stroke-linejoin:miter;stroke-opacity:1"/>
<path class="bond-12 atom-11 atom-13" d="M 262.2,114.3 L 260.4,111.3" style="fill:none;fill-rule:evenodd;stroke:#000000;stroke-width:1.0px;stroke-linecap:butt;stroke-linejoin:miter;stroke-opacity:1"/>
<path class="bond-12 atom-11 atom-13" d="M 265.3,112.8 L 263.2,109.3" style="fill:none;fill-rule:evenodd;stroke:#000000;stroke-width:1.0px;stroke-linecap:butt;stroke-linejoin:miter;stroke-opacity:1"/>
<path class="bond-12 atom-11 atom-13" d="M 268.5,111.2 L 266.0,107.2" style="fill:none;fill-rule:evenodd;stroke:#000000;stroke-width:1.0px;stroke-linecap:butt;stroke-linejoin:miter;stroke-opacity:1"/>
<path class="bond-12 atom-11 atom-13" d="M 271.6,109.7 L 268.9,105.2" style="fill:none;fill-rule:evenodd;stroke:#000000;stroke-width:1.0px;stroke-linecap:butt;stroke-linejoin:miter;stroke-opacity:1"/>
<path class="bond-13 atom-13 atom-14" d="M 273.3,105.6 L 273.0,91.3" style="fill:none;fill-rule:evenodd;stroke:#000000;stroke-width:2.0px;stroke-linecap:butt;stroke-linejoin:miter;stroke-opacity:1"/>
<path class="bond-13 atom-13 atom-14" d="M 273.0,91.3 L 272.7,76.9" style="fill:none;fill-rule:evenodd;stroke:#FF0000;stroke-width:2.0px;stroke-linecap:butt;stroke-linejoin:miter;stroke-opacity:1"/>
<path class="bond-14 atom-10 atom-15" d="M 240.4,158.6 L 251.1,166.1 L 249.4,168.1 Z" style="fill:#000000;fill-rule:evenodd;fill-opacity:1;stroke:#000000;stroke-width:0.5px;stroke-linecap:butt;stroke-linejoin:miter;stroke-opacity:1;"/>
<path class="bond-14 atom-10 atom-15" d="M 251.1,166.1 L 258.3,177.5 L 261.8,173.5 Z" style="fill:#FF0000;fill-rule:evenodd;fill-opacity:1;stroke:#FF0000;stroke-width:0.5px;stroke-linecap:butt;stroke-linejoin:miter;stroke-opacity:1;"/>
<path class="bond-14 atom-10 atom-15" d="M 251.1,166.1 L 249.4,168.1 L 258.3,177.5 Z" style="fill:#FF0000;fill-rule:evenodd;fill-opacity:1;stroke:#FF0000;stroke-width:0.5px;stroke-linecap:butt;stroke-linejoin:miter;stroke-opacity:1;"/>
<path class="bond-15 atom-9 atom-16" d="M 205.3,169.8 L 204.7,169.6" style="fill:none;fill-rule:evenodd;stroke:#000000;stroke-width:1.0px;stroke-linecap:butt;stroke-linejoin:miter;stroke-opacity:1"/>
<path class="bond-15 atom-9 atom-16" d="M 204.3,173.1 L 203.1,172.6" style="fill:none;fill-rule:evenodd;stroke:#000000;stroke-width:1.0px;stroke-linecap:butt;stroke-linejoin:miter;stroke-opacity:1"/>
<path class="bond-15 atom-9 atom-16" d="M 203.3,176.3 L 201.5,175.6" style="fill:none;fill-rule:evenodd;stroke:#000000;stroke-width:1.0px;stroke-linecap:butt;stroke-linejoin:miter;stroke-opacity:1"/>
<path class="bond-15 atom-9 atom-16" d="M 202.3,179.6 L 199.9,178.6" style="fill:none;fill-rule:evenodd;stroke:#000000;stroke-width:1.0px;stroke-linecap:butt;stroke-linejoin:miter;stroke-opacity:1"/>
<path class="bond-15 atom-9 atom-16" d="M 201.3,182.8 L 198.3,181.5" style="fill:none;fill-rule:evenodd;stroke:#FF0000;stroke-width:1.0px;stroke-linecap:butt;stroke-linejoin:miter;stroke-opacity:1"/>
<path class="bond-15 atom-9 atom-16" d="M 200.3,186.1 L 196.7,184.5" style="fill:none;fill-rule:evenodd;stroke:#FF0000;stroke-width:1.0px;stroke-linecap:butt;stroke-linejoin:miter;stroke-opacity:1"/>
<path class="bond-15 atom-9 atom-16" d="M 199.3,189.3 L 195.1,187.5" style="fill:none;fill-rule:evenodd;stroke:#FF0000;stroke-width:1.0px;stroke-linecap:butt;stroke-linejoin:miter;stroke-opacity:1"/>
<path class="bond-15 atom-9 atom-16" d="M 198.3,192.5 L 193.4,190.5" style="fill:none;fill-rule:evenodd;stroke:#FF0000;stroke-width:1.0px;stroke-linecap:butt;stroke-linejoin:miter;stroke-opacity:1"/>
<path class="bond-16 atom-8 atom-17" d="M 188.2,136.7 L 160.7,161.0 L 160.0,154.9 Z" style="fill:#000000;fill-rule:evenodd;fill-opacity:1;stroke:#000000;stroke-width:0.5px;stroke-linecap:butt;stroke-linejoin:miter;stroke-opacity:1;"/>
<path class="bond-17 atom-17 atom-18" d="M 160.0,154.9 L 162.1,172.1" style="fill:none;fill-rule:evenodd;stroke:#000000;stroke-width:2.0px;stroke-linecap:butt;stroke-linejoin:miter;stroke-opacity:1"/>
<path class="bond-17 atom-17 atom-18" d="M 162.1,172.1 L 163.9,186.4" style="fill:none;fill-rule:evenodd;stroke:#FF0000;stroke-width:2.0px;stroke-linecap:butt;stroke-linejoin:miter;stroke-opacity:1"/>
<path class="bond-18 atom-4 atom-19" d="M 106.2,93.7 L 108.9,80.3 L 111.4,81.0 Z" style="fill:#000000;fill-rule:evenodd;fill-opacity:1;stroke:#000000;stroke-width:0.5px;stroke-linecap:butt;stroke-linejoin:miter;stroke-opacity:1;"/>
<path class="bond-18 atom-4 atom-19" d="M 108.9,80.3 L 116.6,68.4 L 111.6,66.9 Z" style="fill:#FF0000;fill-rule:evenodd;fill-opacity:1;stroke:#FF0000;stroke-width:0.5px;stroke-linecap:butt;stroke-linejoin:miter;stroke-opacity:1;"/>
<path class="bond-18 atom-4 atom-19" d="M 108.9,80.3 L 111.4,81.0 L 116.6,68.4 Z" style="fill:#FF0000;fill-rule:evenodd;fill-opacity:1;stroke:#FF0000;stroke-width:0.5px;stroke-linecap:butt;stroke-linejoin:miter;stroke-opacity:1;"/>
<path class="bond-19 atom-3 atom-20" d="M 69.4,99.3 L 70.0,98.8" style="fill:none;fill-rule:evenodd;stroke:#000000;stroke-width:1.0px;stroke-linecap:butt;stroke-linejoin:miter;stroke-opacity:1"/>
<path class="bond-19 atom-3 atom-20" d="M 66.7,97.0 L 67.8,95.9" style="fill:none;fill-rule:evenodd;stroke:#000000;stroke-width:1.0px;stroke-linecap:butt;stroke-linejoin:miter;stroke-opacity:1"/>
<path class="bond-19 atom-3 atom-20" d="M 64.0,94.6 L 65.6,93.1" style="fill:none;fill-rule:evenodd;stroke:#000000;stroke-width:1.0px;stroke-linecap:butt;stroke-linejoin:miter;stroke-opacity:1"/>
<path class="bond-19 atom-3 atom-20" d="M 61.3,92.3 L 63.5,90.2" style="fill:none;fill-rule:evenodd;stroke:#FF0000;stroke-width:1.0px;stroke-linecap:butt;stroke-linejoin:miter;stroke-opacity:1"/>
<path class="bond-19 atom-3 atom-20" d="M 58.6,89.9 L 61.3,87.4" style="fill:none;fill-rule:evenodd;stroke:#FF0000;stroke-width:1.0px;stroke-linecap:butt;stroke-linejoin:miter;stroke-opacity:1"/>
<path class="bond-19 atom-3 atom-20" d="M 55.8,87.6 L 59.1,84.5" style="fill:none;fill-rule:evenodd;stroke:#FF0000;stroke-width:1.0px;stroke-linecap:butt;stroke-linejoin:miter;stroke-opacity:1"/>
<path class="bond-19 atom-3 atom-20" d="M 53.1,85.2 L 57.0,81.6" style="fill:none;fill-rule:evenodd;stroke:#FF0000;stroke-width:1.0px;stroke-linecap:butt;stroke-linejoin:miter;stroke-opacity:1"/>
<path class="bond-20 atom-2 atom-21" d="M 62.0,135.2 L 48.7,139.6 L 48.1,137.1 Z" style="fill:#000000;fill-rule:evenodd;fill-opacity:1;stroke:#000000;stroke-width:0.5px;stroke-linecap:butt;stroke-linejoin:miter;stroke-opacity:1;"/>
<path class="bond-20 atom-2 atom-21" d="M 48.7,139.6 L 34.2,139.0 L 35.4,144.1 Z" style="fill:#FF0000;fill-rule:evenodd;fill-opacity:1;stroke:#FF0000;stroke-width:0.5px;stroke-linecap:butt;stroke-linejoin:miter;stroke-opacity:1;"/>
<path class="bond-20 atom-2 atom-21" d="M 48.7,139.6 L 48.1,137.1 L 34.2,139.0 Z" style="fill:#FF0000;fill-rule:evenodd;fill-opacity:1;stroke:#FF0000;stroke-width:0.5px;stroke-linecap:butt;stroke-linejoin:miter;stroke-opacity:1;"/>
<path class="bond-21 atom-0 atom-22" d="M 75.9,194.2 L 85.0,203.9" style="fill:none;fill-rule:evenodd;stroke:#000000;stroke-width:2.0px;stroke-linecap:butt;stroke-linejoin:miter;stroke-opacity:1"/>
<path class="bond-21 atom-0 atom-22" d="M 85.0,203.9 L 94.2,213.6" style="fill:none;fill-rule:evenodd;stroke:#FF0000;stroke-width:2.0px;stroke-linecap:butt;stroke-linejoin:miter;stroke-opacity:1"/>
<path class="bond-22 atom-6 atom-1" d="M 114.4,154.0 L 100.2,157.3" style="fill:none;fill-rule:evenodd;stroke:#FF0000;stroke-width:2.0px;stroke-linecap:butt;stroke-linejoin:miter;stroke-opacity:1"/>
<path class="bond-22 atom-6 atom-1" d="M 100.2,157.3 L 86.0,160.7" style="fill:none;fill-rule:evenodd;stroke:#000000;stroke-width:2.0px;stroke-linecap:butt;stroke-linejoin:miter;stroke-opacity:1"/>
<path class="bond-23 atom-12 atom-8" d="M 205.6,116.5 L 196.9,126.6" style="fill:none;fill-rule:evenodd;stroke:#FF0000;stroke-width:2.0px;stroke-linecap:butt;stroke-linejoin:miter;stroke-opacity:1"/>
<path class="bond-23 atom-12 atom-8" d="M 196.9,126.6 L 188.2,136.7" style="fill:none;fill-rule:evenodd;stroke:#000000;stroke-width:2.0px;stroke-linecap:butt;stroke-linejoin:miter;stroke-opacity:1"/>
<path d="M 84.8,159.4 L 86.0,160.7 L 86.7,160.5" style="fill:none;stroke:#000000;stroke-width:2.0px;stroke-linecap:butt;stroke-linejoin:miter;stroke-opacity:1;"/>
<path d="M 63.2,136.4 L 62.0,135.2 L 62.5,133.5" style="fill:none;stroke:#000000;stroke-width:2.0px;stroke-linecap:butt;stroke-linejoin:miter;stroke-opacity:1;"/>
<path d="M 71.6,103.3 L 72.1,101.6 L 73.9,101.2" style="fill:none;stroke:#000000;stroke-width:2.0px;stroke-linecap:butt;stroke-linejoin:miter;stroke-opacity:1;"/>
<path d="M 104.5,94.1 L 106.2,93.7 L 107.4,94.9" style="fill:none;stroke:#000000;stroke-width:2.0px;stroke-linecap:butt;stroke-linejoin:miter;stroke-opacity:1;"/>
<path d="M 129.0,117.9 L 130.2,119.2 L 130.0,119.8" style="fill:none;stroke:#000000;stroke-width:2.0px;stroke-linecap:butt;stroke-linejoin:miter;stroke-opacity:1;"/>
<path d="M 205.4,165.1 L 206.3,166.6 L 208.0,166.2" style="fill:none;stroke:#000000;stroke-width:2.0px;stroke-linecap:butt;stroke-linejoin:miter;stroke-opacity:1;"/>
<path d="M 238.7,159.0 L 240.4,158.6 L 240.6,156.8" style="fill:none;stroke:#000000;stroke-width:2.0px;stroke-linecap:butt;stroke-linejoin:miter;stroke-opacity:1;"/>
<path d="M 243.2,125.5 L 243.3,123.7 L 242.7,123.4" style="fill:none;stroke:#000000;stroke-width:2.0px;stroke-linecap:butt;stroke-linejoin:miter;stroke-opacity:1;"/>
<path class="atom-6" d="M 115.5 152.7 Q 115.5 150.3, 116.7 149.0 Q 117.9 147.6, 120.1 147.6 Q 122.3 147.6, 123.4 149.0 Q 124.6 150.3, 124.6 152.7 Q 124.6 155.1, 123.4 156.5 Q 122.2 157.8, 120.1 157.8 Q 117.9 157.8, 116.7 156.5 Q 115.5 155.1, 115.5 152.7 M 120.1 156.7 Q 121.6 156.7, 122.4 155.7 Q 123.2 154.7, 123.2 152.7 Q 123.2 150.7, 122.4 149.8 Q 121.6 148.8, 120.1 148.8 Q 118.6 148.8, 117.7 149.7 Q 116.9 150.7, 116.9 152.7 Q 116.9 154.7, 117.7 155.7 Q 118.6 156.7, 120.1 156.7 " fill="#FF0000"/>
<path class="atom-7" d="M 159.7 111.2 Q 159.7 108.8, 160.9 107.5 Q 162.0 106.1, 164.2 106.1 Q 166.4 106.1, 167.6 107.5 Q 168.8 108.8, 168.8 111.2 Q 168.8 113.6, 167.6 115.0 Q 166.4 116.3, 164.2 116.3 Q 162.1 116.3, 160.9 115.0 Q 159.7 113.6, 159.7 111.2 M 164.2 115.2 Q 165.8 115.2, 166.6 114.2 Q 167.4 113.2, 167.4 111.2 Q 167.4 109.2, 166.6 108.3 Q 165.8 107.3, 164.2 107.3 Q 162.7 107.3, 161.9 108.2 Q 161.1 109.2, 161.1 111.2 Q 161.1 113.2, 161.9 114.2 Q 162.7 115.2, 164.2 115.2 " fill="#FF0000"/>
<path class="atom-12" d="M 206.5 110.2 Q 206.5 107.8, 207.7 106.5 Q 208.9 105.2, 211.1 105.2 Q 213.3 105.2, 214.4 106.5 Q 215.6 107.8, 215.6 110.2 Q 215.6 112.6, 214.4 114.0 Q 213.2 115.3, 211.1 115.3 Q 208.9 115.3, 207.7 114.0 Q 206.5 112.6, 206.5 110.2 M 211.1 114.2 Q 212.6 114.2, 213.4 113.2 Q 214.2 112.2, 214.2 110.2 Q 214.2 108.2, 213.4 107.3 Q 212.6 106.3, 211.1 106.3 Q 209.6 106.3, 208.7 107.3 Q 207.9 108.2, 207.9 110.2 Q 207.9 112.2, 208.7 113.2 Q 209.6 114.2, 211.1 114.2 " fill="#FF0000"/>
<path class="atom-14" d="M 268.0 70.6 Q 268.0 68.2, 269.1 66.9 Q 270.3 65.6, 272.5 65.6 Q 274.7 65.6, 275.9 66.9 Q 277.1 68.2, 277.1 70.6 Q 277.1 73.0, 275.9 74.4 Q 274.7 75.8, 272.5 75.8 Q 270.3 75.8, 269.1 74.4 Q 268.0 73.0, 268.0 70.6 M 272.5 74.6 Q 274.0 74.6, 274.8 73.6 Q 275.7 72.6, 275.7 70.6 Q 275.7 68.7, 274.8 67.7 Q 274.0 66.7, 272.5 66.7 Q 271.0 66.7, 270.2 67.7 Q 269.4 68.7, 269.4 70.6 Q 269.4 72.6, 270.2 73.6 Q 271.0 74.6, 272.5 74.6 " fill="#FF0000"/>
<path class="atom-14" d="M 278.6 65.7 L 280.0 65.7 L 280.0 69.9 L 285.0 69.9 L 285.0 65.7 L 286.4 65.7 L 286.4 75.6 L 285.0 75.6 L 285.0 71.0 L 280.0 71.0 L 280.0 75.6 L 278.6 75.6 L 278.6 65.7 " fill="#FF0000"/>
<path class="atom-15" d="M 262.4 181.5 Q 262.4 179.1, 263.5 177.8 Q 264.7 176.4, 266.9 176.4 Q 269.1 176.4, 270.3 177.8 Q 271.5 179.1, 271.5 181.5 Q 271.5 183.9, 270.3 185.3 Q 269.1 186.6, 266.9 186.6 Q 264.7 186.6, 263.5 185.3 Q 262.4 183.9, 262.4 181.5 M 266.9 185.5 Q 268.4 185.5, 269.2 184.5 Q 270.1 183.5, 270.1 181.5 Q 270.1 179.5, 269.2 178.6 Q 268.4 177.6, 266.9 177.6 Q 265.4 177.6, 264.6 178.5 Q 263.8 179.5, 263.8 181.5 Q 263.8 183.5, 264.6 184.5 Q 265.4 185.5, 266.9 185.5 " fill="#FF0000"/>
<path class="atom-15" d="M 273.0 176.6 L 274.3 176.6 L 274.3 180.8 L 279.4 180.8 L 279.4 176.6 L 280.8 176.6 L 280.8 186.5 L 279.4 186.5 L 279.4 181.9 L 274.3 181.9 L 274.3 186.5 L 273.0 186.5 L 273.0 176.6 " fill="#FF0000"/>
<path class="atom-16" d="M 178.5 194.0 L 179.8 194.0 L 179.8 198.2 L 184.9 198.2 L 184.9 194.0 L 186.2 194.0 L 186.2 203.9 L 184.9 203.9 L 184.9 199.3 L 179.8 199.3 L 179.8 203.9 L 178.5 203.9 L 178.5 194.0 " fill="#FF0000"/>
<path class="atom-16" d="M 188.2 198.9 Q 188.2 196.5, 189.4 195.2 Q 190.6 193.8, 192.8 193.8 Q 195.0 193.8, 196.2 195.2 Q 197.3 196.5, 197.3 198.9 Q 197.3 201.3, 196.1 202.7 Q 195.0 204.0, 192.8 204.0 Q 190.6 204.0, 189.4 202.7 Q 188.2 201.3, 188.2 198.9 M 192.8 202.9 Q 194.3 202.9, 195.1 201.9 Q 195.9 200.9, 195.9 198.9 Q 195.9 196.9, 195.1 196.0 Q 194.3 195.0, 192.8 195.0 Q 191.3 195.0, 190.4 195.9 Q 189.6 196.9, 189.6 198.9 Q 189.6 200.9, 190.4 201.9 Q 191.3 202.9, 192.8 202.9 " fill="#FF0000"/>
<path class="atom-18" d="M 160.2 192.6 Q 160.2 190.2, 161.4 188.9 Q 162.5 187.5, 164.7 187.5 Q 166.9 187.5, 168.1 188.9 Q 169.3 190.2, 169.3 192.6 Q 169.3 195.0, 168.1 196.3 Q 166.9 197.7, 164.7 197.7 Q 162.5 197.7, 161.4 196.3 Q 160.2 195.0, 160.2 192.6 M 164.7 196.6 Q 166.2 196.6, 167.1 195.6 Q 167.9 194.6, 167.9 192.6 Q 167.9 190.6, 167.1 189.6 Q 166.2 188.7, 164.7 188.7 Q 163.2 188.7, 162.4 189.6 Q 161.6 190.6, 161.6 192.6 Q 161.6 194.6, 162.4 195.6 Q 163.2 196.6, 164.7 196.6 " fill="#FF0000"/>
<path class="atom-18" d="M 170.8 187.6 L 172.2 187.6 L 172.2 191.9 L 177.2 191.9 L 177.2 187.6 L 178.6 187.6 L 178.6 197.6 L 177.2 197.6 L 177.2 193.0 L 172.2 193.0 L 172.2 197.6 L 170.8 197.6 L 170.8 187.6 " fill="#FF0000"/>
<path class="atom-19" d="M 111.8 60.2 Q 111.8 57.8, 112.9 56.5 Q 114.1 55.1, 116.3 55.1 Q 118.5 55.1, 119.7 56.5 Q 120.9 57.8, 120.9 60.2 Q 120.9 62.6, 119.7 64.0 Q 118.5 65.3, 116.3 65.3 Q 114.1 65.3, 112.9 64.0 Q 111.8 62.6, 111.8 60.2 M 116.3 64.2 Q 117.8 64.2, 118.6 63.2 Q 119.5 62.2, 119.5 60.2 Q 119.5 58.2, 118.6 57.3 Q 117.8 56.3, 116.3 56.3 Q 114.8 56.3, 114.0 57.2 Q 113.2 58.2, 113.2 60.2 Q 113.2 62.2, 114.0 63.2 Q 114.8 64.2, 116.3 64.2 " fill="#FF0000"/>
<path class="atom-19" d="M 122.4 55.2 L 123.8 55.2 L 123.8 59.5 L 128.8 59.5 L 128.8 55.2 L 130.2 55.2 L 130.2 65.2 L 128.8 65.2 L 128.8 60.6 L 123.8 60.6 L 123.8 65.2 L 122.4 65.2 L 122.4 55.2 " fill="#FF0000"/>
<path class="atom-20" d="M 33.9 71.2 L 35.2 71.2 L 35.2 75.5 L 40.3 75.5 L 40.3 71.2 L 41.6 71.2 L 41.6 81.2 L 40.3 81.2 L 40.3 76.6 L 35.2 76.6 L 35.2 81.2 L 33.9 81.2 L 33.9 71.2 " fill="#FF0000"/>
<path class="atom-20" d="M 43.6 76.2 Q 43.6 73.8, 44.8 72.5 Q 46.0 71.1, 48.2 71.1 Q 50.4 71.1, 51.6 72.5 Q 52.7 73.8, 52.7 76.2 Q 52.7 78.6, 51.5 80.0 Q 50.4 81.3, 48.2 81.3 Q 46.0 81.3, 44.8 80.0 Q 43.6 78.6, 43.6 76.2 M 48.2 80.2 Q 49.7 80.2, 50.5 79.2 Q 51.3 78.2, 51.3 76.2 Q 51.3 74.2, 50.5 73.2 Q 49.7 72.3, 48.2 72.3 Q 46.7 72.3, 45.8 73.2 Q 45.0 74.2, 45.0 76.2 Q 45.0 78.2, 45.8 79.2 Q 46.7 80.2, 48.2 80.2 " fill="#FF0000"/>
<path class="atom-21" d="M 13.6 138.3 L 15.0 138.3 L 15.0 142.5 L 20.0 142.5 L 20.0 138.3 L 21.4 138.3 L 21.4 148.2 L 20.0 148.2 L 20.0 143.6 L 15.0 143.6 L 15.0 148.2 L 13.6 148.2 L 13.6 138.3 " fill="#FF0000"/>
<path class="atom-21" d="M 23.4 143.2 Q 23.4 140.8, 24.6 139.5 Q 25.8 138.1, 28.0 138.1 Q 30.2 138.1, 31.3 139.5 Q 32.5 140.8, 32.5 143.2 Q 32.5 145.6, 31.3 147.0 Q 30.1 148.3, 28.0 148.3 Q 25.8 148.3, 24.6 147.0 Q 23.4 145.6, 23.4 143.2 M 28.0 147.2 Q 29.5 147.2, 30.3 146.2 Q 31.1 145.2, 31.1 143.2 Q 31.1 141.2, 30.3 140.3 Q 29.5 139.3, 28.0 139.3 Q 26.5 139.3, 25.6 140.2 Q 24.8 141.2, 24.8 143.2 Q 24.8 145.2, 25.6 146.2 Q 26.5 147.2, 28.0 147.2 " fill="#FF0000"/>
<path class="atom-22" d="M 95.3 219.7 Q 95.3 217.3, 96.5 216.0 Q 97.7 214.7, 99.9 214.7 Q 102.1 214.7, 103.2 216.0 Q 104.4 217.3, 104.4 219.7 Q 104.4 222.1, 103.2 223.5 Q 102.0 224.8, 99.9 224.8 Q 97.7 224.8, 96.5 223.5 Q 95.3 222.1, 95.3 219.7 M 99.9 223.7 Q 101.4 223.7, 102.2 222.7 Q 103.0 221.7, 103.0 219.7 Q 103.0 217.7, 102.2 216.8 Q 101.4 215.8, 99.9 215.8 Q 98.3 215.8, 97.5 216.8 Q 96.7 217.7, 96.7 219.7 Q 96.7 221.7, 97.5 222.7 Q 98.3 223.7, 99.9 223.7 " fill="#FF0000"/>
<path class="atom-22" d="M 105.9 214.8 L 107.3 214.8 L 107.3 219.0 L 112.4 219.0 L 112.4 214.8 L 113.7 214.8 L 113.7 224.7 L 112.4 224.7 L 112.4 220.1 L 107.3 220.1 L 107.3 224.7 L 105.9 224.7 L 105.9 214.8 " fill="#FF0000"/>
<path class="note" d="M 70.2 198.1 Q 69.3 198.1, 68.9 197.4 Q 68.4 196.7, 68.4 195.5 Q 68.4 194.3, 68.9 193.7 Q 69.3 193.0, 70.2 193.0 Q 71.1 193.0, 71.6 193.7 Q 72.0 194.3, 72.0 195.5 Q 72.0 196.7, 71.6 197.4 Q 71.1 198.1, 70.2 198.1 M 70.2 197.5 Q 70.8 197.5, 71.0 197.0 Q 71.3 196.5, 71.3 195.5 Q 71.3 194.5, 71.0 194.0 Q 70.8 193.5, 70.2 193.5 Q 69.7 193.5, 69.4 194.0 Q 69.1 194.5, 69.1 195.5 Q 69.1 196.5, 69.4 197.0 Q 69.7 197.5, 70.2 197.5 " fill="#000000"/>
<path class="note" d="M 79.1 163.9 L 80.2 163.9 L 80.2 160.2 L 79.0 160.6 L 78.8 160.2 L 80.3 159.5 L 80.8 159.6 L 80.8 163.9 L 81.8 163.9 L 81.8 164.5 L 79.1 164.5 L 79.1 163.9 " fill="#000000"/>
<path class="note" d="M 66.1 132.3 Q 66.2 131.8, 66.7 131.6 Q 67.1 131.3, 67.7 131.3 Q 68.5 131.3, 68.9 131.7 Q 69.3 132.1, 69.3 132.8 Q 69.3 133.6, 68.8 134.3 Q 68.2 135.0, 67.1 135.8 L 69.4 135.8 L 69.4 136.3 L 66.0 136.3 L 66.0 135.9 Q 67.0 135.2, 67.5 134.7 Q 68.1 134.2, 68.3 133.8 Q 68.6 133.3, 68.6 132.9 Q 68.6 132.4, 68.4 132.1 Q 68.1 131.9, 67.7 131.9 Q 67.3 131.9, 67.1 132.0 Q 66.8 132.2, 66.6 132.6 L 66.1 132.3 " fill="#000000"/>
<path class="note" d="M 76.9 105.8 Q 77.3 105.9, 77.6 106.2 Q 77.8 106.6, 77.8 107.0 Q 77.8 107.5, 77.6 107.8 Q 77.4 108.1, 77.0 108.3 Q 76.6 108.5, 76.1 108.5 Q 75.6 108.5, 75.2 108.3 Q 74.8 108.1, 74.5 107.7 L 74.9 107.3 Q 75.2 107.7, 75.4 107.8 Q 75.7 107.9, 76.1 107.9 Q 76.6 107.9, 76.8 107.7 Q 77.1 107.4, 77.1 107.0 Q 77.1 106.5, 76.8 106.3 Q 76.5 106.1, 75.9 106.1 L 75.6 106.1 L 75.6 105.6 L 75.9 105.6 Q 76.4 105.6, 76.7 105.3 Q 77.0 105.1, 77.0 104.7 Q 77.0 104.3, 76.8 104.2 Q 76.5 104.0, 76.1 104.0 Q 75.7 104.0, 75.4 104.1 Q 75.2 104.2, 75.0 104.6 L 74.5 104.4 Q 74.7 103.9, 75.1 103.7 Q 75.5 103.4, 76.1 103.4 Q 76.8 103.4, 77.3 103.7 Q 77.7 104.1, 77.7 104.7 Q 77.7 105.1, 77.5 105.3 Q 77.3 105.6, 76.9 105.8 " fill="#000000"/>
<path class="note" d="M 105.8 100.0 L 106.4 100.0 L 106.4 100.6 L 105.8 100.6 L 105.8 101.7 L 105.2 101.7 L 105.2 100.6 L 102.6 100.6 L 102.6 100.1 L 104.8 96.8 L 105.8 96.8 L 105.8 100.0 M 103.4 100.0 L 105.2 100.0 L 105.2 97.2 L 103.4 100.0 " fill="#000000"/>
<path class="note" d="M 124.6 119.9 Q 125.1 119.9, 125.4 120.1 Q 125.8 120.2, 126.0 120.6 Q 126.2 120.9, 126.2 121.4 Q 126.2 121.9, 125.9 122.3 Q 125.7 122.6, 125.3 122.8 Q 124.9 123.0, 124.4 123.0 Q 123.9 123.0, 123.5 122.9 Q 123.1 122.7, 122.8 122.4 L 123.2 121.9 Q 123.5 122.2, 123.8 122.3 Q 124.1 122.5, 124.4 122.5 Q 124.9 122.5, 125.2 122.2 Q 125.5 121.9, 125.5 121.4 Q 125.5 120.9, 125.2 120.6 Q 124.9 120.4, 124.4 120.4 Q 123.9 120.4, 123.5 120.6 L 123.1 120.4 L 123.3 118.0 L 125.9 118.0 L 125.8 118.6 L 123.9 118.6 L 123.7 120.0 Q 124.2 119.9, 124.6 119.9 " fill="#000000"/>
<path class="note" d="M 123.0 163.4 Q 123.4 163.4, 123.7 163.6 Q 124.1 163.8, 124.3 164.1 Q 124.5 164.5, 124.5 164.9 Q 124.5 165.4, 124.2 165.8 Q 124.0 166.2, 123.6 166.4 Q 123.3 166.6, 122.8 166.6 Q 121.9 166.6, 121.5 166.0 Q 121.0 165.4, 121.0 164.2 Q 121.0 162.9, 121.6 162.2 Q 122.1 161.5, 123.2 161.5 Q 123.5 161.5, 123.7 161.6 Q 124.0 161.6, 124.3 161.8 L 124.0 162.3 Q 123.6 162.1, 123.2 162.1 Q 122.5 162.1, 122.1 162.5 Q 121.8 163.0, 121.7 163.9 Q 122.0 163.7, 122.3 163.6 Q 122.6 163.4, 123.0 163.4 M 122.8 166.0 Q 123.1 166.0, 123.3 165.9 Q 123.5 165.7, 123.6 165.5 Q 123.8 165.2, 123.8 164.9 Q 123.8 164.5, 123.5 164.2 Q 123.3 164.0, 122.8 164.0 Q 122.5 164.0, 122.2 164.1 Q 121.9 164.2, 121.7 164.4 Q 121.8 165.3, 122.0 165.6 Q 122.3 166.0, 122.8 166.0 " fill="#000000"/>
<path class="note" d="M 168.6 98.1 L 166.0 98.1 L 166.0 97.5 L 169.3 97.5 L 169.3 98.0 L 167.3 102.5 L 166.6 102.5 L 168.6 98.1 " fill="#000000"/>
<path class="note" d="M 177.4 138.0 Q 177.9 138.2, 178.1 138.5 Q 178.4 138.8, 178.4 139.3 Q 178.4 139.7, 178.2 140.0 Q 177.9 140.3, 177.6 140.5 Q 177.2 140.7, 176.7 140.7 Q 175.8 140.7, 175.4 140.3 Q 174.9 139.9, 174.9 139.3 Q 174.9 138.9, 175.1 138.6 Q 175.3 138.3, 175.7 138.0 Q 175.4 137.8, 175.2 137.6 Q 175.1 137.3, 175.1 136.9 Q 175.1 136.3, 175.5 136.0 Q 175.9 135.6, 176.6 135.6 Q 177.4 135.6, 177.8 136.0 Q 178.2 136.3, 178.2 136.9 Q 178.2 137.3, 178.0 137.5 Q 177.8 137.8, 177.4 138.0 M 176.6 136.1 Q 176.2 136.1, 176.0 136.3 Q 175.8 136.5, 175.8 136.9 Q 175.8 137.1, 175.9 137.3 Q 176.1 137.5, 176.3 137.6 Q 176.5 137.7, 176.9 137.8 Q 177.2 137.6, 177.4 137.4 Q 177.5 137.2, 177.5 136.9 Q 177.5 136.5, 177.3 136.3 Q 177.0 136.1, 176.6 136.1 M 176.7 140.2 Q 177.1 140.2, 177.4 139.9 Q 177.7 139.7, 177.7 139.3 Q 177.7 139.0, 177.5 138.8 Q 177.4 138.7, 177.2 138.6 Q 176.9 138.5, 176.6 138.3 L 176.2 138.2 Q 175.9 138.4, 175.7 138.7 Q 175.6 138.9, 175.6 139.3 Q 175.6 139.7, 175.9 139.9 Q 176.2 140.2, 176.7 140.2 " fill="#000000"/>
<path class="note" d="M 208.5 158.7 Q 209.4 158.7, 209.9 159.3 Q 210.3 159.9, 210.3 161.1 Q 210.3 162.4, 209.8 163.1 Q 209.2 163.8, 208.2 163.8 Q 207.9 163.8, 207.6 163.7 Q 207.3 163.6, 207.1 163.5 L 207.3 163.0 Q 207.7 163.2, 208.2 163.2 Q 208.9 163.2, 209.2 162.8 Q 209.6 162.3, 209.6 161.4 Q 209.4 161.6, 209.0 161.7 Q 208.7 161.9, 208.4 161.9 Q 207.9 161.9, 207.6 161.7 Q 207.3 161.5, 207.1 161.1 Q 206.9 160.8, 206.9 160.4 Q 206.9 159.9, 207.1 159.5 Q 207.3 159.1, 207.7 158.9 Q 208.1 158.7, 208.5 158.7 M 207.6 160.4 Q 207.6 160.8, 207.8 161.0 Q 208.1 161.3, 208.5 161.3 Q 208.8 161.3, 209.1 161.2 Q 209.4 161.1, 209.6 160.8 Q 209.6 160.0, 209.3 159.7 Q 209.1 159.3, 208.5 159.3 Q 208.3 159.3, 208.0 159.4 Q 207.8 159.6, 207.7 159.8 Q 207.6 160.1, 207.6 160.4 " fill="#000000"/>
<path class="note" d="M 228.2 152.9 L 229.3 152.9 L 229.3 149.2 L 228.1 149.6 L 228.0 149.2 L 229.5 148.5 L 230.0 148.6 L 230.0 152.9 L 230.9 152.9 L 230.9 153.5 L 228.2 153.5 L 228.2 152.9 " fill="#000000"/>
<path class="note" d="M 233.4 153.5 Q 232.5 153.5, 232.0 152.9 Q 231.6 152.2, 231.6 151.0 Q 231.6 149.8, 232.0 149.1 Q 232.5 148.5, 233.4 148.5 Q 234.3 148.5, 234.7 149.1 Q 235.2 149.8, 235.2 151.0 Q 235.2 152.2, 234.7 152.9 Q 234.3 153.5, 233.4 153.5 M 233.4 153.0 Q 233.9 153.0, 234.2 152.5 Q 234.5 152.0, 234.5 151.0 Q 234.5 150.0, 234.2 149.5 Q 233.9 149.0, 233.4 149.0 Q 232.9 149.0, 232.6 149.5 Q 232.3 150.0, 232.3 151.0 Q 232.3 152.0, 232.6 152.5 Q 232.9 153.0, 233.4 153.0 " fill="#000000"/>
<path class="note" d="M 230.3 131.7 L 231.4 131.7 L 231.4 128.0 L 230.2 128.4 L 230.1 128.0 L 231.6 127.3 L 232.1 127.4 L 232.1 131.7 L 233.1 131.7 L 233.1 132.3 L 230.3 132.3 L 230.3 131.7 " fill="#000000"/>
<path class="note" d="M 233.9 131.7 L 235.0 131.7 L 235.0 128.0 L 233.8 128.4 L 233.6 128.0 L 235.2 127.3 L 235.7 127.4 L 235.7 131.7 L 236.6 131.7 L 236.6 132.3 L 233.9 132.3 L 233.9 131.7 " fill="#000000"/>
<path class="note" d="M 205.2 100.8 L 206.3 100.8 L 206.3 97.1 L 205.1 97.4 L 204.9 97.0 L 206.4 96.3 L 206.9 96.4 L 206.9 100.8 L 207.9 100.8 L 207.9 101.3 L 205.2 101.3 L 205.2 100.8 " fill="#000000"/>
<path class="note" d="M 208.5 97.3 Q 208.7 96.8, 209.2 96.6 Q 209.6 96.3, 210.2 96.3 Q 210.9 96.3, 211.4 96.7 Q 211.8 97.1, 211.8 97.8 Q 211.8 98.6, 211.2 99.3 Q 210.7 99.9, 209.6 100.8 L 211.9 100.8 L 211.9 101.3 L 208.5 101.3 L 208.5 100.8 Q 209.5 100.2, 210.0 99.7 Q 210.6 99.2, 210.8 98.8 Q 211.1 98.3, 211.1 97.9 Q 211.1 97.4, 210.8 97.1 Q 210.6 96.9, 210.2 96.9 Q 209.8 96.9, 209.5 97.0 Q 209.3 97.2, 209.1 97.5 L 208.5 97.3 " fill="#000000"/>
<path class="note" d="M 275.1 104.5 L 276.1 104.5 L 276.1 100.8 L 274.9 101.2 L 274.8 100.8 L 276.3 100.1 L 276.8 100.2 L 276.8 104.5 L 277.8 104.5 L 277.8 105.1 L 275.1 105.1 L 275.1 104.5 " fill="#000000"/>
<path class="note" d="M 280.8 102.5 Q 281.2 102.6, 281.5 102.9 Q 281.7 103.2, 281.7 103.7 Q 281.7 104.1, 281.5 104.5 Q 281.3 104.8, 280.9 105.0 Q 280.5 105.1, 280.0 105.1 Q 279.5 105.1, 279.1 105.0 Q 278.7 104.8, 278.4 104.4 L 278.8 104.0 Q 279.1 104.3, 279.3 104.5 Q 279.6 104.6, 280.0 104.6 Q 280.5 104.6, 280.7 104.3 Q 281.0 104.1, 281.0 103.7 Q 281.0 103.2, 280.7 103.0 Q 280.4 102.7, 279.8 102.7 L 279.5 102.7 L 279.5 102.2 L 279.8 102.2 Q 280.3 102.2, 280.6 102.0 Q 280.9 101.8, 280.9 101.3 Q 280.9 101.0, 280.7 100.8 Q 280.4 100.6, 280.0 100.6 Q 279.6 100.6, 279.4 100.8 Q 279.1 100.9, 278.9 101.3 L 278.4 101.0 Q 278.6 100.6, 279.0 100.3 Q 279.4 100.1, 280.0 100.1 Q 280.8 100.1, 281.2 100.4 Q 281.6 100.7, 281.6 101.3 Q 281.6 101.7, 281.4 102.0 Q 281.2 102.3, 280.8 102.5 " fill="#000000"/>
<path class="note" d="M 268.8 60.9 L 269.9 60.9 L 269.9 57.2 L 268.7 57.5 L 268.6 57.1 L 270.1 56.4 L 270.6 56.5 L 270.6 60.9 L 271.5 60.9 L 271.5 61.4 L 268.8 61.4 L 268.8 60.9 " fill="#000000"/>
<path class="note" d="M 275.4 59.7 L 276.0 59.7 L 276.0 60.3 L 275.4 60.3 L 275.4 61.4 L 274.7 61.4 L 274.7 60.3 L 272.2 60.3 L 272.2 59.8 L 274.3 56.5 L 275.4 56.5 L 275.4 59.7 M 273.0 59.7 L 274.7 59.7 L 274.7 56.9 L 273.0 59.7 " fill="#000000"/>
<path class="note" d="M 267.5 194.4 L 268.6 194.4 L 268.6 190.7 L 267.4 191.1 L 267.3 190.7 L 268.8 190.0 L 269.3 190.1 L 269.3 194.4 L 270.3 194.4 L 270.3 195.0 L 267.5 195.0 L 267.5 194.4 " fill="#000000"/>
<path class="note" d="M 272.7 191.9 Q 273.1 191.9, 273.5 192.0 Q 273.8 192.2, 274.0 192.6 Q 274.2 192.9, 274.2 193.4 Q 274.2 193.9, 274.0 194.3 Q 273.7 194.6, 273.3 194.8 Q 272.9 195.0, 272.4 195.0 Q 272.0 195.0, 271.6 194.8 Q 271.2 194.7, 270.9 194.4 L 271.3 193.9 Q 271.5 194.2, 271.8 194.3 Q 272.1 194.4, 272.5 194.4 Q 272.9 194.4, 273.2 194.2 Q 273.5 193.9, 273.5 193.4 Q 273.5 192.9, 273.2 192.6 Q 272.9 192.4, 272.4 192.4 Q 272.0 192.4, 271.5 192.6 L 271.1 192.4 L 271.4 190.0 L 273.9 190.0 L 273.8 190.6 L 271.9 190.6 L 271.8 192.0 Q 272.2 191.9, 272.7 191.9 " fill="#000000"/>
<path class="note" d="M 185.0 211.6 L 186.1 211.6 L 186.1 207.9 L 184.9 208.2 L 184.7 207.8 L 186.3 207.1 L 186.8 207.2 L 186.8 211.6 L 187.7 211.6 L 187.7 212.1 L 185.0 212.1 L 185.0 211.6 " fill="#000000"/>
<path class="note" d="M 190.3 209.0 Q 190.7 209.0, 191.1 209.2 Q 191.4 209.4, 191.6 209.7 Q 191.8 210.1, 191.8 210.5 Q 191.8 211.0, 191.6 211.4 Q 191.4 211.7, 191.0 212.0 Q 190.6 212.2, 190.1 212.2 Q 189.2 212.2, 188.8 211.6 Q 188.4 211.0, 188.4 209.8 Q 188.4 208.5, 188.9 207.8 Q 189.5 207.1, 190.5 207.1 Q 190.8 207.1, 191.1 207.2 Q 191.3 207.2, 191.6 207.4 L 191.3 207.9 Q 191.0 207.7, 190.5 207.7 Q 189.8 207.7, 189.5 208.1 Q 189.1 208.6, 189.1 209.5 Q 189.3 209.3, 189.6 209.1 Q 189.9 209.0, 190.3 209.0 M 190.1 211.6 Q 190.4 211.6, 190.6 211.5 Q 190.8 211.3, 191.0 211.1 Q 191.1 210.8, 191.1 210.5 Q 191.1 210.1, 190.8 209.8 Q 190.6 209.6, 190.2 209.6 Q 189.9 209.6, 189.6 209.7 Q 189.3 209.8, 189.1 210.0 Q 189.1 210.9, 189.3 211.2 Q 189.6 211.6, 190.1 211.6 " fill="#000000"/>
<path class="note" d="M 151.8 157.5 L 152.9 157.5 L 152.9 153.8 L 151.7 154.2 L 151.5 153.8 L 153.0 153.1 L 153.5 153.2 L 153.5 157.5 L 154.5 157.5 L 154.5 158.1 L 151.8 158.1 L 151.8 157.5 " fill="#000000"/>
<path class="note" d="M 157.7 153.7 L 155.1 153.7 L 155.1 153.1 L 158.4 153.1 L 158.4 153.6 L 156.4 158.1 L 155.7 158.1 L 157.7 153.7 " fill="#000000"/>
<path class="note" d="M 162.9 206.1 L 164.0 206.1 L 164.0 202.4 L 162.8 202.7 L 162.6 202.3 L 164.2 201.6 L 164.7 201.7 L 164.7 206.1 L 165.6 206.1 L 165.6 206.6 L 162.9 206.6 L 162.9 206.1 " fill="#000000"/>
<path class="note" d="M 168.8 204.0 Q 169.2 204.2, 169.5 204.5 Q 169.7 204.8, 169.7 205.3 Q 169.7 205.7, 169.5 206.0 Q 169.3 206.3, 168.9 206.5 Q 168.5 206.7, 168.0 206.7 Q 167.2 206.7, 166.7 206.3 Q 166.2 205.9, 166.2 205.3 Q 166.2 204.9, 166.5 204.6 Q 166.7 204.2, 167.1 204.0 Q 166.8 203.8, 166.6 203.6 Q 166.4 203.3, 166.4 202.9 Q 166.4 202.3, 166.9 202.0 Q 167.3 201.6, 168.0 201.6 Q 168.7 201.6, 169.1 202.0 Q 169.6 202.3, 169.6 202.9 Q 169.6 203.2, 169.4 203.5 Q 169.2 203.8, 168.8 204.0 M 168.0 202.1 Q 167.6 202.1, 167.4 202.3 Q 167.1 202.5, 167.1 202.9 Q 167.1 203.1, 167.3 203.3 Q 167.4 203.5, 167.7 203.6 Q 167.9 203.7, 168.3 203.8 Q 168.6 203.6, 168.7 203.4 Q 168.9 203.2, 168.9 202.9 Q 168.9 202.5, 168.6 202.3 Q 168.4 202.1, 168.0 202.1 M 168.0 206.2 Q 168.5 206.2, 168.8 205.9 Q 169.0 205.7, 169.0 205.3 Q 169.0 205.0, 168.9 204.8 Q 168.8 204.7, 168.5 204.6 Q 168.3 204.5, 167.9 204.3 L 167.6 204.2 Q 167.3 204.4, 167.1 204.7 Q 166.9 204.9, 166.9 205.3 Q 166.9 205.7, 167.2 205.9 Q 167.5 206.2, 168.0 206.2 " fill="#000000"/>
<path class="note" d="M 116.4 50.9 L 117.5 50.9 L 117.5 47.2 L 116.3 47.6 L 116.2 47.2 L 117.7 46.5 L 118.2 46.6 L 118.2 50.9 L 119.2 50.9 L 119.2 51.5 L 116.4 51.5 L 116.4 50.9 " fill="#000000"/>
<path class="note" d="M 121.4 46.5 Q 122.3 46.5, 122.8 47.1 Q 123.2 47.7, 123.2 48.9 Q 123.2 50.2, 122.7 50.9 Q 122.1 51.5, 121.1 51.5 Q 120.7 51.5, 120.5 51.5 Q 120.2 51.4, 120.0 51.3 L 120.2 50.8 Q 120.6 51.0, 121.0 51.0 Q 121.7 51.0, 122.1 50.5 Q 122.5 50.1, 122.5 49.1 Q 122.3 49.4, 121.9 49.5 Q 121.6 49.6, 121.3 49.6 Q 120.8 49.6, 120.5 49.4 Q 120.2 49.2, 120.0 48.9 Q 119.8 48.6, 119.8 48.1 Q 119.8 47.6, 120.0 47.3 Q 120.2 46.9, 120.6 46.7 Q 121.0 46.5, 121.4 46.5 M 120.5 48.1 Q 120.5 48.6, 120.7 48.8 Q 121.0 49.1, 121.4 49.1 Q 121.7 49.1, 122.0 48.9 Q 122.3 48.8, 122.5 48.6 Q 122.5 47.8, 122.2 47.4 Q 122.0 47.0, 121.4 47.0 Q 121.2 47.0, 120.9 47.2 Q 120.7 47.3, 120.6 47.6 Q 120.5 47.8, 120.5 48.1 " fill="#000000"/>
<path class="note" d="M 41.7 63.3 Q 41.9 62.8, 42.3 62.5 Q 42.7 62.3, 43.3 62.3 Q 44.1 62.3, 44.5 62.7 Q 44.9 63.1, 44.9 63.8 Q 44.9 64.6, 44.4 65.2 Q 43.8 65.9, 42.7 66.7 L 45.0 66.7 L 45.0 67.3 L 41.7 67.3 L 41.7 66.8 Q 42.6 66.2, 43.1 65.7 Q 43.7 65.2, 43.9 64.7 Q 44.2 64.3, 44.2 63.9 Q 44.2 63.4, 44.0 63.1 Q 43.7 62.8, 43.3 62.8 Q 42.9 62.8, 42.7 63.0 Q 42.4 63.2, 42.2 63.5 L 41.7 63.3 " fill="#000000"/>
<path class="note" d="M 47.6 67.4 Q 46.7 67.4, 46.2 66.7 Q 45.8 66.0, 45.8 64.8 Q 45.8 63.6, 46.2 62.9 Q 46.7 62.3, 47.6 62.3 Q 48.5 62.3, 48.9 62.9 Q 49.4 63.6, 49.4 64.8 Q 49.4 66.0, 48.9 66.7 Q 48.5 67.4, 47.6 67.4 M 47.6 66.8 Q 48.1 66.8, 48.4 66.3 Q 48.7 65.8, 48.7 64.8 Q 48.7 63.8, 48.4 63.3 Q 48.1 62.8, 47.6 62.8 Q 47.0 62.8, 46.7 63.3 Q 46.5 63.8, 46.5 64.8 Q 46.5 65.8, 46.7 66.3 Q 47.0 66.8, 47.6 66.8 " fill="#000000"/>
<path class="note" d="M 21.8 130.3 Q 22.0 129.8, 22.4 129.6 Q 22.8 129.3, 23.4 129.3 Q 24.2 129.3, 24.6 129.7 Q 25.0 130.1, 25.0 130.8 Q 25.0 131.6, 24.5 132.2 Q 23.9 132.9, 22.8 133.7 L 25.1 133.7 L 25.1 134.3 L 21.8 134.3 L 21.8 133.8 Q 22.7 133.2, 23.2 132.7 Q 23.8 132.2, 24.1 131.8 Q 24.3 131.3, 24.3 130.9 Q 24.3 130.4, 24.1 130.1 Q 23.9 129.8, 23.4 129.8 Q 23.0 129.8, 22.8 130.0 Q 22.5 130.2, 22.3 130.5 L 21.8 130.3 " fill="#000000"/>
<path class="note" d="M 26.1 133.7 L 27.2 133.7 L 27.2 130.0 L 26.0 130.4 L 25.8 130.0 L 27.4 129.3 L 27.9 129.4 L 27.9 133.7 L 28.8 133.7 L 28.8 134.3 L 26.1 134.3 L 26.1 133.7 " fill="#000000"/>
<path class="note" d="M 98.8 229.5 Q 99.0 229.0, 99.4 228.8 Q 99.9 228.5, 100.5 228.5 Q 101.2 228.5, 101.6 228.9 Q 102.1 229.3, 102.1 230.0 Q 102.1 230.8, 101.5 231.5 Q 101.0 232.2, 99.9 233.0 L 102.1 233.0 L 102.1 233.5 L 98.8 233.5 L 98.8 233.1 Q 99.7 232.4, 100.3 231.9 Q 100.8 231.4, 101.1 231.0 Q 101.4 230.5, 101.4 230.1 Q 101.4 229.6, 101.1 229.3 Q 100.9 229.1, 100.5 229.1 Q 100.1 229.1, 99.8 229.2 Q 99.5 229.4, 99.4 229.8 L 98.8 229.5 " fill="#000000"/>
<path class="note" d="M 102.9 229.5 Q 103.1 229.0, 103.5 228.8 Q 104.0 228.5, 104.6 228.5 Q 105.3 228.5, 105.7 228.9 Q 106.2 229.3, 106.2 230.0 Q 106.2 230.8, 105.6 231.5 Q 105.1 232.2, 103.9 233.0 L 106.2 233.0 L 106.2 233.5 L 102.9 233.5 L 102.9 233.1 Q 103.8 232.4, 104.4 231.9 Q 104.9 231.4, 105.2 231.0 Q 105.5 230.5, 105.5 230.1 Q 105.5 229.6, 105.2 229.3 Q 105.0 229.1, 104.6 229.1 Q 104.2 229.1, 103.9 229.2 Q 103.6 229.4, 103.4 229.8 L 102.9 229.5 " fill="#000000"/>
<path class="bond-0 atom-0 atom-1" d="M 442.3,167.2 L 407.3,169.0" style="fill:none;fill-rule:evenodd;stroke:#000000;stroke-width:2.0px;stroke-linecap:butt;stroke-linejoin:miter;stroke-opacity:1"/>
<path class="bond-1 atom-1 atom-2" d="M 407.3,169.0 L 388.3,139.7" style="fill:none;fill-rule:evenodd;stroke:#000000;stroke-width:2.0px;stroke-linecap:butt;stroke-linejoin:miter;stroke-opacity:1"/>
<path class="bond-2 atom-2 atom-3" d="M 388.3,139.7 L 404.2,108.5" style="fill:none;fill-rule:evenodd;stroke:#000000;stroke-width:2.0px;stroke-linecap:butt;stroke-linejoin:miter;stroke-opacity:1"/>
<path class="bond-3 atom-3 atom-4" d="M 404.2,108.5 L 439.2,106.7" style="fill:none;fill-rule:evenodd;stroke:#000000;stroke-width:2.0px;stroke-linecap:butt;stroke-linejoin:miter;stroke-opacity:1"/>
<path class="bond-4 atom-4 atom-5" d="M 439.2,106.7 L 446.7,118.3" style="fill:none;fill-rule:evenodd;stroke:#000000;stroke-width:2.0px;stroke-linecap:butt;stroke-linejoin:miter;stroke-opacity:1"/>
<path class="bond-4 atom-4 atom-5" d="M 446.7,118.3 L 454.2,129.9" style="fill:none;fill-rule:evenodd;stroke:#0000FF;stroke-width:2.0px;stroke-linecap:butt;stroke-linejoin:miter;stroke-opacity:1"/>
<path class="bond-5 atom-5 atom-6" d="M 469.3,135.5 L 481.2,134.9" style="fill:none;fill-rule:evenodd;stroke:#0000FF;stroke-width:2.0px;stroke-linecap:butt;stroke-linejoin:miter;stroke-opacity:1"/>
<path class="bond-5 atom-5 atom-6" d="M 481.2,134.9 L 493.1,134.2" style="fill:none;fill-rule:evenodd;stroke:#000000;stroke-width:2.0px;stroke-linecap:butt;stroke-linejoin:miter;stroke-opacity:1"/>
<path class="bond-6 atom-6 atom-7" d="M 493.1,134.2 L 512.2,163.6" style="fill:none;fill-rule:evenodd;stroke:#000000;stroke-width:2.0px;stroke-linecap:butt;stroke-linejoin:miter;stroke-opacity:1"/>
<path class="bond-7 atom-7 atom-8" d="M 512.2,163.6 L 526.8,162.8" style="fill:none;fill-rule:evenodd;stroke:#000000;stroke-width:2.0px;stroke-linecap:butt;stroke-linejoin:miter;stroke-opacity:1"/>
<path class="bond-7 atom-7 atom-8" d="M 526.8,162.8 L 541.4,162.1" style="fill:none;fill-rule:evenodd;stroke:#FF0000;stroke-width:2.0px;stroke-linecap:butt;stroke-linejoin:miter;stroke-opacity:1"/>
<path class="bond-8 atom-4 atom-9" d="M 439.2,106.7 L 452.2,75.7 L 458.2,75.4 Z" style="fill:#000000;fill-rule:evenodd;fill-opacity:1;stroke:#000000;stroke-width:0.5px;stroke-linecap:butt;stroke-linejoin:miter;stroke-opacity:1;"/>
<path class="bond-9 atom-9 atom-10" d="M 452.2,75.7 L 469.7,74.8" style="fill:none;fill-rule:evenodd;stroke:#000000;stroke-width:2.0px;stroke-linecap:butt;stroke-linejoin:miter;stroke-opacity:1"/>
<path class="bond-9 atom-9 atom-10" d="M 469.7,74.8 L 484.3,74.0" style="fill:none;fill-rule:evenodd;stroke:#FF0000;stroke-width:2.0px;stroke-linecap:butt;stroke-linejoin:miter;stroke-opacity:1"/>
<path class="bond-10 atom-3 atom-11" d="M 401.9,105.6 L 402.5,105.2" style="fill:none;fill-rule:evenodd;stroke:#000000;stroke-width:1.0px;stroke-linecap:butt;stroke-linejoin:miter;stroke-opacity:1"/>
<path class="bond-10 atom-3 atom-11" d="M 399.5,102.6 L 400.8,101.8" style="fill:none;fill-rule:evenodd;stroke:#000000;stroke-width:1.0px;stroke-linecap:butt;stroke-linejoin:miter;stroke-opacity:1"/>
<path class="bond-10 atom-3 atom-11" d="M 397.2,99.7 L 399.1,98.5" style="fill:none;fill-rule:evenodd;stroke:#000000;stroke-width:1.0px;stroke-linecap:butt;stroke-linejoin:miter;stroke-opacity:1"/>
<path class="bond-10 atom-3 atom-11" d="M 394.8,96.8 L 397.4,95.2" style="fill:none;fill-rule:evenodd;stroke:#FF0000;stroke-width:1.0px;stroke-linecap:butt;stroke-linejoin:miter;stroke-opacity:1"/>
<path class="bond-10 atom-3 atom-11" d="M 392.5,93.9 L 395.7,91.8" style="fill:none;fill-rule:evenodd;stroke:#FF0000;stroke-width:1.0px;stroke-linecap:butt;stroke-linejoin:miter;stroke-opacity:1"/>
<path class="bond-10 atom-3 atom-11" d="M 390.2,91.0 L 393.9,88.5" style="fill:none;fill-rule:evenodd;stroke:#FF0000;stroke-width:1.0px;stroke-linecap:butt;stroke-linejoin:miter;stroke-opacity:1"/>
<path class="bond-10 atom-3 atom-11" d="M 387.8,88.0 L 392.2,85.2" style="fill:none;fill-rule:evenodd;stroke:#FF0000;stroke-width:1.0px;stroke-linecap:butt;stroke-linejoin:miter;stroke-opacity:1"/>
<path class="bond-11 atom-2 atom-12" d="M 388.3,139.7 L 374.3,141.7 L 374.2,139.1 Z" style="fill:#000000;fill-rule:evenodd;fill-opacity:1;stroke:#000000;stroke-width:0.5px;stroke-linecap:butt;stroke-linejoin:miter;stroke-opacity:1;"/>
<path class="bond-11 atom-2 atom-12" d="M 374.3,141.7 L 360.1,138.5 L 360.4,143.7 Z" style="fill:#FF0000;fill-rule:evenodd;fill-opacity:1;stroke:#FF0000;stroke-width:0.5px;stroke-linecap:butt;stroke-linejoin:miter;stroke-opacity:1;"/>
<path class="bond-11 atom-2 atom-12" d="M 374.3,141.7 L 374.2,139.1 L 360.1,138.5 Z" style="fill:#FF0000;fill-rule:evenodd;fill-opacity:1;stroke:#FF0000;stroke-width:0.5px;stroke-linecap:butt;stroke-linejoin:miter;stroke-opacity:1;"/>
<path class="bond-12 atom-1 atom-13" d="M 406.1,172.1 L 405.5,171.9" style="fill:none;fill-rule:evenodd;stroke:#000000;stroke-width:1.0px;stroke-linecap:butt;stroke-linejoin:miter;stroke-opacity:1"/>
<path class="bond-12 atom-1 atom-13" d="M 404.9,175.3 L 403.7,174.7" style="fill:none;fill-rule:evenodd;stroke:#000000;stroke-width:1.0px;stroke-linecap:butt;stroke-linejoin:miter;stroke-opacity:1"/>
<path class="bond-12 atom-1 atom-13" d="M 403.7,178.4 L 401.9,177.5" style="fill:none;fill-rule:evenodd;stroke:#000000;stroke-width:1.0px;stroke-linecap:butt;stroke-linejoin:miter;stroke-opacity:1"/>
<path class="bond-12 atom-1 atom-13" d="M 402.4,181.5 L 400.1,180.3" style="fill:none;fill-rule:evenodd;stroke:#000000;stroke-width:1.0px;stroke-linecap:butt;stroke-linejoin:miter;stroke-opacity:1"/>
<path class="bond-12 atom-1 atom-13" d="M 401.2,184.7 L 398.3,183.2" style="fill:none;fill-rule:evenodd;stroke:#FF0000;stroke-width:1.0px;stroke-linecap:butt;stroke-linejoin:miter;stroke-opacity:1"/>
<path class="bond-12 atom-1 atom-13" d="M 400.0,187.8 L 396.5,186.0" style="fill:none;fill-rule:evenodd;stroke:#FF0000;stroke-width:1.0px;stroke-linecap:butt;stroke-linejoin:miter;stroke-opacity:1"/>
<path class="bond-12 atom-1 atom-13" d="M 398.7,190.9 L 394.6,188.8" style="fill:none;fill-rule:evenodd;stroke:#FF0000;stroke-width:1.0px;stroke-linecap:butt;stroke-linejoin:miter;stroke-opacity:1"/>
<path class="bond-12 atom-1 atom-13" d="M 397.5,194.1 L 392.8,191.7" style="fill:none;fill-rule:evenodd;stroke:#FF0000;stroke-width:1.0px;stroke-linecap:butt;stroke-linejoin:miter;stroke-opacity:1"/>
<path class="bond-13 atom-5 atom-0" d="M 453.2,145.9 L 447.7,156.6" style="fill:none;fill-rule:evenodd;stroke:#0000FF;stroke-width:2.0px;stroke-linecap:butt;stroke-linejoin:miter;stroke-opacity:1"/>
<path class="bond-13 atom-5 atom-0" d="M 447.7,156.6 L 442.3,167.2" style="fill:none;fill-rule:evenodd;stroke:#000000;stroke-width:2.0px;stroke-linecap:butt;stroke-linejoin:miter;stroke-opacity:1"/>
<path d="M 440.5,167.3 L 442.3,167.2 L 442.6,166.7" style="fill:none;stroke:#000000;stroke-width:2.0px;stroke-linecap:butt;stroke-linejoin:miter;stroke-opacity:1;"/>
<path d="M 409.1,168.9 L 407.3,169.0 L 406.4,167.6" style="fill:none;stroke:#000000;stroke-width:2.0px;stroke-linecap:butt;stroke-linejoin:miter;stroke-opacity:1;"/>
<path d="M 389.3,141.1 L 388.3,139.7 L 389.1,138.1" style="fill:none;stroke:#000000;stroke-width:2.0px;stroke-linecap:butt;stroke-linejoin:miter;stroke-opacity:1;"/>
<path d="M 403.4,110.0 L 404.2,108.5 L 406.0,108.4" style="fill:none;stroke:#000000;stroke-width:2.0px;stroke-linecap:butt;stroke-linejoin:miter;stroke-opacity:1;"/>
<path d="M 437.4,106.8 L 439.2,106.7 L 439.5,107.3" style="fill:none;stroke:#000000;stroke-width:2.0px;stroke-linecap:butt;stroke-linejoin:miter;stroke-opacity:1;"/>
<path d="M 492.6,134.3 L 493.1,134.2 L 494.1,135.7" style="fill:none;stroke:#000000;stroke-width:2.0px;stroke-linecap:butt;stroke-linejoin:miter;stroke-opacity:1;"/>
<path d="M 511.2,162.1 L 512.2,163.6 L 512.9,163.6" style="fill:none;stroke:#000000;stroke-width:2.0px;stroke-linecap:butt;stroke-linejoin:miter;stroke-opacity:1;"/>
<path class="atom-5" d="M 456.0 131.1 L 459.3 136.3 Q 459.6 136.9, 460.1 137.8 Q 460.6 138.7, 460.6 138.8 L 460.6 131.1 L 462.0 131.1 L 462.0 141.0 L 460.6 141.0 L 457.1 135.3 Q 456.7 134.6, 456.3 133.8 Q 455.9 133.0, 455.7 132.8 L 455.7 141.0 L 454.4 141.0 L 454.4 131.1 L 456.0 131.1 " fill="#0000FF"/>
<path class="atom-5" d="M 463.8 132.9 L 465.6 132.9 L 465.6 131.0 L 466.3 131.0 L 466.3 132.9 L 468.1 132.9 L 468.1 133.5 L 466.3 133.5 L 466.3 135.4 L 465.6 135.4 L 465.6 133.5 L 463.8 133.5 L 463.8 132.9 " fill="#0000FF"/>
<path class="atom-5" d="M 454.3 142.0 L 455.7 142.0 L 455.7 146.2 L 460.7 146.2 L 460.7 142.0 L 462.1 142.0 L 462.1 151.9 L 460.7 151.9 L 460.7 147.3 L 455.7 147.3 L 455.7 151.9 L 454.3 151.9 L 454.3 142.0 " fill="#0000FF"/>
<path class="atom-8" d="M 542.6 161.8 Q 542.6 159.4, 543.8 158.1 Q 544.9 156.8, 547.1 156.8 Q 549.3 156.8, 550.5 158.1 Q 551.7 159.4, 551.7 161.8 Q 551.7 164.2, 550.5 165.6 Q 549.3 167.0, 547.1 167.0 Q 544.9 167.0, 543.8 165.6 Q 542.6 164.2, 542.6 161.8 M 547.1 165.8 Q 548.6 165.8, 549.5 164.8 Q 550.3 163.8, 550.3 161.8 Q 550.3 159.9, 549.5 158.9 Q 548.6 157.9, 547.1 157.9 Q 545.6 157.9, 544.8 158.9 Q 544.0 159.9, 544.0 161.8 Q 544.0 163.8, 544.8 164.8 Q 545.6 165.8, 547.1 165.8 " fill="#FF0000"/>
<path class="atom-8" d="M 553.2 156.9 L 554.6 156.9 L 554.6 161.1 L 559.6 161.1 L 559.6 156.9 L 561.0 156.9 L 561.0 166.8 L 559.6 166.8 L 559.6 162.2 L 554.6 162.2 L 554.6 166.8 L 553.2 166.8 L 553.2 156.9 " fill="#FF0000"/>
<path class="atom-10" d="M 485.5 73.7 Q 485.5 71.4, 486.6 70.0 Q 487.8 68.7, 490.0 68.7 Q 492.2 68.7, 493.4 70.0 Q 494.6 71.4, 494.6 73.7 Q 494.6 76.1, 493.4 77.5 Q 492.2 78.9, 490.0 78.9 Q 487.8 78.9, 486.6 77.5 Q 485.5 76.2, 485.5 73.7 M 490.0 77.8 Q 491.5 77.8, 492.3 76.7 Q 493.2 75.7, 493.2 73.7 Q 493.2 71.8, 492.3 70.8 Q 491.5 69.8, 490.0 69.8 Q 488.5 69.8, 487.7 70.8 Q 486.9 71.8, 486.9 73.7 Q 486.9 75.7, 487.7 76.7 Q 488.5 77.8, 490.0 77.8 " fill="#FF0000"/>
<path class="atom-10" d="M 496.1 68.8 L 497.5 68.8 L 497.5 73.0 L 502.5 73.0 L 502.5 68.8 L 503.9 68.8 L 503.9 78.7 L 502.5 78.7 L 502.5 74.1 L 497.5 74.1 L 497.5 78.7 L 496.1 78.7 L 496.1 68.8 " fill="#FF0000"/>
<path class="atom-11" d="M 370.8 74.2 L 372.2 74.2 L 372.2 78.4 L 377.3 78.4 L 377.3 74.2 L 378.6 74.2 L 378.6 84.1 L 377.3 84.1 L 377.3 79.6 L 372.2 79.6 L 372.2 84.1 L 370.8 84.1 L 370.8 74.2 " fill="#FF0000"/>
<path class="atom-11" d="M 380.6 79.2 Q 380.6 76.8, 381.8 75.4 Q 383.0 74.1, 385.2 74.1 Q 387.4 74.1, 388.5 75.4 Q 389.7 76.8, 389.7 79.2 Q 389.7 81.6, 388.5 82.9 Q 387.3 84.3, 385.2 84.3 Q 383.0 84.3, 381.8 82.9 Q 380.6 81.6, 380.6 79.2 M 385.2 83.2 Q 386.7 83.2, 387.5 82.2 Q 388.3 81.1, 388.3 79.2 Q 388.3 77.2, 387.5 76.2 Q 386.7 75.2, 385.2 75.2 Q 383.7 75.2, 382.8 76.2 Q 382.0 77.2, 382.0 79.2 Q 382.0 81.2, 382.8 82.2 Q 383.7 83.2, 385.2 83.2 " fill="#FF0000"/>
<path class="atom-12" d="M 339.0 136.6 L 340.4 136.6 L 340.4 140.8 L 345.4 140.8 L 345.4 136.6 L 346.8 136.6 L 346.8 146.5 L 345.4 146.5 L 345.4 141.9 L 340.4 141.9 L 340.4 146.5 L 339.0 146.5 L 339.0 136.6 " fill="#FF0000"/>
<path class="atom-12" d="M 348.8 141.5 Q 348.8 139.1, 350.0 137.8 Q 351.2 136.5, 353.4 136.5 Q 355.6 136.5, 356.7 137.8 Q 357.9 139.1, 357.9 141.5 Q 357.9 143.9, 356.7 145.3 Q 355.5 146.6, 353.4 146.6 Q 351.2 146.6, 350.0 145.3 Q 348.8 143.9, 348.8 141.5 M 353.4 145.5 Q 354.9 145.5, 355.7 144.5 Q 356.5 143.5, 356.5 141.5 Q 356.5 139.5, 355.7 138.6 Q 354.9 137.6, 353.4 137.6 Q 351.8 137.6, 351.0 138.6 Q 350.2 139.5, 350.2 141.5 Q 350.2 143.5, 351.0 144.5 Q 351.8 145.5, 353.4 145.5 " fill="#FF0000"/>
<path class="atom-13" d="M 377.1 195.3 L 378.4 195.3 L 378.4 199.5 L 383.5 199.5 L 383.5 195.3 L 384.9 195.3 L 384.9 205.2 L 383.5 205.2 L 383.5 200.6 L 378.4 200.6 L 378.4 205.2 L 377.1 205.2 L 377.1 195.3 " fill="#FF0000"/>
<path class="atom-13" d="M 386.9 200.2 Q 386.9 197.8, 388.1 196.5 Q 389.2 195.2, 391.4 195.2 Q 393.6 195.2, 394.8 196.5 Q 396.0 197.8, 396.0 200.2 Q 396.0 202.6, 394.8 204.0 Q 393.6 205.4, 391.4 205.4 Q 389.2 205.4, 388.1 204.0 Q 386.9 202.6, 386.9 200.2 M 391.4 204.2 Q 392.9 204.2, 393.8 203.2 Q 394.6 202.2, 394.6 200.2 Q 394.6 198.3, 393.8 197.3 Q 392.9 196.3, 391.4 196.3 Q 389.9 196.3, 389.1 197.3 Q 388.3 198.3, 388.3 200.2 Q 388.3 202.2, 389.1 203.2 Q 389.9 204.2, 391.4 204.2 " fill="#FF0000"/>
<path class="note" d="M 445.5 174.7 Q 444.6 174.7, 444.1 174.0 Q 443.7 173.3, 443.7 172.1 Q 443.7 170.9, 444.1 170.3 Q 444.5 169.6, 445.5 169.6 Q 446.4 169.6, 446.8 170.3 Q 447.3 170.9, 447.3 172.1 Q 447.3 173.3, 446.8 174.0 Q 446.4 174.7, 445.5 174.7 M 445.5 174.1 Q 446.0 174.1, 446.3 173.6 Q 446.6 173.1, 446.6 172.1 Q 446.6 171.2, 446.3 170.7 Q 446.0 170.2, 445.5 170.2 Q 444.9 170.2, 444.6 170.7 Q 444.4 171.2, 444.4 172.1 Q 444.4 173.1, 444.6 173.6 Q 444.9 174.1, 445.5 174.1 " fill="#000000"/>
<path class="note" d="M 408.8 165.8 L 409.9 165.8 L 409.9 162.1 L 408.7 162.4 L 408.5 162.0 L 410.0 161.3 L 410.5 161.4 L 410.5 165.8 L 411.5 165.8 L 411.5 166.3 L 408.8 166.3 L 408.8 165.8 " fill="#000000"/>
<path class="note" d="M 392.5 137.8 Q 392.7 137.4, 393.1 137.1 Q 393.5 136.9, 394.1 136.9 Q 394.9 136.9, 395.3 137.3 Q 395.7 137.7, 395.7 138.4 Q 395.7 139.1, 395.2 139.8 Q 394.6 140.5, 393.5 141.3 L 395.8 141.3 L 395.8 141.9 L 392.5 141.9 L 392.5 141.4 Q 393.4 140.7, 393.9 140.2 Q 394.5 139.8, 394.7 139.3 Q 395.0 138.9, 395.0 138.4 Q 395.0 137.9, 394.8 137.7 Q 394.5 137.4, 394.1 137.4 Q 393.7 137.4, 393.5 137.6 Q 393.2 137.7, 393.0 138.1 L 392.5 137.8 " fill="#000000"/>
<path class="note" d="M 408.1 113.3 Q 408.6 113.4, 408.8 113.7 Q 409.1 114.0, 409.1 114.5 Q 409.1 114.9, 408.8 115.3 Q 408.6 115.6, 408.2 115.8 Q 407.9 116.0, 407.4 116.0 Q 406.8 116.0, 406.4 115.8 Q 406.0 115.6, 405.7 115.2 L 406.1 114.8 Q 406.4 115.1, 406.7 115.3 Q 406.9 115.4, 407.4 115.4 Q 407.8 115.4, 408.1 115.2 Q 408.4 114.9, 408.4 114.5 Q 408.4 114.0, 408.1 113.8 Q 407.8 113.6, 407.2 113.6 L 406.8 113.6 L 406.8 113.1 L 407.1 113.1 Q 407.7 113.1, 408.0 112.8 Q 408.2 112.6, 408.2 112.1 Q 408.2 111.8, 408.0 111.6 Q 407.8 111.4, 407.4 111.4 Q 407.0 111.4, 406.7 111.6 Q 406.4 111.7, 406.2 112.1 L 405.8 111.8 Q 405.9 111.4, 406.4 111.2 Q 406.8 110.9, 407.4 110.9 Q 408.1 110.9, 408.5 111.2 Q 408.9 111.6, 408.9 112.1 Q 408.9 112.5, 408.7 112.8 Q 408.5 113.1, 408.1 113.3 " fill="#000000"/>
<path class="note" d="M 437.8 112.7 L 438.4 112.7 L 438.4 113.2 L 437.8 113.2 L 437.8 114.4 L 437.2 114.4 L 437.2 113.2 L 434.6 113.2 L 434.6 112.8 L 436.8 109.4 L 437.8 109.4 L 437.8 112.7 M 435.4 112.7 L 437.2 112.7 L 437.2 109.8 L 435.4 112.7 " fill="#000000"/>
<path class="note" d="M 463.6 125.0 Q 464.1 125.0, 464.4 125.2 Q 464.8 125.4, 465.0 125.8 Q 465.2 126.1, 465.2 126.6 Q 465.2 127.1, 464.9 127.4 Q 464.7 127.8, 464.3 128.0 Q 463.9 128.2, 463.4 128.2 Q 463.0 128.2, 462.5 128.0 Q 462.1 127.9, 461.8 127.5 L 462.2 127.1 Q 462.5 127.3, 462.8 127.5 Q 463.1 127.6, 463.4 127.6 Q 463.9 127.6, 464.2 127.3 Q 464.5 127.1, 464.5 126.6 Q 464.5 126.1, 464.2 125.8 Q 463.9 125.6, 463.4 125.6 Q 463.0 125.6, 462.5 125.7 L 462.1 125.6 L 462.3 123.2 L 464.9 123.2 L 464.8 123.7 L 462.9 123.7 L 462.8 125.2 Q 463.2 125.0, 463.6 125.0 " fill="#000000"/>
<path class="note" d="M 496.0 128.5 Q 496.5 128.5, 496.8 128.6 Q 497.1 128.8, 497.3 129.2 Q 497.5 129.5, 497.5 130.0 Q 497.5 130.4, 497.3 130.8 Q 497.1 131.2, 496.7 131.4 Q 496.3 131.6, 495.9 131.6 Q 495.0 131.6, 494.5 131.0 Q 494.1 130.4, 494.1 129.2 Q 494.1 127.9, 494.6 127.2 Q 495.2 126.5, 496.2 126.5 Q 496.5 126.5, 496.8 126.6 Q 497.1 126.7, 497.3 126.8 L 497.0 127.3 Q 496.7 127.1, 496.2 127.1 Q 495.5 127.1, 495.2 127.6 Q 494.8 128.0, 494.8 128.9 Q 495.0 128.7, 495.4 128.6 Q 495.7 128.5, 496.0 128.5 M 495.9 131.0 Q 496.1 131.0, 496.3 130.9 Q 496.6 130.8, 496.7 130.5 Q 496.8 130.3, 496.8 130.0 Q 496.8 129.5, 496.6 129.3 Q 496.3 129.0, 495.9 129.0 Q 495.6 129.0, 495.3 129.1 Q 495.0 129.3, 494.8 129.5 Q 494.8 130.3, 495.1 130.7 Q 495.3 131.0, 495.9 131.0 " fill="#000000"/>
<path class="note" d="M 510.5 166.9 L 507.9 166.9 L 507.9 166.3 L 511.2 166.3 L 511.2 166.8 L 509.2 171.3 L 508.5 171.3 L 510.5 166.9 " fill="#000000"/>
<path class="note" d="M 554.3 171.5 Q 554.7 171.7, 555.0 172.0 Q 555.2 172.2, 555.2 172.7 Q 555.2 173.2, 555.0 173.5 Q 554.8 173.8, 554.4 174.0 Q 554.0 174.2, 553.5 174.2 Q 552.7 174.2, 552.2 173.8 Q 551.7 173.4, 551.7 172.7 Q 551.7 172.3, 551.9 172.0 Q 552.1 171.7, 552.6 171.5 Q 552.3 171.3, 552.1 171.0 Q 551.9 170.8, 551.9 170.3 Q 551.9 169.8, 552.3 169.4 Q 552.8 169.1, 553.5 169.1 Q 554.2 169.1, 554.6 169.4 Q 555.0 169.8, 555.0 170.3 Q 555.0 170.7, 554.8 171.0 Q 554.6 171.2, 554.3 171.5 M 553.5 169.6 Q 553.1 169.6, 552.8 169.8 Q 552.6 170.0, 552.6 170.3 Q 552.6 170.6, 552.8 170.8 Q 552.9 170.9, 553.1 171.0 Q 553.4 171.1, 553.8 171.3 Q 554.1 171.1, 554.2 170.9 Q 554.3 170.6, 554.3 170.3 Q 554.3 170.0, 554.1 169.8 Q 553.9 169.6, 553.5 169.6 M 553.5 173.6 Q 554.0 173.6, 554.2 173.4 Q 554.5 173.1, 554.5 172.7 Q 554.5 172.5, 554.4 172.3 Q 554.2 172.1, 554.0 172.0 Q 553.8 171.9, 553.4 171.8 L 553.1 171.7 Q 552.7 171.9, 552.6 172.2 Q 552.4 172.4, 552.4 172.7 Q 552.4 173.1, 552.7 173.4 Q 553.0 173.6, 553.5 173.6 " fill="#000000"/>
<path class="note" d="M 451.8 68.1 Q 452.7 68.1, 453.2 68.7 Q 453.6 69.3, 453.6 70.5 Q 453.6 71.8, 453.1 72.5 Q 452.5 73.2, 451.5 73.2 Q 451.2 73.2, 450.9 73.1 Q 450.6 73.0, 450.4 72.9 L 450.6 72.4 Q 451.0 72.6, 451.5 72.6 Q 452.2 72.6, 452.5 72.2 Q 452.9 71.7, 452.9 70.8 Q 452.7 71.0, 452.3 71.1 Q 452.0 71.3, 451.7 71.3 Q 451.2 71.3, 450.9 71.1 Q 450.6 70.9, 450.4 70.5 Q 450.2 70.2, 450.2 69.8 Q 450.2 69.3, 450.4 68.9 Q 450.6 68.5, 451.0 68.3 Q 451.4 68.1, 451.8 68.1 M 450.9 69.8 Q 450.9 70.2, 451.1 70.5 Q 451.4 70.7, 451.8 70.7 Q 452.1 70.7, 452.4 70.6 Q 452.7 70.5, 452.9 70.2 Q 452.9 69.4, 452.6 69.1 Q 452.4 68.7, 451.8 68.7 Q 451.6 68.7, 451.3 68.8 Q 451.1 69.0, 451.0 69.2 Q 450.9 69.5, 450.9 69.8 " fill="#000000"/>
<path class="note" d="M 493.0 85.4 L 494.1 85.4 L 494.1 81.7 L 492.9 82.1 L 492.7 81.7 L 494.3 81.0 L 494.8 81.1 L 494.8 85.4 L 495.7 85.4 L 495.7 86.0 L 493.0 86.0 L 493.0 85.4 " fill="#000000"/>
<path class="note" d="M 498.2 86.1 Q 497.3 86.1, 496.8 85.4 Q 496.4 84.7, 496.4 83.5 Q 496.4 82.3, 496.8 81.7 Q 497.3 81.0, 498.2 81.0 Q 499.1 81.0, 499.5 81.7 Q 500.0 82.3, 500.0 83.5 Q 500.0 84.7, 499.5 85.4 Q 499.1 86.1, 498.2 86.1 M 498.2 85.5 Q 498.7 85.5, 499.0 85.0 Q 499.3 84.5, 499.3 83.5 Q 499.3 82.5, 499.0 82.0 Q 498.7 81.5, 498.2 81.5 Q 497.6 81.5, 497.3 82.0 Q 497.1 82.5, 497.1 83.5 Q 497.1 84.5, 497.3 85.0 Q 497.6 85.5, 498.2 85.5 " fill="#000000"/>
<path class="note" d="M 375.8 71.3 L 376.9 71.3 L 376.9 67.6 L 375.7 67.9 L 375.5 67.5 L 377.1 66.8 L 377.6 66.9 L 377.6 71.3 L 378.5 71.3 L 378.5 71.8 L 375.8 71.8 L 375.8 71.3 " fill="#000000"/>
<path class="note" d="M 379.4 71.3 L 380.5 71.3 L 380.5 67.6 L 379.3 67.9 L 379.1 67.5 L 380.6 66.8 L 381.1 66.9 L 381.1 71.3 L 382.1 71.3 L 382.1 71.8 L 379.4 71.8 L 379.4 71.3 " fill="#000000"/>
<path class="note" d="M 343.8 133.6 L 344.9 133.6 L 344.9 129.9 L 343.7 130.3 L 343.5 129.9 L 345.1 129.2 L 345.6 129.3 L 345.6 133.6 L 346.5 133.6 L 346.5 134.2 L 343.8 134.2 L 343.8 133.6 " fill="#000000"/>
<path class="note" d="M 347.2 130.2 Q 347.3 129.7, 347.8 129.4 Q 348.2 129.2, 348.8 129.2 Q 349.6 129.2, 350.0 129.6 Q 350.4 130.0, 350.4 130.7 Q 350.4 131.4, 349.8 132.1 Q 349.3 132.8, 348.2 133.6 L 350.5 133.6 L 350.5 134.2 L 347.1 134.2 L 347.1 133.7 Q 348.1 133.1, 348.6 132.6 Q 349.2 132.1, 349.4 131.6 Q 349.7 131.2, 349.7 130.7 Q 349.7 130.3, 349.5 130.0 Q 349.2 129.7, 348.8 129.7 Q 348.4 129.7, 348.1 129.9 Q 347.9 130.1, 347.7 130.4 L 347.2 130.2 " fill="#000000"/>
<path class="note" d="M 382.9 212.5 L 384.0 212.5 L 384.0 208.8 L 382.8 209.2 L 382.7 208.8 L 384.2 208.1 L 384.7 208.2 L 384.7 212.5 L 385.7 212.5 L 385.7 213.1 L 382.9 213.1 L 382.9 212.5 " fill="#000000"/>
<path class="note" d="M 388.6 210.5 Q 389.1 210.6, 389.4 210.9 Q 389.6 211.2, 389.6 211.7 Q 389.6 212.1, 389.4 212.5 Q 389.2 212.8, 388.8 213.0 Q 388.4 213.2, 387.9 213.2 Q 387.4 213.2, 387.0 213.0 Q 386.6 212.8, 386.3 212.4 L 386.7 212.0 Q 387.0 212.3, 387.2 212.5 Q 387.5 212.6, 387.9 212.6 Q 388.3 212.6, 388.6 212.4 Q 388.9 212.1, 388.9 211.7 Q 388.9 211.2, 388.6 211.0 Q 388.3 210.8, 387.7 210.8 L 387.4 210.8 L 387.4 210.3 L 387.7 210.3 Q 388.2 210.2, 388.5 210.0 Q 388.8 209.8, 388.8 209.3 Q 388.8 209.0, 388.6 208.8 Q 388.3 208.6, 387.9 208.6 Q 387.5 208.6, 387.2 208.8 Q 387.0 208.9, 386.8 209.3 L 386.3 209.0 Q 386.5 208.6, 386.9 208.4 Q 387.3 208.1, 387.9 208.1 Q 388.6 208.1, 389.1 208.4 Q 389.5 208.8, 389.5 209.3 Q 389.5 209.7, 389.3 210.0 Q 389.1 210.3, 388.6 210.5 " fill="#000000"/>
</svg>