<svg xmlns="http://www.w3.org/2000/svg" xmlns:rdkit="http://www.rdkit.org/xml" xmlns:xlink="http://www.w3.org/1999/xlink" version="1.1" baseProfile="full" xml:space="preserve" width="600px" height="280px" viewBox="0 0 600 280">
<!-- END OF HEADER -->
<rect style="opacity:1.0;fill:#FFFFFF;stroke:none" width="600.0" height="280.0" x="0.0" y="0.0"> </rect>
<path class="bond-0 atom-1 atom-0" d="M 184.1,143.8 L 184.2,142.5" style="fill:none;fill-rule:evenodd;stroke:#000000;stroke-width:1.0px;stroke-linecap:butt;stroke-linejoin:miter;stroke-opacity:1"/>
<path class="bond-0 atom-1 atom-0" d="M 190.4,144.9 L 190.6,142.4" style="fill:none;fill-rule:evenodd;stroke:#000000;stroke-width:1.0px;stroke-linecap:butt;stroke-linejoin:miter;stroke-opacity:1"/>
<path class="bond-0 atom-1 atom-0" d="M 196.7,146.0 L 197.0,142.2" style="fill:none;fill-rule:evenodd;stroke:#000000;stroke-width:1.0px;stroke-linecap:butt;stroke-linejoin:miter;stroke-opacity:1"/>
<path class="bond-0 atom-1 atom-0" d="M 203.0,147.1 L 203.4,142.0" style="fill:none;fill-rule:evenodd;stroke:#000000;stroke-width:1.0px;stroke-linecap:butt;stroke-linejoin:miter;stroke-opacity:1"/>
<path class="bond-0 atom-1 atom-0" d="M 209.4,148.2 L 209.8,141.8" style="fill:none;fill-rule:evenodd;stroke:#000000;stroke-width:1.0px;stroke-linecap:butt;stroke-linejoin:miter;stroke-opacity:1"/>
<path class="bond-0 atom-1 atom-0" d="M 215.7,149.3 L 216.3,141.7" style="fill:none;fill-rule:evenodd;stroke:#000000;stroke-width:1.0px;stroke-linecap:butt;stroke-linejoin:miter;stroke-opacity:1"/>
<path class="bond-1 atom-1 atom-2" d="M 177.7,142.7 L 156.2,174.4" style="fill:none;fill-rule:evenodd;stroke:#000000;stroke-width:2.0px;stroke-linecap:butt;stroke-linejoin:miter;stroke-opacity:1"/>
<path class="bond-2 atom-2 atom-3" d="M 156.2,174.4 L 118.0,171.6" style="fill:none;fill-rule:evenodd;stroke:#000000;stroke-width:2.0px;stroke-linecap:butt;stroke-linejoin:miter;stroke-opacity:1"/>
<path class="bond-3 atom-3 atom-4" d="M 118.0,171.6 L 101.3,137.1" style="fill:none;fill-rule:evenodd;stroke:#000000;stroke-width:2.0px;stroke-linecap:butt;stroke-linejoin:miter;stroke-opacity:1"/>
<path class="bond-4 atom-4 atom-5" d="M 101.3,137.1 L 122.8,105.4" style="fill:none;fill-rule:evenodd;stroke:#000000;stroke-width:2.0px;stroke-linecap:butt;stroke-linejoin:miter;stroke-opacity:1"/>
<path class="bond-5 atom-5 atom-6" d="M 119.3,107.1 L 112.7,93.3" style="fill:none;fill-rule:evenodd;stroke:#000000;stroke-width:2.0px;stroke-linecap:butt;stroke-linejoin:miter;stroke-opacity:1"/>
<path class="bond-5 atom-5 atom-6" d="M 112.7,93.3 L 106.0,79.5" style="fill:none;fill-rule:evenodd;stroke:#FF0000;stroke-width:2.0px;stroke-linecap:butt;stroke-linejoin:miter;stroke-opacity:1"/>
<path class="bond-5 atom-5 atom-6" d="M 126.2,103.7 L 119.6,89.9" style="fill:none;fill-rule:evenodd;stroke:#000000;stroke-width:2.0px;stroke-linecap:butt;stroke-linejoin:miter;stroke-opacity:1"/>
<path class="bond-5 atom-5 atom-6" d="M 119.6,89.9 L 112.9,76.1" style="fill:none;fill-rule:evenodd;stroke:#FF0000;stroke-width:2.0px;stroke-linecap:butt;stroke-linejoin:miter;stroke-opacity:1"/>
<path class="bond-6 atom-5 atom-7" d="M 122.8,105.4 L 138.8,106.6" style="fill:none;fill-rule:evenodd;stroke:#000000;stroke-width:2.0px;stroke-linecap:butt;stroke-linejoin:miter;stroke-opacity:1"/>
<path class="bond-6 atom-5 atom-7" d="M 138.8,106.6 L 154.8,107.7" style="fill:none;fill-rule:evenodd;stroke:#FF0000;stroke-width:2.0px;stroke-linecap:butt;stroke-linejoin:miter;stroke-opacity:1"/>
<path class="bond-7 atom-4 atom-8" d="M 101.3,137.1 L 85.8,137.9 L 86.0,134.1 Z" style="fill:#000000;fill-rule:evenodd;fill-opacity:1;stroke:#000000;stroke-width:1.0px;stroke-linecap:butt;stroke-linejoin:miter;stroke-opacity:1;"/>
<path class="bond-7 atom-4 atom-8" d="M 85.8,137.9 L 70.8,131.1 L 70.3,138.7 Z" style="fill:#FF0000;fill-rule:evenodd;fill-opacity:1;stroke:#FF0000;stroke-width:1.0px;stroke-linecap:butt;stroke-linejoin:miter;stroke-opacity:1;"/>
<path class="bond-7 atom-4 atom-8" d="M 85.8,137.9 L 86.0,134.1 L 70.8,131.1 Z" style="fill:#FF0000;fill-rule:evenodd;fill-opacity:1;stroke:#FF0000;stroke-width:1.0px;stroke-linecap:butt;stroke-linejoin:miter;stroke-opacity:1;"/>
<path class="bond-8 atom-3 atom-9" d="M 114.1,175.9 L 115.4,176.8" style="fill:none;fill-rule:evenodd;stroke:#000000;stroke-width:1.0px;stroke-linecap:butt;stroke-linejoin:miter;stroke-opacity:1"/>
<path class="bond-8 atom-3 atom-9" d="M 110.3,180.3 L 112.8,182.0" style="fill:none;fill-rule:evenodd;stroke:#000000;stroke-width:1.0px;stroke-linecap:butt;stroke-linejoin:miter;stroke-opacity:1"/>
<path class="bond-8 atom-3 atom-9" d="M 106.4,184.6 L 110.2,187.1" style="fill:none;fill-rule:evenodd;stroke:#FF0000;stroke-width:1.0px;stroke-linecap:butt;stroke-linejoin:miter;stroke-opacity:1"/>
<path class="bond-8 atom-3 atom-9" d="M 102.6,188.9 L 107.6,192.3" style="fill:none;fill-rule:evenodd;stroke:#FF0000;stroke-width:1.0px;stroke-linecap:butt;stroke-linejoin:miter;stroke-opacity:1"/>
<path class="bond-8 atom-3 atom-9" d="M 98.7,193.2 L 105.0,197.5" style="fill:none;fill-rule:evenodd;stroke:#FF0000;stroke-width:1.0px;stroke-linecap:butt;stroke-linejoin:miter;stroke-opacity:1"/>
<path class="bond-9 atom-2 atom-10" d="M 156.2,174.4 L 164.3,186.8 L 160.9,188.5 Z" style="fill:#000000;fill-rule:evenodd;fill-opacity:1;stroke:#000000;stroke-width:1.0px;stroke-linecap:butt;stroke-linejoin:miter;stroke-opacity:1;"/>
<path class="bond-9 atom-2 atom-10" d="M 164.3,186.8 L 165.6,202.6 L 172.5,199.2 Z" style="fill:#FF0000;fill-rule:evenodd;fill-opacity:1;stroke:#FF0000;stroke-width:1.0px;stroke-linecap:butt;stroke-linejoin:miter;stroke-opacity:1;"/>
<path class="bond-9 atom-2 atom-10" d="M 164.3,186.8 L 160.9,188.5 L 165.6,202.6 Z" style="fill:#FF0000;fill-rule:evenodd;fill-opacity:1;stroke:#FF0000;stroke-width:1.0px;stroke-linecap:butt;stroke-linejoin:miter;stroke-opacity:1;"/>
<path class="bond-10 atom-0 atom-11" d="M 216.0,145.5 L 224.4,133.1" style="fill:none;fill-rule:evenodd;stroke:#000000;stroke-width:2.0px;stroke-linecap:butt;stroke-linejoin:miter;stroke-opacity:1"/>
<path class="bond-10 atom-0 atom-11" d="M 224.4,133.1 L 232.8,120.7" style="fill:none;fill-rule:evenodd;stroke:#FF0000;stroke-width:2.0px;stroke-linecap:butt;stroke-linejoin:miter;stroke-opacity:1"/>
<path class="bond-11 atom-7 atom-1" d="M 164.4,115.1 L 171.1,128.9" style="fill:none;fill-rule:evenodd;stroke:#FF0000;stroke-width:2.0px;stroke-linecap:butt;stroke-linejoin:miter;stroke-opacity:1"/>
<path class="bond-11 atom-7 atom-1" d="M 171.1,128.9 L 177.7,142.7" style="fill:none;fill-rule:evenodd;stroke:#000000;stroke-width:2.0px;stroke-linecap:butt;stroke-linejoin:miter;stroke-opacity:1"/>
<path class="atom-6" d="M 101.1 70.9 Q 101.1 68.3, 102.4 66.9 Q 103.7 65.4, 106.1 65.4 Q 108.5 65.4, 109.8 66.9 Q 111.1 68.3, 111.1 70.9 Q 111.1 73.6, 109.8 75.1 Q 108.5 76.6, 106.1 76.6 Q 103.7 76.6, 102.4 75.1 Q 101.1 73.6, 101.1 70.9 M 106.1 75.3 Q 107.8 75.3, 108.6 74.2 Q 109.5 73.1, 109.5 70.9 Q 109.5 68.8, 108.6 67.7 Q 107.8 66.6, 106.1 66.6 Q 104.4 66.6, 103.5 67.7 Q 102.6 68.8, 102.6 70.9 Q 102.6 73.1, 103.5 74.2 Q 104.4 75.3, 106.1 75.3 " fill="#FF0000"/>
<path class="atom-7" d="M 156.1 108.2 Q 156.1 105.6, 157.3 104.2 Q 158.6 102.7, 161.0 102.7 Q 163.4 102.7, 164.7 104.2 Q 166.0 105.6, 166.0 108.2 Q 166.0 110.9, 164.7 112.4 Q 163.4 113.9, 161.0 113.9 Q 158.6 113.9, 157.3 112.4 Q 156.1 110.9, 156.1 108.2 M 161.0 112.6 Q 162.7 112.6, 163.6 111.5 Q 164.5 110.4, 164.5 108.2 Q 164.5 106.1, 163.6 105.0 Q 162.7 103.9, 161.0 103.9 Q 159.4 103.9, 158.5 105.0 Q 157.6 106.1, 157.6 108.2 Q 157.6 110.4, 158.5 111.5 Q 159.4 112.6, 161.0 112.6 " fill="#FF0000"/>
<path class="atom-8" d="M 48.2 129.0 L 49.7 129.0 L 49.7 133.6 L 55.3 133.6 L 55.3 129.0 L 56.7 129.0 L 56.7 139.8 L 55.3 139.8 L 55.3 134.8 L 49.7 134.8 L 49.7 139.8 L 48.2 139.8 L 48.2 129.0 " fill="#FF0000"/>
<path class="atom-8" d="M 58.0 134.4 Q 58.0 131.8, 59.3 130.3 Q 60.6 128.8, 63.0 128.8 Q 65.4 128.8, 66.7 130.3 Q 68.0 131.8, 68.0 134.4 Q 68.0 137.0, 66.7 138.5 Q 65.4 140.0, 63.0 140.0 Q 60.6 140.0, 59.3 138.5 Q 58.0 137.0, 58.0 134.4 M 63.0 138.8 Q 64.7 138.8, 65.6 137.7 Q 66.5 136.5, 66.5 134.4 Q 66.5 132.2, 65.6 131.2 Q 64.7 130.1, 63.0 130.1 Q 61.4 130.1, 60.5 131.1 Q 59.6 132.2, 59.6 134.4 Q 59.6 136.6, 60.5 137.7 Q 61.4 138.8, 63.0 138.8 " fill="#FF0000"/>
<path class="atom-9" d="M 81.6 198.0 L 83.1 198.0 L 83.1 202.6 L 88.7 202.6 L 88.7 198.0 L 90.1 198.0 L 90.1 208.8 L 88.7 208.8 L 88.7 203.8 L 83.1 203.8 L 83.1 208.8 L 81.6 208.8 L 81.6 198.0 " fill="#FF0000"/>
<path class="atom-9" d="M 91.4 203.4 Q 91.4 200.8, 92.7 199.3 Q 94.0 197.9, 96.4 197.9 Q 98.8 197.9, 100.1 199.3 Q 101.4 200.8, 101.4 203.4 Q 101.4 206.0, 100.1 207.5 Q 98.8 209.0, 96.4 209.0 Q 94.0 209.0, 92.7 207.5 Q 91.4 206.0, 91.4 203.4 M 96.4 207.8 Q 98.1 207.8, 99.0 206.7 Q 99.9 205.6, 99.9 203.4 Q 99.9 201.3, 99.0 200.2 Q 98.1 199.1, 96.4 199.1 Q 94.8 199.1, 93.9 200.2 Q 93.0 201.2, 93.0 203.4 Q 93.0 205.6, 93.9 206.7 Q 94.8 207.8, 96.4 207.8 " fill="#FF0000"/>
<path class="atom-10" d="M 167.9 209.0 Q 167.9 206.4, 169.2 204.9 Q 170.5 203.4, 172.9 203.4 Q 175.3 203.4, 176.6 204.9 Q 177.9 206.4, 177.9 209.0 Q 177.9 211.6, 176.6 213.1 Q 175.3 214.6, 172.9 214.6 Q 170.5 214.6, 169.2 213.1 Q 167.9 211.6, 167.9 209.0 M 172.9 213.4 Q 174.6 213.4, 175.4 212.3 Q 176.4 211.1, 176.4 209.0 Q 176.4 206.8, 175.4 205.8 Q 174.6 204.7, 172.9 204.7 Q 171.2 204.7, 170.3 205.7 Q 169.5 206.8, 169.5 209.0 Q 169.5 211.2, 170.3 212.3 Q 171.2 213.4, 172.9 213.4 " fill="#FF0000"/>
<path class="atom-10" d="M 178.7 203.6 L 180.1 203.6 L 180.1 208.2 L 185.7 208.2 L 185.7 203.6 L 187.2 203.6 L 187.2 214.4 L 185.7 214.4 L 185.7 209.4 L 180.1 209.4 L 180.1 214.4 L 178.7 214.4 L 178.7 203.6 " fill="#FF0000"/>
<path class="atom-11" d="M 232.5 113.8 Q 232.5 111.2, 233.8 109.7 Q 235.1 108.3, 237.5 108.3 Q 239.9 108.3, 241.2 109.7 Q 242.5 111.2, 242.5 113.8 Q 242.5 116.4, 241.2 118.0 Q 239.9 119.4, 237.5 119.4 Q 235.1 119.4, 233.8 118.0 Q 232.5 116.5, 232.5 113.8 M 237.5 118.2 Q 239.2 118.2, 240.1 117.1 Q 241.0 116.0, 241.0 113.8 Q 241.0 111.7, 240.1 110.6 Q 239.2 109.5, 237.5 109.5 Q 235.9 109.5, 235.0 110.6 Q 234.1 111.7, 234.1 113.8 Q 234.1 116.0, 235.0 117.1 Q 235.9 118.2, 237.5 118.2 " fill="#FF0000"/>
<path class="atom-11" d="M 243.3 108.4 L 244.7 108.4 L 244.7 113.0 L 250.3 113.0 L 250.3 108.4 L 251.8 108.4 L 251.8 119.3 L 250.3 119.3 L 250.3 114.3 L 244.7 114.3 L 244.7 119.3 L 243.3 119.3 L 243.3 108.4 " fill="#FF0000"/>
<path class="note" d="M 197.4 139.3 Q 196.4 139.3, 195.9 138.5 Q 195.4 137.8, 195.4 136.5 Q 195.4 135.2, 195.9 134.4 Q 196.4 133.7, 197.4 133.7 Q 198.4 133.7, 198.9 134.4 Q 199.4 135.2, 199.4 136.5 Q 199.4 137.8, 198.9 138.5 Q 198.4 139.3, 197.4 139.3 M 197.4 138.6 Q 198.0 138.6, 198.3 138.1 Q 198.6 137.6, 198.6 136.5 Q 198.6 135.4, 198.3 134.9 Q 198.0 134.3, 197.4 134.3 Q 196.8 134.3, 196.5 134.9 Q 196.2 135.4, 196.2 136.5 Q 196.2 137.6, 196.5 138.1 Q 196.8 138.6, 197.4 138.6 " fill="#000000"/>
<path class="note" d="M 172.0 165.0 L 173.2 165.0 L 173.2 160.9 L 171.9 161.3 L 171.7 160.9 L 173.3 160.1 L 173.9 160.2 L 173.9 165.0 L 175.0 165.0 L 175.0 165.6 L 172.0 165.6 L 172.0 165.0 " fill="#000000"/>
<path class="note" d="M 134.7 179.0 Q 134.9 178.5, 135.4 178.2 Q 135.9 177.9, 136.5 177.9 Q 137.3 177.9, 137.8 178.4 Q 138.3 178.8, 138.3 179.6 Q 138.3 180.4, 137.7 181.2 Q 137.1 181.9, 135.8 182.8 L 138.4 182.8 L 138.4 183.4 L 134.7 183.4 L 134.7 182.9 Q 135.7 182.2, 136.3 181.7 Q 136.9 181.1, 137.2 180.6 Q 137.5 180.1, 137.5 179.7 Q 137.5 179.1, 137.2 178.8 Q 137.0 178.5, 136.5 178.5 Q 136.1 178.5, 135.8 178.7 Q 135.5 178.9, 135.3 179.3 L 134.7 179.0 " fill="#000000"/>
<path class="note" d="M 103.5 157.6 Q 104.0 157.8, 104.3 158.1 Q 104.5 158.4, 104.5 159.0 Q 104.5 159.4, 104.3 159.8 Q 104.1 160.2, 103.7 160.4 Q 103.2 160.5, 102.7 160.5 Q 102.1 160.5, 101.7 160.3 Q 101.2 160.1, 100.9 159.7 L 101.3 159.3 Q 101.7 159.6, 101.9 159.8 Q 102.2 159.9, 102.7 159.9 Q 103.2 159.9, 103.5 159.7 Q 103.8 159.4, 103.8 159.0 Q 103.8 158.4, 103.5 158.2 Q 103.1 157.9, 102.5 157.9 L 102.1 157.9 L 102.1 157.4 L 102.4 157.4 Q 103.0 157.4, 103.3 157.1 Q 103.7 156.8, 103.7 156.4 Q 103.7 156.0, 103.4 155.8 Q 103.1 155.6, 102.7 155.6 Q 102.2 155.6, 102.0 155.7 Q 101.7 155.9, 101.5 156.3 L 100.9 156.0 Q 101.1 155.6, 101.6 155.3 Q 102.0 155.0, 102.7 155.0 Q 103.5 155.0, 104.0 155.4 Q 104.4 155.7, 104.4 156.4 Q 104.4 156.8, 104.2 157.1 Q 103.9 157.4, 103.5 157.6 " fill="#000000"/>
<path class="note" d="M 107.1 117.8 L 107.8 117.8 L 107.8 118.4 L 107.1 118.4 L 107.1 119.7 L 106.4 119.7 L 106.4 118.4 L 103.6 118.4 L 103.6 117.9 L 106.0 114.2 L 107.1 114.2 L 107.1 117.8 M 104.5 117.8 L 106.4 117.8 L 106.4 114.7 L 104.5 117.8 " fill="#000000"/>
<path class="note" d="M 104.2 92.5 Q 104.7 92.5, 105.1 92.7 Q 105.5 92.9, 105.7 93.3 Q 105.9 93.6, 105.9 94.2 Q 105.9 94.7, 105.7 95.1 Q 105.4 95.5, 104.9 95.7 Q 104.5 95.9, 104.0 95.9 Q 103.5 95.9, 103.0 95.8 Q 102.6 95.6, 102.3 95.2 L 102.7 94.7 Q 103.0 95.0, 103.3 95.2 Q 103.7 95.3, 104.0 95.3 Q 104.5 95.3, 104.8 95.0 Q 105.2 94.7, 105.2 94.2 Q 105.2 93.6, 104.8 93.3 Q 104.5 93.1, 104.0 93.1 Q 103.5 93.1, 103.0 93.3 L 102.5 93.1 L 102.8 90.4 L 105.6 90.4 L 105.5 91.1 L 103.4 91.1 L 103.3 92.7 Q 103.8 92.5, 104.2 92.5 " fill="#000000"/>
<path class="note" d="M 142.7 98.5 Q 143.2 98.5, 143.6 98.7 Q 143.9 98.9, 144.2 99.3 Q 144.4 99.7, 144.4 100.1 Q 144.4 100.7, 144.1 101.1 Q 143.9 101.5, 143.5 101.7 Q 143.1 102.0, 142.5 102.0 Q 141.6 102.0, 141.1 101.3 Q 140.6 100.6, 140.6 99.3 Q 140.6 97.9, 141.2 97.2 Q 141.8 96.4, 143.0 96.4 Q 143.3 96.4, 143.6 96.5 Q 143.9 96.6, 144.1 96.7 L 143.8 97.2 Q 143.4 97.0, 143.0 97.0 Q 142.2 97.0, 141.8 97.5 Q 141.4 98.0, 141.4 99.0 Q 141.6 98.8, 142.0 98.6 Q 142.3 98.5, 142.7 98.5 M 142.5 101.3 Q 142.8 101.3, 143.1 101.2 Q 143.3 101.0, 143.5 100.8 Q 143.6 100.5, 143.6 100.2 Q 143.6 99.7, 143.3 99.4 Q 143.1 99.1, 142.6 99.1 Q 142.2 99.1, 141.9 99.3 Q 141.6 99.4, 141.4 99.6 Q 141.4 100.5, 141.7 100.9 Q 142.0 101.3, 142.5 101.3 " fill="#000000"/>
<path class="note" d="M 82.6 141.3 L 79.8 141.3 L 79.8 140.7 L 83.4 140.7 L 83.4 141.2 L 81.2 146.1 L 80.5 146.1 L 82.6 141.3 " fill="#000000"/>
<path class="note" d="M 114.4 191.7 Q 114.9 191.9, 115.2 192.2 Q 115.5 192.5, 115.5 193.1 Q 115.5 193.5, 115.2 193.9 Q 115.0 194.2, 114.6 194.4 Q 114.1 194.6, 113.6 194.6 Q 112.7 194.6, 112.1 194.2 Q 111.6 193.8, 111.6 193.1 Q 111.6 192.6, 111.9 192.3 Q 112.1 191.9, 112.6 191.7 Q 112.2 191.5, 112.0 191.2 Q 111.8 190.9, 111.8 190.4 Q 111.8 189.8, 112.3 189.4 Q 112.7 189.1, 113.5 189.1 Q 114.3 189.1, 114.8 189.4 Q 115.3 189.8, 115.3 190.4 Q 115.3 190.8, 115.0 191.1 Q 114.8 191.4, 114.4 191.7 M 113.5 189.6 Q 113.1 189.6, 112.8 189.8 Q 112.6 190.1, 112.6 190.4 Q 112.6 190.7, 112.8 190.9 Q 112.9 191.1, 113.2 191.2 Q 113.4 191.3, 113.9 191.5 Q 114.2 191.2, 114.3 191.0 Q 114.5 190.8, 114.5 190.4 Q 114.5 190.1, 114.2 189.8 Q 114.0 189.6, 113.5 189.6 M 113.6 194.0 Q 114.1 194.0, 114.4 193.8 Q 114.7 193.5, 114.7 193.1 Q 114.7 192.8, 114.5 192.6 Q 114.4 192.4, 114.1 192.3 Q 113.9 192.2, 113.5 192.0 L 113.1 191.9 Q 112.7 192.2, 112.6 192.4 Q 112.4 192.7, 112.4 193.1 Q 112.4 193.5, 112.7 193.8 Q 113.0 194.0, 113.6 194.0 " fill="#000000"/>
<path class="note" d="M 171.4 185.6 Q 172.4 185.6, 172.8 186.3 Q 173.3 186.9, 173.3 188.2 Q 173.3 189.7, 172.7 190.4 Q 172.1 191.1, 171.0 191.1 Q 170.6 191.1, 170.3 191.1 Q 170.1 191.0, 169.8 190.8 L 170.1 190.3 Q 170.5 190.5, 171.0 190.5 Q 171.7 190.5, 172.1 190.0 Q 172.5 189.5, 172.6 188.5 Q 172.3 188.8, 171.9 188.9 Q 171.6 189.0, 171.2 189.0 Q 170.7 189.0, 170.4 188.8 Q 170.0 188.6, 169.8 188.3 Q 169.6 187.9, 169.6 187.4 Q 169.6 186.9, 169.8 186.5 Q 170.0 186.1, 170.5 185.8 Q 170.9 185.6, 171.4 185.6 M 170.3 187.4 Q 170.3 187.9, 170.6 188.2 Q 170.9 188.4, 171.4 188.4 Q 171.7 188.4, 172.0 188.3 Q 172.3 188.2, 172.6 187.9 Q 172.5 187.0, 172.2 186.6 Q 172.0 186.2, 171.4 186.2 Q 171.1 186.2, 170.9 186.4 Q 170.6 186.5, 170.5 186.8 Q 170.3 187.1, 170.3 187.4 " fill="#000000"/>
<path class="note" d="M 216.9 127.5 L 218.1 127.5 L 218.1 123.4 L 216.8 123.8 L 216.6 123.4 L 218.3 122.6 L 218.8 122.7 L 218.8 127.5 L 219.9 127.5 L 219.9 128.1 L 216.9 128.1 L 216.9 127.5 " fill="#000000"/>
<path class="note" d="M 222.2 128.1 Q 221.2 128.1, 220.7 127.4 Q 220.2 126.7, 220.2 125.4 Q 220.2 124.0, 220.7 123.3 Q 221.2 122.6, 222.2 122.6 Q 223.2 122.6, 223.7 123.3 Q 224.2 124.0, 224.2 125.4 Q 224.2 126.7, 223.7 127.4 Q 223.2 128.1, 222.2 128.1 M 222.2 127.5 Q 222.8 127.5, 223.1 127.0 Q 223.4 126.4, 223.4 125.4 Q 223.4 124.3, 223.1 123.7 Q 222.8 123.2, 222.2 123.2 Q 221.6 123.2, 221.3 123.7 Q 221.0 124.3, 221.0 125.4 Q 221.0 126.4, 221.3 127.0 Q 221.6 127.5, 222.2 127.5 " fill="#000000"/>
<path class="note" d="M 173.2 124.2 L 174.3 124.2 L 174.3 120.2 L 173.0 120.6 L 172.9 120.1 L 174.5 119.4 L 175.1 119.5 L 175.1 124.2 L 176.1 124.2 L 176.1 124.8 L 173.2 124.8 L 173.2 124.2 " fill="#000000"/>
<path class="note" d="M 176.7 124.2 L 177.9 124.2 L 177.9 120.2 L 176.6 120.6 L 176.5 120.1 L 178.1 119.4 L 178.7 119.5 L 178.7 124.2 L 179.7 124.2 L 179.7 124.8 L 176.7 124.8 L 176.7 124.2 " fill="#000000"/>
<path class="bond-0 atom-0 atom-1" d="M 396.0,102.7 L 358.3,109.7" style="fill:none;fill-rule:evenodd;stroke:#000000;stroke-width:2.0px;stroke-linecap:butt;stroke-linejoin:miter;stroke-opacity:1"/>
<path class="bond-1 atom-1 atom-2" d="M 358.3,109.7 L 353.3,147.7" style="fill:none;fill-rule:evenodd;stroke:#000000;stroke-width:2.0px;stroke-linecap:butt;stroke-linejoin:miter;stroke-opacity:1"/>
<path class="bond-2 atom-2 atom-3" d="M 353.3,147.7 L 367.5,154.4" style="fill:none;fill-rule:evenodd;stroke:#000000;stroke-width:2.0px;stroke-linecap:butt;stroke-linejoin:miter;stroke-opacity:1"/>
<path class="bond-2 atom-2 atom-3" d="M 367.5,154.4 L 381.7,161.2" style="fill:none;fill-rule:evenodd;stroke:#FF0000;stroke-width:2.0px;stroke-linecap:butt;stroke-linejoin:miter;stroke-opacity:1"/>
<path class="bond-3 atom-3 atom-4" d="M 394.2,157.6 L 404.2,147.0" style="fill:none;fill-rule:evenodd;stroke:#FF0000;stroke-width:2.0px;stroke-linecap:butt;stroke-linejoin:miter;stroke-opacity:1"/>
<path class="bond-3 atom-3 atom-4" d="M 404.2,147.0 L 414.3,136.4" style="fill:none;fill-rule:evenodd;stroke:#000000;stroke-width:2.0px;stroke-linecap:butt;stroke-linejoin:miter;stroke-opacity:1"/>
<path class="bond-4 atom-4 atom-5" d="M 419.4,137.7 L 419.6,136.4" style="fill:none;fill-rule:evenodd;stroke:#000000;stroke-width:1.0px;stroke-linecap:butt;stroke-linejoin:miter;stroke-opacity:1"/>
<path class="bond-4 atom-4 atom-5" d="M 424.6,139.0 L 424.9,136.5" style="fill:none;fill-rule:evenodd;stroke:#000000;stroke-width:1.0px;stroke-linecap:butt;stroke-linejoin:miter;stroke-opacity:1"/>
<path class="bond-4 atom-4 atom-5" d="M 429.7,140.3 L 430.2,136.5" style="fill:none;fill-rule:evenodd;stroke:#000000;stroke-width:1.0px;stroke-linecap:butt;stroke-linejoin:miter;stroke-opacity:1"/>
<path class="bond-4 atom-4 atom-5" d="M 434.9,141.6 L 435.5,136.6" style="fill:none;fill-rule:evenodd;stroke:#0000FF;stroke-width:1.0px;stroke-linecap:butt;stroke-linejoin:miter;stroke-opacity:1"/>
<path class="bond-4 atom-4 atom-5" d="M 440.0,143.0 L 440.8,136.6" style="fill:none;fill-rule:evenodd;stroke:#0000FF;stroke-width:1.0px;stroke-linecap:butt;stroke-linejoin:miter;stroke-opacity:1"/>
<path class="bond-4 atom-4 atom-5" d="M 445.2,144.3 L 446.2,136.7" style="fill:none;fill-rule:evenodd;stroke:#0000FF;stroke-width:1.0px;stroke-linecap:butt;stroke-linejoin:miter;stroke-opacity:1"/>
<path class="bond-5 atom-5 atom-6" d="M 455.1,148.0 L 461.0,162.4" style="fill:none;fill-rule:evenodd;stroke:#0000FF;stroke-width:2.0px;stroke-linecap:butt;stroke-linejoin:miter;stroke-opacity:1"/>
<path class="bond-5 atom-5 atom-6" d="M 461.0,162.4 L 467.0,176.8" style="fill:none;fill-rule:evenodd;stroke:#000000;stroke-width:2.0px;stroke-linecap:butt;stroke-linejoin:miter;stroke-opacity:1"/>
<path class="bond-6 atom-6 atom-7" d="M 467.0,176.8 L 483.3,178.9" style="fill:none;fill-rule:evenodd;stroke:#000000;stroke-width:2.0px;stroke-linecap:butt;stroke-linejoin:miter;stroke-opacity:1"/>
<path class="bond-6 atom-6 atom-7" d="M 483.3,178.9 L 499.6,181.1" style="fill:none;fill-rule:evenodd;stroke:#0000FF;stroke-width:2.0px;stroke-linecap:butt;stroke-linejoin:miter;stroke-opacity:1"/>
<path class="bond-6 atom-6 atom-7" d="M 472.9,169.8 L 484.3,171.3" style="fill:none;fill-rule:evenodd;stroke:#000000;stroke-width:2.0px;stroke-linecap:butt;stroke-linejoin:miter;stroke-opacity:1"/>
<path class="bond-6 atom-6 atom-7" d="M 484.3,171.3 L 495.7,172.8" style="fill:none;fill-rule:evenodd;stroke:#0000FF;stroke-width:2.0px;stroke-linecap:butt;stroke-linejoin:miter;stroke-opacity:1"/>
<path class="bond-7 atom-7 atom-8" d="M 510.1,175.1 L 519.2,163.2" style="fill:none;fill-rule:evenodd;stroke:#0000FF;stroke-width:2.0px;stroke-linecap:butt;stroke-linejoin:miter;stroke-opacity:1"/>
<path class="bond-7 atom-7 atom-8" d="M 519.2,163.2 L 528.3,151.3" style="fill:none;fill-rule:evenodd;stroke:#000000;stroke-width:2.0px;stroke-linecap:butt;stroke-linejoin:miter;stroke-opacity:1"/>
<path class="bond-8 atom-8 atom-9" d="M 528.3,151.3 L 522.4,137.0" style="fill:none;fill-rule:evenodd;stroke:#000000;stroke-width:2.0px;stroke-linecap:butt;stroke-linejoin:miter;stroke-opacity:1"/>
<path class="bond-8 atom-8 atom-9" d="M 522.4,137.0 L 516.4,122.6" style="fill:none;fill-rule:evenodd;stroke:#0000FF;stroke-width:2.0px;stroke-linecap:butt;stroke-linejoin:miter;stroke-opacity:1"/>
<path class="bond-8 atom-8 atom-9" d="M 519.5,150.0 L 515.3,139.9" style="fill:none;fill-rule:evenodd;stroke:#000000;stroke-width:2.0px;stroke-linecap:butt;stroke-linejoin:miter;stroke-opacity:1"/>
<path class="bond-8 atom-8 atom-9" d="M 515.3,139.9 L 511.1,129.9" style="fill:none;fill-rule:evenodd;stroke:#0000FF;stroke-width:2.0px;stroke-linecap:butt;stroke-linejoin:miter;stroke-opacity:1"/>
<path class="bond-9 atom-9 atom-10" d="M 508.3,115.2 L 492.0,113.1" style="fill:none;fill-rule:evenodd;stroke:#0000FF;stroke-width:2.0px;stroke-linecap:butt;stroke-linejoin:miter;stroke-opacity:1"/>
<path class="bond-9 atom-9 atom-10" d="M 492.0,113.1 L 475.6,110.9" style="fill:none;fill-rule:evenodd;stroke:#000000;stroke-width:2.0px;stroke-linecap:butt;stroke-linejoin:miter;stroke-opacity:1"/>
<path class="bond-10 atom-10 atom-11" d="M 472.1,112.4 L 466.2,98.2" style="fill:none;fill-rule:evenodd;stroke:#000000;stroke-width:2.0px;stroke-linecap:butt;stroke-linejoin:miter;stroke-opacity:1"/>
<path class="bond-10 atom-10 atom-11" d="M 466.2,98.2 L 460.3,83.9" style="fill:none;fill-rule:evenodd;stroke:#FF0000;stroke-width:2.0px;stroke-linecap:butt;stroke-linejoin:miter;stroke-opacity:1"/>
<path class="bond-10 atom-10 atom-11" d="M 479.2,109.5 L 473.3,95.2" style="fill:none;fill-rule:evenodd;stroke:#000000;stroke-width:2.0px;stroke-linecap:butt;stroke-linejoin:miter;stroke-opacity:1"/>
<path class="bond-10 atom-10 atom-11" d="M 473.3,95.2 L 467.4,81.0" style="fill:none;fill-rule:evenodd;stroke:#FF0000;stroke-width:2.0px;stroke-linecap:butt;stroke-linejoin:miter;stroke-opacity:1"/>
<path class="bond-11 atom-8 atom-12" d="M 528.3,151.3 L 544.6,153.5" style="fill:none;fill-rule:evenodd;stroke:#000000;stroke-width:2.0px;stroke-linecap:butt;stroke-linejoin:miter;stroke-opacity:1"/>
<path class="bond-11 atom-8 atom-12" d="M 544.6,153.5 L 561.0,155.6" style="fill:none;fill-rule:evenodd;stroke:#0000FF;stroke-width:2.0px;stroke-linecap:butt;stroke-linejoin:miter;stroke-opacity:1"/>
<path class="bond-12 atom-2 atom-13" d="M 347.4,150.2 L 348.0,151.3" style="fill:none;fill-rule:evenodd;stroke:#000000;stroke-width:1.0px;stroke-linecap:butt;stroke-linejoin:miter;stroke-opacity:1"/>
<path class="bond-12 atom-2 atom-13" d="M 341.5,152.7 L 342.7,154.9" style="fill:none;fill-rule:evenodd;stroke:#000000;stroke-width:1.0px;stroke-linecap:butt;stroke-linejoin:miter;stroke-opacity:1"/>
<path class="bond-12 atom-2 atom-13" d="M 335.5,155.2 L 337.4,158.5" style="fill:none;fill-rule:evenodd;stroke:#000000;stroke-width:1.0px;stroke-linecap:butt;stroke-linejoin:miter;stroke-opacity:1"/>
<path class="bond-12 atom-2 atom-13" d="M 329.6,157.6 L 332.1,162.1" style="fill:none;fill-rule:evenodd;stroke:#000000;stroke-width:1.0px;stroke-linecap:butt;stroke-linejoin:miter;stroke-opacity:1"/>
<path class="bond-12 atom-2 atom-13" d="M 323.7,160.1 L 326.8,165.7" style="fill:none;fill-rule:evenodd;stroke:#000000;stroke-width:1.0px;stroke-linecap:butt;stroke-linejoin:miter;stroke-opacity:1"/>
<path class="bond-12 atom-2 atom-13" d="M 317.8,162.6 L 321.4,169.4" style="fill:none;fill-rule:evenodd;stroke:#000000;stroke-width:1.0px;stroke-linecap:butt;stroke-linejoin:miter;stroke-opacity:1"/>
<path class="bond-13 atom-13 atom-14" d="M 319.6,166.0 L 319.2,181.8" style="fill:none;fill-rule:evenodd;stroke:#000000;stroke-width:2.0px;stroke-linecap:butt;stroke-linejoin:miter;stroke-opacity:1"/>
<path class="bond-13 atom-13 atom-14" d="M 319.2,181.8 L 318.8,197.6" style="fill:none;fill-rule:evenodd;stroke:#FF0000;stroke-width:2.0px;stroke-linecap:butt;stroke-linejoin:miter;stroke-opacity:1"/>
<path class="bond-14 atom-1 atom-15" d="M 358.3,109.7 L 346.8,101.4 L 349.5,98.7 Z" style="fill:#000000;fill-rule:evenodd;fill-opacity:1;stroke:#000000;stroke-width:1.0px;stroke-linecap:butt;stroke-linejoin:miter;stroke-opacity:1;"/>
<path class="bond-14 atom-1 atom-15" d="M 346.8,101.4 L 340.6,87.6 L 335.3,93.2 Z" style="fill:#FF0000;fill-rule:evenodd;fill-opacity:1;stroke:#FF0000;stroke-width:1.0px;stroke-linecap:butt;stroke-linejoin:miter;stroke-opacity:1;"/>
<path class="bond-14 atom-1 atom-15" d="M 346.8,101.4 L 349.5,98.7 L 340.6,87.6 Z" style="fill:#FF0000;fill-rule:evenodd;fill-opacity:1;stroke:#FF0000;stroke-width:1.0px;stroke-linecap:butt;stroke-linejoin:miter;stroke-opacity:1;"/>
<path class="bond-15 atom-4 atom-0" d="M 414.3,136.4 L 396.0,102.7" style="fill:none;fill-rule:evenodd;stroke:#000000;stroke-width:2.0px;stroke-linecap:butt;stroke-linejoin:miter;stroke-opacity:1"/>
<path class="bond-16 atom-10 atom-5" d="M 475.6,110.9 L 466.5,122.8" style="fill:none;fill-rule:evenodd;stroke:#000000;stroke-width:2.0px;stroke-linecap:butt;stroke-linejoin:miter;stroke-opacity:1"/>
<path class="bond-16 atom-10 atom-5" d="M 466.5,122.8 L 457.4,134.7" style="fill:none;fill-rule:evenodd;stroke:#0000FF;stroke-width:2.0px;stroke-linecap:butt;stroke-linejoin:miter;stroke-opacity:1"/>
<path class="atom-3" d="M 382.9 164.2 Q 382.9 161.6, 384.2 160.1 Q 385.5 158.7, 387.9 158.7 Q 390.3 158.7, 391.6 160.1 Q 392.9 161.6, 392.9 164.2 Q 392.9 166.8, 391.6 168.4 Q 390.3 169.8, 387.9 169.8 Q 385.5 169.8, 384.2 168.4 Q 382.9 166.9, 382.9 164.2 M 387.9 168.6 Q 389.6 168.6, 390.5 167.5 Q 391.4 166.4, 391.4 164.2 Q 391.4 162.1, 390.5 161.0 Q 389.6 159.9, 387.9 159.9 Q 386.3 159.9, 385.3 161.0 Q 384.5 162.1, 384.5 164.2 Q 384.5 166.4, 385.3 167.5 Q 386.3 168.6, 387.9 168.6 " fill="#FF0000"/>
<path class="atom-5" d="M 449.9 135.9 L 453.5 141.7 Q 453.8 142.2, 454.4 143.3 Q 455.0 144.3, 455.0 144.4 L 455.0 135.9 L 456.4 135.9 L 456.4 146.8 L 454.9 146.8 L 451.1 140.5 Q 450.7 139.8, 450.2 138.9 Q 449.7 138.1, 449.6 137.8 L 449.6 146.8 L 448.2 146.8 L 448.2 135.9 L 449.9 135.9 " fill="#0000FF"/>
<path class="atom-7" d="M 502.6 176.3 L 506.2 182.1 Q 506.5 182.7, 507.1 183.7 Q 507.6 184.7, 507.7 184.8 L 507.7 176.3 L 509.1 176.3 L 509.1 187.2 L 507.6 187.2 L 503.8 180.9 Q 503.4 180.2, 502.9 179.3 Q 502.4 178.5, 502.3 178.2 L 502.3 187.2 L 500.9 187.2 L 500.9 176.3 L 502.6 176.3 " fill="#0000FF"/>
<path class="atom-9" d="M 511.2 110.5 L 514.8 116.2 Q 515.2 116.8, 515.7 117.8 Q 516.3 118.9, 516.3 118.9 L 516.3 110.5 L 517.8 110.5 L 517.8 121.3 L 516.3 121.3 L 512.5 115.1 Q 512.0 114.3, 511.5 113.5 Q 511.1 112.6, 510.9 112.4 L 510.9 121.3 L 509.5 121.3 L 509.5 110.5 L 511.2 110.5 " fill="#0000FF"/>
<path class="atom-11" d="M 456.0 75.5 Q 456.0 72.9, 457.3 71.5 Q 458.5 70.0, 461.0 70.0 Q 463.4 70.0, 464.6 71.5 Q 465.9 72.9, 465.9 75.5 Q 465.9 78.2, 464.6 79.7 Q 463.3 81.2, 461.0 81.2 Q 458.6 81.2, 457.3 79.7 Q 456.0 78.2, 456.0 75.5 M 461.0 79.9 Q 462.6 79.9, 463.5 78.8 Q 464.4 77.7, 464.4 75.5 Q 464.4 73.4, 463.5 72.3 Q 462.6 71.2, 461.0 71.2 Q 459.3 71.2, 458.4 72.3 Q 457.5 73.4, 457.5 75.5 Q 457.5 77.7, 458.4 78.8 Q 459.3 79.9, 461.0 79.9 " fill="#FF0000"/>
<path class="atom-12" d="M 563.9 150.9 L 567.5 156.7 Q 567.9 157.2, 568.4 158.2 Q 569.0 159.3, 569.0 159.3 L 569.0 150.9 L 570.5 150.9 L 570.5 161.8 L 569.0 161.8 L 565.2 155.5 Q 564.7 154.7, 564.2 153.9 Q 563.8 153.0, 563.6 152.8 L 563.6 161.8 L 562.2 161.8 L 562.2 150.9 L 563.9 150.9 " fill="#0000FF"/>
<path class="atom-12" d="M 571.7 150.9 L 573.2 150.9 L 573.2 155.5 L 578.8 155.5 L 578.8 150.9 L 580.2 150.9 L 580.2 161.8 L 578.8 161.8 L 578.8 156.7 L 573.2 156.7 L 573.2 161.8 L 571.7 161.8 L 571.7 150.9 " fill="#0000FF"/>
<path class="atom-12" d="M 581.6 161.4 Q 581.8 160.7, 582.4 160.3 Q 583.1 159.9, 583.9 159.9 Q 585.0 159.9, 585.6 160.5 Q 586.2 161.1, 586.2 162.2 Q 586.2 163.2, 585.5 164.2 Q 584.7 165.2, 583.1 166.4 L 586.4 166.4 L 586.4 167.2 L 581.5 167.2 L 581.5 166.5 Q 582.9 165.6, 583.7 164.8 Q 584.5 164.1, 584.8 163.5 Q 585.2 162.9, 585.2 162.2 Q 585.2 161.5, 584.9 161.1 Q 584.5 160.7, 583.9 160.7 Q 583.4 160.7, 583.0 161.0 Q 582.6 161.2, 582.3 161.7 L 581.6 161.4 " fill="#0000FF"/>
<path class="atom-14" d="M 313.6 204.3 Q 313.6 201.7, 314.9 200.3 Q 316.2 198.8, 318.6 198.8 Q 321.0 198.8, 322.3 200.3 Q 323.6 201.7, 323.6 204.3 Q 323.6 207.0, 322.3 208.5 Q 321.0 210.0, 318.6 210.0 Q 316.2 210.0, 314.9 208.5 Q 313.6 207.0, 313.6 204.3 M 318.6 208.8 Q 320.3 208.8, 321.2 207.6 Q 322.1 206.5, 322.1 204.3 Q 322.1 202.2, 321.2 201.1 Q 320.3 200.1, 318.6 200.1 Q 317.0 200.1, 316.1 201.1 Q 315.2 202.2, 315.2 204.3 Q 315.2 206.5, 316.1 207.6 Q 317.0 208.8, 318.6 208.8 " fill="#FF0000"/>
<path class="atom-14" d="M 324.4 199.0 L 325.8 199.0 L 325.8 203.6 L 331.4 203.6 L 331.4 199.0 L 332.9 199.0 L 332.9 209.8 L 331.4 209.8 L 331.4 204.8 L 325.8 204.8 L 325.8 209.8 L 324.4 209.8 L 324.4 199.0 " fill="#FF0000"/>
<path class="atom-15" d="M 315.7 77.9 L 317.2 77.9 L 317.2 82.5 L 322.7 82.5 L 322.7 77.9 L 324.2 77.9 L 324.2 88.8 L 322.7 88.8 L 322.7 83.8 L 317.2 83.8 L 317.2 88.8 L 315.7 88.8 L 315.7 77.9 " fill="#FF0000"/>
<path class="atom-15" d="M 325.5 83.3 Q 325.5 80.7, 326.8 79.3 Q 328.1 77.8, 330.5 77.8 Q 332.9 77.8, 334.2 79.3 Q 335.5 80.7, 335.5 83.3 Q 335.5 86.0, 334.2 87.5 Q 332.8 89.0, 330.5 89.0 Q 328.1 89.0, 326.8 87.5 Q 325.5 86.0, 325.5 83.3 M 330.5 87.7 Q 332.1 87.7, 333.0 86.6 Q 333.9 85.5, 333.9 83.3 Q 333.9 81.2, 333.0 80.1 Q 332.1 79.0, 330.5 79.0 Q 328.8 79.0, 327.9 80.1 Q 327.0 81.2, 327.0 83.3 Q 327.0 85.5, 327.9 86.6 Q 328.8 87.7, 330.5 87.7 " fill="#FF0000"/>
<path class="note" d="M 378.5 116.5 Q 377.5 116.5, 377.0 115.8 Q 376.6 115.0, 376.6 113.7 Q 376.6 112.4, 377.0 111.7 Q 377.5 111.0, 378.5 111.0 Q 379.5 111.0, 380.0 111.7 Q 380.5 112.4, 380.5 113.7 Q 380.5 115.0, 380.0 115.8 Q 379.5 116.5, 378.5 116.5 M 378.5 115.9 Q 379.1 115.9, 379.4 115.4 Q 379.8 114.8, 379.8 113.7 Q 379.8 112.7, 379.4 112.1 Q 379.1 111.6, 378.5 111.6 Q 378.0 111.6, 377.6 112.1 Q 377.3 112.7, 377.3 113.7 Q 377.3 114.8, 377.6 115.4 Q 378.0 115.9, 378.5 115.9 " fill="#000000"/>
<path class="note" d="M 358.3 131.3 L 359.4 131.3 L 359.4 127.2 L 358.1 127.6 L 358.0 127.2 L 359.6 126.4 L 360.2 126.5 L 360.2 131.3 L 361.2 131.3 L 361.2 131.9 L 358.3 131.9 L 358.3 131.3 " fill="#000000"/>
<path class="note" d="M 372.1 147.4 Q 372.3 146.8, 372.8 146.6 Q 373.2 146.3, 373.9 146.3 Q 374.7 146.3, 375.2 146.7 Q 375.6 147.2, 375.6 147.9 Q 375.6 148.8, 375.0 149.5 Q 374.5 150.3, 373.2 151.1 L 375.7 151.1 L 375.7 151.8 L 372.1 151.8 L 372.1 151.2 Q 373.1 150.5, 373.7 150.0 Q 374.3 149.4, 374.6 149.0 Q 374.9 148.5, 374.9 148.0 Q 374.9 147.5, 374.6 147.2 Q 374.4 146.9, 373.9 146.9 Q 373.5 146.9, 373.2 147.1 Q 372.9 147.2, 372.7 147.6 L 372.1 147.4 " fill="#000000"/>
<path class="note" d="M 396.3 144.9 Q 396.8 145.0, 397.1 145.4 Q 397.4 145.7, 397.4 146.3 Q 397.4 146.7, 397.1 147.1 Q 396.9 147.4, 396.5 147.6 Q 396.1 147.8, 395.5 147.8 Q 394.9 147.8, 394.5 147.6 Q 394.1 147.4, 393.7 147.0 L 394.1 146.6 Q 394.5 146.9, 394.8 147.1 Q 395.1 147.2, 395.5 147.2 Q 396.0 147.2, 396.3 146.9 Q 396.6 146.7, 396.6 146.2 Q 396.6 145.7, 396.3 145.4 Q 396.0 145.2, 395.3 145.2 L 394.9 145.2 L 394.9 144.6 L 395.3 144.6 Q 395.9 144.6, 396.2 144.4 Q 396.5 144.1, 396.5 143.6 Q 396.5 143.3, 396.2 143.1 Q 396.0 142.9, 395.5 142.9 Q 395.1 142.9, 394.8 143.0 Q 394.5 143.2, 394.3 143.6 L 393.8 143.3 Q 393.9 142.9, 394.4 142.6 Q 394.9 142.2, 395.5 142.2 Q 396.3 142.2, 396.8 142.6 Q 397.2 143.0, 397.2 143.6 Q 397.2 144.1, 397.0 144.4 Q 396.8 144.7, 396.3 144.9 " fill="#000000"/>
<path class="note" d="M 435.7 132.1 L 436.4 132.1 L 436.4 132.7 L 435.7 132.7 L 435.7 134.0 L 435.0 134.0 L 435.0 132.7 L 432.2 132.7 L 432.2 132.2 L 434.6 128.5 L 435.7 128.5 L 435.7 132.1 M 433.1 132.1 L 435.0 132.1 L 435.0 129.0 L 433.1 132.1 " fill="#000000"/>
<path class="note" d="M 466.9 155.4 Q 467.3 155.4, 467.7 155.6 Q 468.1 155.8, 468.3 156.2 Q 468.6 156.6, 468.6 157.1 Q 468.6 157.7, 468.3 158.1 Q 468.0 158.5, 467.6 158.7 Q 467.1 158.9, 466.6 158.9 Q 466.1 158.9, 465.7 158.7 Q 465.2 158.5, 464.9 158.2 L 465.4 157.7 Q 465.6 158.0, 466.0 158.1 Q 466.3 158.3, 466.6 158.3 Q 467.1 158.3, 467.5 158.0 Q 467.8 157.7, 467.8 157.1 Q 467.8 156.6, 467.5 156.3 Q 467.1 156.0, 466.6 156.0 Q 466.1 156.0, 465.6 156.2 L 465.2 156.0 L 465.4 153.4 L 468.2 153.4 L 468.2 154.0 L 466.1 154.0 L 465.9 155.6 Q 466.4 155.4, 466.9 155.4 " fill="#000000"/>
<path class="note" d="M 485.2 186.2 Q 485.7 186.2, 486.1 186.4 Q 486.5 186.6, 486.7 187.0 Q 486.9 187.4, 486.9 187.9 Q 486.9 188.4, 486.6 188.8 Q 486.4 189.2, 486.0 189.4 Q 485.6 189.7, 485.1 189.7 Q 484.1 189.7, 483.6 189.0 Q 483.1 188.4, 483.1 187.1 Q 483.1 185.6, 483.7 184.9 Q 484.3 184.1, 485.5 184.1 Q 485.8 184.1, 486.1 184.2 Q 486.4 184.3, 486.7 184.4 L 486.4 185.0 Q 486.0 184.7, 485.5 184.7 Q 484.7 184.7, 484.3 185.2 Q 483.9 185.7, 483.9 186.7 Q 484.2 186.5, 484.5 186.4 Q 484.9 186.2, 485.2 186.2 M 485.1 189.0 Q 485.4 189.0, 485.6 188.9 Q 485.8 188.7, 486.0 188.5 Q 486.1 188.2, 486.1 187.9 Q 486.1 187.4, 485.8 187.1 Q 485.6 186.8, 485.1 186.8 Q 484.8 186.8, 484.4 187.0 Q 484.1 187.1, 483.9 187.3 Q 483.9 188.2, 484.2 188.6 Q 484.5 189.0, 485.1 189.0 " fill="#000000"/>
<path class="note" d="M 511.6 159.8 L 508.8 159.8 L 508.8 159.2 L 512.4 159.2 L 512.4 159.7 L 510.2 164.6 L 509.5 164.6 L 511.6 159.8 " fill="#000000"/>
<path class="note" d="M 528.9 130.6 Q 529.4 130.8, 529.7 131.1 Q 530.0 131.4, 530.0 131.9 Q 530.0 132.4, 529.8 132.8 Q 529.5 133.1, 529.1 133.3 Q 528.7 133.5, 528.1 133.5 Q 527.2 133.5, 526.7 133.1 Q 526.2 132.7, 526.2 131.9 Q 526.2 131.5, 526.4 131.2 Q 526.6 130.8, 527.1 130.6 Q 526.7 130.4, 526.5 130.1 Q 526.4 129.8, 526.4 129.3 Q 526.4 128.7, 526.8 128.3 Q 527.3 127.9, 528.1 127.9 Q 528.9 127.9, 529.3 128.3 Q 529.8 128.7, 529.8 129.3 Q 529.8 129.7, 529.6 130.0 Q 529.4 130.3, 528.9 130.6 M 528.1 128.5 Q 527.6 128.5, 527.4 128.7 Q 527.1 129.0, 527.1 129.3 Q 527.1 129.6, 527.3 129.8 Q 527.5 130.0, 527.7 130.1 Q 527.9 130.2, 528.4 130.4 Q 528.7 130.1, 528.9 129.9 Q 529.0 129.6, 529.0 129.3 Q 529.0 129.0, 528.8 128.7 Q 528.5 128.5, 528.1 128.5 M 528.1 132.9 Q 528.6 132.9, 528.9 132.7 Q 529.2 132.4, 529.2 131.9 Q 529.2 131.7, 529.1 131.5 Q 528.9 131.3, 528.7 131.2 Q 528.4 131.1, 528.0 130.9 L 527.6 130.8 Q 527.3 131.0, 527.1 131.3 Q 526.9 131.6, 526.9 131.9 Q 526.9 132.4, 527.2 132.7 Q 527.6 132.9, 528.1 132.9 " fill="#000000"/>
<path class="note" d="M 493.6 118.3 Q 494.6 118.3, 495.0 118.9 Q 495.5 119.6, 495.5 120.9 Q 495.5 122.3, 494.9 123.1 Q 494.3 123.8, 493.2 123.8 Q 492.8 123.8, 492.5 123.8 Q 492.3 123.7, 492.0 123.5 L 492.3 123.0 Q 492.7 123.2, 493.2 123.2 Q 493.9 123.2, 494.3 122.7 Q 494.7 122.2, 494.8 121.2 Q 494.5 121.5, 494.1 121.6 Q 493.8 121.7, 493.4 121.7 Q 492.9 121.7, 492.6 121.5 Q 492.2 121.3, 492.0 120.9 Q 491.8 120.6, 491.8 120.1 Q 491.8 119.6, 492.0 119.2 Q 492.2 118.7, 492.6 118.5 Q 493.1 118.3, 493.6 118.3 M 492.5 120.1 Q 492.5 120.6, 492.8 120.8 Q 493.1 121.1, 493.5 121.1 Q 493.9 121.1, 494.2 121.0 Q 494.5 120.9, 494.8 120.6 Q 494.7 119.7, 494.4 119.3 Q 494.2 118.9, 493.6 118.9 Q 493.3 118.9, 493.0 119.1 Q 492.8 119.2, 492.7 119.5 Q 492.5 119.8, 492.5 120.1 " fill="#000000"/>
<path class="note" d="M 454.2 99.8 L 455.4 99.8 L 455.4 95.7 L 454.1 96.1 L 453.9 95.7 L 455.5 94.9 L 456.1 95.0 L 456.1 99.8 L 457.2 99.8 L 457.2 100.4 L 454.2 100.4 L 454.2 99.8 " fill="#000000"/>
<path class="note" d="M 459.5 100.4 Q 458.5 100.4, 458.0 99.7 Q 457.5 99.0, 457.5 97.6 Q 457.5 96.3, 458.0 95.6 Q 458.5 94.9, 459.5 94.9 Q 460.5 94.9, 461.0 95.6 Q 461.5 96.3, 461.5 97.6 Q 461.5 99.0, 461.0 99.7 Q 460.5 100.4, 459.5 100.4 M 459.5 99.8 Q 460.1 99.8, 460.4 99.3 Q 460.7 98.7, 460.7 97.6 Q 460.7 96.6, 460.4 96.0 Q 460.1 95.5, 459.5 95.5 Q 458.9 95.5, 458.6 96.0 Q 458.2 96.6, 458.2 97.6 Q 458.2 98.7, 458.6 99.3 Q 458.9 99.8, 459.5 99.8 " fill="#000000"/>
<path class="note" d="M 545.2 148.3 L 546.4 148.3 L 546.4 144.3 L 545.1 144.7 L 544.9 144.2 L 546.6 143.5 L 547.1 143.6 L 547.1 148.3 L 548.2 148.3 L 548.2 149.0 L 545.2 149.0 L 545.2 148.3 " fill="#000000"/>
<path class="note" d="M 548.8 148.3 L 550.0 148.3 L 550.0 144.3 L 548.7 144.7 L 548.5 144.2 L 550.2 143.5 L 550.7 143.6 L 550.7 148.3 L 551.8 148.3 L 551.8 149.0 L 548.8 149.0 L 548.8 148.3 " fill="#000000"/>
<path class="note" d="M 336.8 165.7 L 338.0 165.7 L 338.0 161.7 L 336.7 162.1 L 336.5 161.6 L 338.2 160.9 L 338.7 161.0 L 338.7 165.7 L 339.8 165.7 L 339.8 166.3 L 336.8 166.3 L 336.8 165.7 " fill="#000000"/>
<path class="note" d="M 340.1 161.9 Q 340.3 161.4, 340.8 161.1 Q 341.3 160.8, 341.9 160.8 Q 342.7 160.8, 343.2 161.3 Q 343.7 161.7, 343.7 162.5 Q 343.7 163.3, 343.1 164.1 Q 342.5 164.8, 341.2 165.7 L 343.7 165.7 L 343.7 166.3 L 340.1 166.3 L 340.1 165.8 Q 341.1 165.1, 341.7 164.6 Q 342.3 164.0, 342.6 163.5 Q 342.9 163.0, 342.9 162.5 Q 342.9 162.0, 342.6 161.7 Q 342.4 161.4, 341.9 161.4 Q 341.5 161.4, 341.2 161.6 Q 340.9 161.8, 340.7 162.2 L 340.1 161.9 " fill="#000000"/>
<path class="note" d="M 323.5 187.5 L 324.6 187.5 L 324.6 183.4 L 323.3 183.8 L 323.2 183.4 L 324.8 182.6 L 325.4 182.7 L 325.4 187.5 L 326.4 187.5 L 326.4 188.1 L 323.5 188.1 L 323.5 187.5 " fill="#000000"/>
<path class="note" d="M 329.4 185.2 Q 329.9 185.4, 330.1 185.7 Q 330.4 186.1, 330.4 186.6 Q 330.4 187.1, 330.2 187.4 Q 329.9 187.8, 329.5 188.0 Q 329.1 188.2, 328.5 188.2 Q 328.0 188.2, 327.5 188.0 Q 327.1 187.8, 326.8 187.4 L 327.2 186.9 Q 327.5 187.3, 327.8 187.4 Q 328.1 187.6, 328.5 187.6 Q 329.0 187.6, 329.3 187.3 Q 329.6 187.0, 329.6 186.6 Q 329.6 186.1, 329.3 185.8 Q 329.0 185.6, 328.3 185.6 L 328.0 185.6 L 328.0 185.0 L 328.3 185.0 Q 328.9 185.0, 329.2 184.7 Q 329.5 184.5, 329.5 184.0 Q 329.5 183.6, 329.3 183.4 Q 329.0 183.2, 328.6 183.2 Q 328.1 183.2, 327.8 183.4 Q 327.5 183.5, 327.3 184.0 L 326.8 183.7 Q 327.0 183.2, 327.5 182.9 Q 327.9 182.6, 328.6 182.6 Q 329.4 182.6, 329.8 183.0 Q 330.3 183.4, 330.3 184.0 Q 330.3 184.4, 330.1 184.7 Q 329.8 185.1, 329.4 185.2 " fill="#000000"/>
<path class="note" d="M 332.9 106.9 L 334.1 106.9 L 334.1 102.9 L 332.8 103.3 L 332.6 102.8 L 334.2 102.1 L 334.8 102.2 L 334.8 106.9 L 335.9 106.9 L 335.9 107.6 L 332.9 107.6 L 332.9 106.9 " fill="#000000"/>
<path class="note" d="M 339.7 105.7 L 340.4 105.7 L 340.4 106.3 L 339.7 106.3 L 339.7 107.6 L 339.0 107.6 L 339.0 106.3 L 336.2 106.3 L 336.2 105.8 L 338.6 102.1 L 339.7 102.1 L 339.7 105.7 M 337.1 105.7 L 339.0 105.7 L 339.0 102.6 L 337.1 105.7 " fill="#000000"/>
<path class="note" d="M 395.1 125.3 L 396.3 125.3 L 396.3 121.2 L 394.9 121.6 L 394.8 121.2 L 396.4 120.4 L 397.0 120.5 L 397.0 125.3 L 398.0 125.3 L 398.0 125.9 L 395.1 125.9 L 395.1 125.3 " fill="#000000"/>
<path class="note" d="M 400.3 122.5 Q 400.8 122.5, 401.2 122.7 Q 401.6 122.9, 401.8 123.3 Q 402.0 123.7, 402.0 124.2 Q 402.0 124.8, 401.8 125.2 Q 401.5 125.6, 401.0 125.8 Q 400.6 126.0, 400.1 126.0 Q 399.6 126.0, 399.1 125.8 Q 398.7 125.6, 398.4 125.2 L 398.8 124.8 Q 399.1 125.0, 399.4 125.2 Q 399.8 125.3, 400.1 125.3 Q 400.6 125.3, 400.9 125.0 Q 401.3 124.8, 401.3 124.2 Q 401.3 123.6, 400.9 123.4 Q 400.6 123.1, 400.1 123.1 Q 399.6 123.1, 399.1 123.3 L 398.6 123.1 L 398.9 120.5 L 401.7 120.5 L 401.6 121.1 L 399.5 121.1 L 399.4 122.7 Q 399.9 122.5, 400.3 122.5 " fill="#000000"/>
<path class="note" d="M 466.7 132.9 L 467.9 132.9 L 467.9 128.9 L 466.6 129.3 L 466.4 128.8 L 468.0 128.1 L 468.6 128.2 L 468.6 132.9 L 469.6 132.9 L 469.6 133.6 L 466.7 133.6 L 466.7 132.9 " fill="#000000"/>
<path class="note" d="M 472.1 130.2 Q 472.6 130.2, 472.9 130.4 Q 473.3 130.6, 473.5 131.0 Q 473.7 131.3, 473.7 131.8 Q 473.7 132.3, 473.5 132.7 Q 473.3 133.2, 472.9 133.4 Q 472.4 133.6, 471.9 133.6 Q 470.9 133.6, 470.5 133.0 Q 470.0 132.3, 470.0 131.0 Q 470.0 129.6, 470.6 128.8 Q 471.2 128.1, 472.3 128.1 Q 472.7 128.1, 473.0 128.1 Q 473.2 128.2, 473.5 128.4 L 473.2 128.9 Q 472.8 128.7, 472.3 128.7 Q 471.6 128.7, 471.2 129.2 Q 470.8 129.7, 470.7 130.7 Q 471.0 130.4, 471.4 130.3 Q 471.7 130.2, 472.1 130.2 M 471.9 133.0 Q 472.2 133.0, 472.4 132.8 Q 472.7 132.7, 472.8 132.4 Q 473.0 132.1, 473.0 131.8 Q 473.0 131.3, 472.7 131.1 Q 472.4 130.8, 472.0 130.8 Q 471.6 130.8, 471.3 130.9 Q 471.0 131.0, 470.7 131.3 Q 470.8 132.2, 471.1 132.6 Q 471.3 133.0, 471.9 133.0 " fill="#000000"/>
</svg>